<svg width="39" height="46" viewBox="0 0 39 46" fill="none" xmlns="http://www.w3.org/2000/svg">
<path d="M31.9935 24.4135C32.0162 22.6931 32.4843 21.0064 33.3541 19.5101C34.224 18.0138 35.4674 16.7566 36.9686 15.8556C36.0149 14.5258 34.7568 13.4315 33.2941 12.6595C31.8314 11.8875 30.2045 11.4591 28.5426 11.4083C24.9974 11.045 21.5606 13.4794 19.754 13.4794C17.9125 13.4794 15.131 11.4444 12.1358 11.5045C10.1985 11.5656 8.31034 12.1157 6.65544 13.101C5.00055 14.0863 3.6353 15.4734 2.69274 17.127C-1.39016 24.0285 1.65532 34.1715 5.56646 39.7502C7.52331 42.4819 9.81027 45.5333 12.8028 45.4251C15.7311 45.3065 16.8248 43.602 20.3595 43.602C23.8614 43.602 24.8875 45.4251 27.9407 45.3563C31.0829 45.3065 33.0626 42.6124 34.9509 39.8548C36.3569 37.9084 37.4388 35.7571 38.1565 33.4808C36.331 32.727 34.7731 31.4652 33.6771 29.8528C32.5812 28.2403 31.9956 26.3486 31.9935 24.4135Z" fill="black"/>
<path d="M26.2217 7.7398C27.935 5.73183 28.779 3.15092 28.5746 0.545166C25.9571 0.813565 23.5393 2.0349 21.8029 3.96583C20.9539 4.90914 20.3037 6.00656 19.8894 7.19536C19.4751 8.38416 19.3048 9.64102 19.3883 10.8941C20.6976 10.9073 21.9928 10.6302 23.1764 10.0838C24.36 9.53746 25.4013 8.73599 26.2217 7.7398Z" fill="black"/>
</svg>
