<svg width="120" height="40" viewBox="0 0 120 40" fill="none" xmlns="http://www.w3.org/2000/svg">
<rect x="0.5" y="0.5" width="119" height="39" rx="5.5" fill="white"/>
<rect x="0.5" y="0.5" width="119" height="39" rx="5.5" stroke="black"/>
<path d="M24.7045 20.7631C24.7166 19.8432 24.9669 18.9413 25.4321 18.1412C25.8972 17.3411 26.5621 16.6688 27.3648 16.187C26.8548 15.476 26.1821 14.8908 25.4 14.478C24.6178 14.0652 23.7479 13.8361 22.8592 13.809C20.9635 13.6147 19.1258 14.9164 18.1598 14.9164C17.1751 14.9164 15.6878 13.8283 14.0862 13.8604C13.0502 13.8931 12.0406 14.1872 11.1557 14.7141C10.2708 15.241 9.54075 15.9827 9.03674 16.8669C6.85352 20.5573 8.48201 25.9809 10.5734 28.964C11.6197 30.4247 12.8426 32.0564 14.4428 31.9985C16.0086 31.9351 16.5934 31.0237 18.4835 31.0237C20.3561 31.0237 20.9048 31.9985 22.5374 31.9617C24.2176 31.9351 25.2762 30.4945 26.2859 29.02C27.0377 27.9792 27.6162 26.8288 28 25.6116C27.0238 25.2085 26.1908 24.5338 25.6048 23.6716C25.0187 22.8094 24.7056 21.7979 24.7045 20.7631Z" fill="black"/>
<path d="M21.622 11.8471C22.5381 10.7734 22.9895 9.39335 22.8802 8C21.4806 8.14352 20.1877 8.7966 19.2592 9.82911C18.8052 10.3335 18.4575 10.9203 18.236 11.556C18.0145 12.1917 17.9234 12.8638 17.9681 13.5338C18.6681 13.5408 19.3607 13.3927 19.9936 13.1005C20.6266 12.8084 21.1833 12.3798 21.622 11.8471Z" fill="black"/>
<path d="M37.291 9.50146H39.3608C40.2456 9.50146 40.9092 9.75635 41.3516 10.2661C41.7969 10.7759 42.0195 11.5186 42.0195 12.4941C42.0195 13.4697 41.7969 14.2153 41.3516 14.731C40.9063 15.2437 40.2427 15.5 39.3608 15.5H37.291V9.50146ZM38.2886 10.3408V14.6606H39.251C39.8428 14.6606 40.2808 14.4819 40.5649 14.1245C40.8521 13.7671 40.9956 13.228 40.9956 12.5073C40.9956 11.7808 40.8521 11.2388 40.5649 10.8813C40.2778 10.521 39.8398 10.3408 39.251 10.3408H38.2886ZM45.1748 10.7759C45.79 10.7759 46.2866 10.9634 46.6646 11.3384C47.0454 11.7134 47.2358 12.2231 47.2358 12.8677V13.4697C47.2358 14.1318 47.0469 14.6489 46.6689 15.021C46.291 15.3931 45.793 15.5791 45.1748 15.5791C44.5479 15.5791 44.0454 15.3945 43.6675 15.0254C43.2925 14.6562 43.105 14.1392 43.105 13.4741V12.8721C43.105 12.2422 43.2969 11.7354 43.6807 11.3516C44.0645 10.9678 44.5625 10.7759 45.1748 10.7759ZM45.1792 11.5625C44.8394 11.5625 44.5728 11.6899 44.3794 11.9448C44.186 12.1968 44.0894 12.522 44.0894 12.9204V13.439C44.0894 13.8433 44.1831 14.1699 44.3706 14.4189C44.561 14.668 44.8306 14.7925 45.1792 14.7925C45.5249 14.7925 45.79 14.668 45.9746 14.4189C46.1621 14.1699 46.2559 13.8433 46.2559 13.439V12.9204C46.2559 12.519 46.1606 12.1924 45.9702 11.9404C45.7798 11.6885 45.5161 11.5625 45.1792 11.5625ZM54.3989 10.855L53.1772 15.5H52.1841L51.2129 12.0723H51.1865L50.2329 15.5H49.2354L47.9609 10.855H49.0112L49.7583 14.397H49.8022L50.7383 10.855H51.6567L52.6191 14.397H52.6631L53.4233 10.855H54.3989ZM55.3657 15.5V10.855H56.3237V11.6899H56.3721C56.3984 11.6079 56.4307 11.5303 56.4688 11.457C56.5098 11.3809 56.5684 11.3003 56.6445 11.2153C56.7207 11.1304 56.8071 11.0586 56.9038 11C57.0005 10.9385 57.1235 10.8872 57.273 10.8462C57.4253 10.8052 57.5908 10.7847 57.7695 10.7847C58.2529 10.7847 58.6338 10.9194 58.9121 11.189C59.1934 11.4556 59.334 11.8467 59.334 12.3623V15.5H58.3584V12.6479C58.3584 12.3052 58.2764 12.0474 58.1123 11.8745C57.9482 11.7017 57.7241 11.6152 57.4399 11.6152C57.0913 11.6152 56.8203 11.7354 56.627 11.9756C56.4365 12.2158 56.3413 12.5308 56.3413 12.9204V15.5H55.3657ZM60.8105 15.5V9.18506H61.7861V15.5H60.8105ZM65.1348 10.7759C65.75 10.7759 66.2466 10.9634 66.6245 11.3384C67.0054 11.7134 67.1958 12.2231 67.1958 12.8677V13.4697C67.1958 14.1318 67.0068 14.6489 66.6289 15.021C66.251 15.3931 65.7529 15.5791 65.1348 15.5791C64.5078 15.5791 64.0054 15.3945 63.6274 15.0254C63.2524 14.6562 63.0649 14.1392 63.0649 13.4741V12.8721C63.0649 12.2422 63.2568 11.7354 63.6406 11.3516C64.0244 10.9678 64.5225 10.7759 65.1348 10.7759ZM65.1392 11.5625C64.7993 11.5625 64.5327 11.6899 64.3394 11.9448C64.146 12.1968 64.0493 12.522 64.0493 12.9204V13.439C64.0493 13.8433 64.1431 14.1699 64.3306 14.4189C64.521 14.668 64.7905 14.7925 65.1392 14.7925C65.4849 14.7925 65.75 14.668 65.9346 14.4189C66.1221 14.1699 66.2158 13.8433 66.2158 13.439V12.9204C66.2158 12.519 66.1206 12.1924 65.9302 11.9404C65.7397 11.6885 65.4761 11.5625 65.1392 11.5625ZM69.7227 15.5703C69.2686 15.5703 68.9009 15.4414 68.6196 15.1836C68.3413 14.9258 68.2022 14.5815 68.2022 14.1509C68.2022 13.7319 68.3442 13.3979 68.6284 13.1489C68.9155 12.8999 69.3213 12.7754 69.8457 12.7754H71.019V12.3403C71.019 12.0796 70.9414 11.8848 70.7861 11.7559C70.6338 11.624 70.4199 11.5581 70.1445 11.5581C69.6699 11.5581 69.3901 11.7339 69.3052 12.0854H68.3779C68.4072 11.6841 68.5728 11.3677 68.8745 11.1362C69.1792 10.9019 69.6128 10.7847 70.1753 10.7847C70.4331 10.7847 70.6675 10.814 70.8784 10.8726C71.0923 10.9282 71.2842 11.0161 71.4541 11.1362C71.624 11.2534 71.7559 11.416 71.8496 11.624C71.9434 11.8291 71.9902 12.0723 71.9902 12.3535V15.5H71.063V14.8979H71.019C70.9048 15.0972 70.7393 15.2598 70.5225 15.3857C70.3086 15.5088 70.042 15.5703 69.7227 15.5703ZM70.0259 14.8145C70.3042 14.8145 70.5386 14.731 70.729 14.564C70.9224 14.394 71.019 14.1831 71.019 13.9312V13.4302H69.9995C69.7271 13.4302 69.522 13.4917 69.3843 13.6147C69.2495 13.7378 69.1821 13.9004 69.1821 14.1025C69.1821 14.3311 69.2627 14.5068 69.4238 14.6299C69.5879 14.7529 69.7886 14.8145 70.0259 14.8145ZM74.9961 10.7935C75.3213 10.7935 75.6025 10.8608 75.8398 10.9956C76.0771 11.1304 76.2412 11.3164 76.332 11.5537H76.3804V9.18506H77.356V15.5H76.4067V14.7573H76.3584C76.2881 14.9946 76.1255 15.188 75.8706 15.3374C75.6157 15.4868 75.3198 15.5615 74.9829 15.5615C74.4468 15.5615 74.019 15.3828 73.6997 15.0254C73.3804 14.668 73.2207 14.1846 73.2207 13.5752V12.7798C73.2207 12.1704 73.3818 11.687 73.7041 11.3296C74.0293 10.9722 74.46 10.7935 74.9961 10.7935ZM75.2686 11.5933C74.9404 11.5933 74.6826 11.7104 74.4951 11.9448C74.3076 12.1763 74.2139 12.5015 74.2139 12.9204V13.4302C74.2139 13.8521 74.3091 14.1802 74.4995 14.4146C74.6899 14.646 74.9536 14.7617 75.2905 14.7617C75.6216 14.7617 75.8853 14.6489 76.0815 14.4233C76.2808 14.1948 76.3804 13.8843 76.3804 13.4917V12.7886C76.3804 12.4341 76.2764 12.147 76.0684 11.9272C75.8604 11.7046 75.5938 11.5933 75.2686 11.5933ZM82.7129 10.7759C83.3281 10.7759 83.8247 10.9634 84.2026 11.3384C84.5835 11.7134 84.7739 12.2231 84.7739 12.8677V13.4697C84.7739 14.1318 84.585 14.6489 84.207 15.021C83.8291 15.3931 83.3311 15.5791 82.7129 15.5791C82.0859 15.5791 81.5835 15.3945 81.2056 15.0254C80.8306 14.6562 80.6431 14.1392 80.6431 13.4741V12.8721C80.6431 12.2422 80.835 11.7354 81.2188 11.3516C81.6025 10.9678 82.1006 10.7759 82.7129 10.7759ZM82.7173 11.5625C82.3774 11.5625 82.1108 11.6899 81.9175 11.9448C81.7241 12.1968 81.6274 12.522 81.6274 12.9204V13.439C81.6274 13.8433 81.7212 14.1699 81.9087 14.4189C82.0991 14.668 82.3687 14.7925 82.7173 14.7925C83.063 14.7925 83.3281 14.668 83.5127 14.4189C83.7002 14.1699 83.7939 13.8433 83.7939 13.439V12.9204C83.7939 12.519 83.6987 12.1924 83.5083 11.9404C83.3179 11.6885 83.0542 11.5625 82.7173 11.5625ZM86.0308 15.5V10.855H86.9888V11.6899H87.0371C87.0635 11.6079 87.0957 11.5303 87.1338 11.457C87.1748 11.3809 87.2334 11.3003 87.3096 11.2153C87.3857 11.1304 87.4722 11.0586 87.5689 11C87.6655 10.9385 87.7886 10.8872 87.938 10.8462C88.0903 10.8052 88.2559 10.7847 88.4346 10.7847C88.918 10.7847 89.2988 10.9194 89.5772 11.189C89.8584 11.4556 89.999 11.8467 89.999 12.3623V15.5H89.0234V12.6479C89.0234 12.3052 88.9414 12.0474 88.7773 11.8745C88.6133 11.7017 88.3892 11.6152 88.105 11.6152C87.7564 11.6152 87.4854 11.7354 87.292 11.9756C87.1016 12.2158 87.0064 12.5308 87.0064 12.9204V15.5H86.0308ZM93.7739 10.8857V9.72559H94.7275V10.8857H95.769V11.6504H94.7275V14.1157C94.7275 14.3647 94.7788 14.5347 94.8814 14.6255C94.9868 14.7163 95.1729 14.7617 95.4395 14.7617C95.5947 14.7617 95.7222 14.7559 95.8218 14.7441V15.4912C95.6636 15.5176 95.4556 15.5308 95.1978 15.5308C94.6499 15.5308 94.2734 15.4297 94.0684 15.2275C93.8633 15.0225 93.7607 14.6782 93.7607 14.1948V11.6504H93.0532V10.8857H93.7739ZM96.9995 15.5V9.18506H97.9707V11.6899H98.019C98.0483 11.5962 98.0938 11.5024 98.1553 11.4087C98.2168 11.312 98.3003 11.2153 98.4058 11.1187C98.5142 11.019 98.6563 10.9385 98.832 10.877C99.0107 10.8154 99.21 10.7847 99.4297 10.7847C99.8984 10.7847 100.273 10.9209 100.555 11.1934C100.839 11.4629 100.981 11.854 100.981 12.3667V15.5H100.01V12.6523C100.01 12.3096 99.9233 12.0518 99.7505 11.8789C99.5806 11.7031 99.3521 11.6152 99.0649 11.6152C98.7222 11.6152 98.4541 11.7368 98.2607 11.98C98.0674 12.2202 97.9707 12.5337 97.9707 12.9204V15.5H96.9995ZM104.255 15.5791C103.619 15.5791 103.118 15.3945 102.752 15.0254C102.386 14.6562 102.203 14.145 102.203 13.4917V12.8633C102.203 12.2187 102.389 11.7104 102.761 11.3384C103.136 10.9634 103.615 10.7759 104.198 10.7759C104.787 10.7759 105.264 10.9663 105.63 11.3472C106 11.7251 106.184 12.2305 106.184 12.8633V13.4082H103.169V13.6367C103.169 13.9795 103.266 14.2593 103.459 14.4761C103.653 14.6899 103.917 14.7969 104.25 14.7969C104.497 14.7969 104.703 14.7456 104.87 14.6431C105.04 14.5405 105.143 14.4146 105.178 14.2651H106.131C106.117 14.4087 106.068 14.5537 105.986 14.7002C105.904 14.8467 105.79 14.9873 105.644 15.1221C105.5 15.2568 105.307 15.3667 105.063 15.4517C104.82 15.5366 104.551 15.5791 104.255 15.5791ZM103.169 12.771H105.23V12.7095C105.23 12.3608 105.137 12.0796 104.949 11.8657C104.762 11.6519 104.513 11.5449 104.202 11.5449C103.892 11.5449 103.641 11.6519 103.451 11.8657C103.263 12.0796 103.169 12.3608 103.169 12.7095V12.771Z" fill="black"/>
<path d="M38.7061 29.5H36.6758L40.8066 17.5029H43.0391L47.1611 29.5H45.0518L43.9883 26.1777H39.7783L38.7061 29.5ZM41.9316 19.5771H41.8525L40.2266 24.6484H43.54L41.9316 19.5771ZM52.7644 29.6318C52.1784 29.6318 51.6599 29.5059 51.2087 29.2539C50.7575 28.9961 50.406 28.6475 50.154 28.208H50.0837V32.585H48.1325V20.21H50.031V21.5723H50.1013C50.365 21.1152 50.7282 20.7549 51.1911 20.4912C51.6599 20.2217 52.1989 20.0869 52.8083 20.0869C53.8747 20.0869 54.7361 20.4736 55.3923 21.2471C56.0486 22.0146 56.3767 23.0781 56.3767 24.4375V25.2637C56.3767 26.623 56.0456 27.6924 55.3835 28.4717C54.7273 29.2451 53.8542 29.6318 52.7644 29.6318ZM52.3161 28.0234C52.9489 28.0234 53.4529 27.7744 53.8279 27.2764C54.2087 26.7783 54.3991 26.0723 54.3991 25.1582V24.5078C54.3991 23.6113 54.2116 22.917 53.8366 22.4248C53.4675 21.9268 52.9489 21.6777 52.281 21.6777C51.6013 21.6777 51.0622 21.9326 50.6638 22.4424C50.2654 22.9521 50.0661 23.6377 50.0661 24.499V25.1582C50.0661 26.0371 50.2683 26.7344 50.6726 27.25C51.0769 27.7656 51.6247 28.0234 52.3161 28.0234ZM62.683 29.6318C62.0971 29.6318 61.5786 29.5059 61.1274 29.2539C60.6762 28.9961 60.3246 28.6475 60.0727 28.208H60.0024V32.585H58.0512V20.21H59.9496V21.5723H60.02C60.2836 21.1152 60.6469 20.7549 61.1098 20.4912C61.5786 20.2217 62.1176 20.0869 62.727 20.0869C63.7934 20.0869 64.6547 20.4736 65.311 21.2471C65.9672 22.0146 66.2954 23.0781 66.2954 24.4375V25.2637C66.2954 26.623 65.9643 27.6924 65.3022 28.4717C64.6459 29.2451 63.7729 29.6318 62.683 29.6318ZM62.2348 28.0234C62.8676 28.0234 63.3715 27.7744 63.7465 27.2764C64.1274 26.7783 64.3178 26.0723 64.3178 25.1582V24.5078C64.3178 23.6113 64.1303 22.917 63.7553 22.4248C63.3862 21.9268 62.8676 21.6777 62.1996 21.6777C61.52 21.6777 60.9809 21.9326 60.5825 22.4424C60.184 22.9521 59.9848 23.6377 59.9848 24.499V25.1582C59.9848 26.0371 60.187 26.7344 60.5912 27.25C60.9955 27.7656 61.5434 28.0234 62.2348 28.0234ZM70.3388 26.1689H72.2899C72.3368 26.7197 72.5946 27.1797 73.0634 27.5488C73.538 27.9121 74.1796 28.0937 74.9882 28.0937C75.7616 28.0937 76.3681 27.9268 76.8075 27.5928C77.247 27.2529 77.4667 26.7988 77.4667 26.2305C77.4667 25.7793 77.3143 25.4219 77.0097 25.1582C76.705 24.8887 76.2245 24.6748 75.5682 24.5166L73.5995 24.0244C73.1893 23.9307 72.8173 23.8018 72.4833 23.6377C72.1493 23.4736 71.8417 23.2656 71.5604 23.0137C71.2792 22.7559 71.0595 22.4395 70.9013 22.0645C70.743 21.6836 70.6639 21.2588 70.6639 20.79C70.6639 20.0518 70.8632 19.4102 71.2616 18.8652C71.6659 18.3145 72.1903 17.9072 72.8348 17.6436C73.4852 17.374 74.2059 17.2393 74.997 17.2393C76.2098 17.2393 77.2264 17.5527 78.0468 18.1797C78.8671 18.8008 79.2889 19.6533 79.3124 20.7373H77.3964C77.3495 20.1924 77.1181 19.7471 76.702 19.4014C76.2919 19.0498 75.7147 18.874 74.9706 18.874C74.2733 18.874 73.7138 19.0322 73.2919 19.3486C72.8759 19.6592 72.6679 20.0898 72.6679 20.6406C72.6679 21.4551 73.2216 21.9883 74.329 22.2402L76.2889 22.7236C76.7694 22.8408 77.1913 22.9844 77.5546 23.1543C77.9179 23.3184 78.2489 23.5293 78.5477 23.7871C78.8466 24.0449 79.0722 24.3643 79.2245 24.7451C79.3827 25.126 79.4618 25.5625 79.4618 26.0547C79.4618 27.209 79.037 28.1113 78.1874 28.7617C77.3436 29.4121 76.2274 29.7373 74.8388 29.7373C74.1942 29.7373 73.6112 29.6641 73.0897 29.5176C72.5741 29.3711 72.1493 29.1807 71.8153 28.9463C71.4872 28.7119 71.2089 28.4365 70.9804 28.1201C70.7577 27.8037 70.5966 27.4844 70.497 27.1621C70.4032 26.8398 70.3505 26.5088 70.3388 26.1689ZM81.8395 20.21V17.9512H83.7555V20.21H85.566V21.7744H83.7555V26.7314C83.7555 27.2295 83.858 27.5693 84.0631 27.751C84.274 27.9326 84.6461 28.0234 85.1793 28.0234C85.3961 28.0234 85.5426 28.0176 85.6188 28.0059V29.5C85.3727 29.541 85.065 29.5615 84.6959 29.5615C83.9459 29.5615 83.36 29.4648 82.9381 29.2715C82.5162 29.0781 82.2232 28.7939 82.0592 28.4189C81.8951 28.0439 81.8131 27.5342 81.8131 26.8896V21.7744H80.5299V20.21H81.8395ZM87.7855 21.2822C88.5179 20.4619 89.5345 20.0518 90.8353 20.0518C92.1361 20.0518 93.1468 20.4619 93.8675 21.2822C94.5941 22.0967 94.9573 23.1572 94.9573 24.4639V25.2109C94.9573 26.5527 94.597 27.6309 93.8763 28.4453C93.1614 29.2539 92.1478 29.6582 90.8353 29.6582C89.5228 29.6582 88.5032 29.2539 87.7767 28.4453C87.056 27.6309 86.6956 26.5527 86.6956 25.2109V24.4639C86.6956 23.1631 87.0589 22.1025 87.7855 21.2822ZM92.4437 22.3984C92.0745 21.877 91.5384 21.6162 90.8353 21.6162C90.1321 21.6162 89.5931 21.877 89.2181 22.3984C88.8489 22.9199 88.6644 23.6172 88.6644 24.4902V25.2021C88.6644 26.0693 88.8489 26.7666 89.2181 27.2939C89.5931 27.8213 90.1321 28.085 90.8353 28.085C91.5384 28.085 92.0745 27.8213 92.4437 27.2939C92.8128 26.7666 92.9974 26.0693 92.9974 25.2021V24.4902C92.9974 23.6113 92.8128 22.9141 92.4437 22.3984ZM96.6055 29.5V20.21H98.5567V21.4316H98.627C98.7735 21.0801 99.0342 20.7666 99.4092 20.4912C99.7842 20.2158 100.265 20.0781 100.851 20.0781C101.108 20.0781 101.328 20.0957 101.51 20.1309V21.8535C101.334 21.8066 101.056 21.7832 100.675 21.7832C99.9366 21.7832 99.4034 21.9824 99.0752 22.3809C98.7471 22.7793 98.5831 23.3184 98.5831 23.998V29.5H96.6055ZM106.243 29.6582C104.995 29.6582 104.005 29.2686 103.272 28.4893C102.54 27.7041 102.174 26.6289 102.174 25.2637V24.3232C102.174 23.0225 102.534 21.9854 103.255 21.2119C103.975 20.4385 104.945 20.0518 106.164 20.0518C107.394 20.0518 108.364 20.4473 109.073 21.2383C109.782 22.0293 110.136 23.0869 110.136 24.4111V25.2988H104.098V25.5186C104.098 26.3037 104.295 26.9336 104.687 27.4082C105.08 27.8828 105.607 28.1201 106.269 28.1201C106.761 28.1201 107.172 28.0059 107.5 27.7773C107.828 27.5488 108.053 27.2324 108.177 26.8281H110.031C109.879 27.6426 109.48 28.3193 108.836 28.8584C108.191 29.3916 107.327 29.6582 106.243 29.6582ZM104.098 23.9365H108.229V23.9189C108.229 23.2451 108.039 22.6855 107.658 22.2402C107.277 21.7891 106.782 21.5635 106.173 21.5635C105.557 21.5635 105.056 21.7891 104.67 22.2402C104.289 22.6855 104.098 23.2451 104.098 23.9189V23.9365Z" fill="black"/>
</svg>

