<svg width="219" height="74" viewBox="0 0 219 74" fill="none" xmlns="http://www.w3.org/2000/svg">
<rect x="0.9125" y="1.6625" width="217.175" height="71.175" rx="10.0375" fill="white"/>
<rect x="0.9125" y="1.6625" width="217.175" height="71.175" rx="10.0375" stroke="black" stroke-width="1.825"/>
<path d="M45.0843 38.6415C45.1065 36.9626 45.5633 35.3166 46.4121 33.8564C47.261 32.3962 48.4744 31.1694 49.9394 30.2901C49.0087 28.9924 47.7809 27.9245 46.3536 27.1711C44.9262 26.4177 43.3385 25.9997 41.7167 25.9501C38.2571 25.5956 34.9032 27.9712 33.1402 27.9712C31.3431 27.9712 28.6288 25.9853 25.7059 26.044C23.8153 26.1037 21.9727 26.6404 20.3578 27.602C18.7428 28.5635 17.4105 29.9171 16.4907 31.5309C12.5063 38.2658 15.4783 48.164 19.2951 53.6081C21.2047 56.2739 23.4365 59.2516 26.3567 59.146C29.2144 59.0303 30.2817 57.367 33.7311 57.367C37.1485 57.367 38.1498 59.146 41.1293 59.0789C44.1957 59.0303 46.1277 56.4012 47.9704 53.7102C49.3424 51.8107 50.3982 49.7114 51.0986 47.49C49.3171 46.7543 47.7969 45.523 46.7273 43.9495C45.6578 42.376 45.0864 40.5299 45.0843 38.6415Z" fill="black"/>
<path d="M39.4586 22.3726C41.1306 20.4131 41.9543 17.8944 41.7548 15.3516C39.2005 15.6135 36.841 16.8054 35.1465 18.6897C34.318 19.6102 33.6834 20.6812 33.2791 21.8413C32.8748 23.0014 32.7087 24.2279 32.7902 25.4508C34.0678 25.4636 35.3317 25.1932 36.4868 24.66C37.6419 24.1269 38.658 23.3447 39.4586 22.3726Z" fill="black"/>
<path d="M67.1436 15.8027H70.921C72.5357 15.8027 73.7467 16.2678 74.5541 17.1982C75.3667 18.1285 75.7731 19.4839 75.7731 21.2643C75.7731 23.0448 75.3667 24.4055 74.5541 25.3465C73.7414 26.2822 72.5303 26.75 70.921 26.75H67.1436V15.8027ZM68.9641 17.3345V25.2182H70.7205C71.8005 25.2182 72.5998 24.892 73.1185 24.2397C73.6424 23.5874 73.9044 22.6036 73.9044 21.2884C73.9044 19.9624 73.6424 18.9733 73.1185 18.321C72.5945 17.6633 71.7952 17.3345 70.7205 17.3345H68.9641ZM81.5315 18.1285C82.6543 18.1285 83.5605 18.4707 84.2503 19.155C84.9453 19.8394 85.2929 20.7697 85.2929 21.946V23.0448C85.2929 24.2531 84.948 25.1968 84.2583 25.8758C83.5686 26.5548 82.6596 26.8944 81.5315 26.8944C80.3873 26.8944 79.4703 26.5575 78.7806 25.8838C78.0962 25.2102 77.754 24.2665 77.754 23.0528V21.954C77.754 20.8045 78.1042 19.8795 78.8047 19.1791C79.5051 18.4787 80.414 18.1285 81.5315 18.1285ZM81.5395 19.5641C80.9193 19.5641 80.4327 19.7966 80.0798 20.2618C79.727 20.7216 79.5505 21.3151 79.5505 22.0422V22.9886C79.5505 23.7265 79.7216 24.3226 80.0638 24.7771C80.4113 25.2315 80.9032 25.4588 81.5395 25.4588C82.1704 25.4588 82.6543 25.2315 82.9911 24.7771C83.3333 24.3226 83.5044 23.7265 83.5044 22.9886V22.0422C83.5044 21.3098 83.3306 20.7136 82.9831 20.2538C82.6356 19.794 82.1544 19.5641 81.5395 19.5641ZM98.3655 18.2728L96.1359 26.75H94.3234L92.551 20.4944H92.5029L90.7625 26.75H88.942L86.6162 18.2728H88.5329L89.8964 24.737H89.9766L91.6848 18.2728H93.361L95.1174 24.737H95.1976L96.585 18.2728H98.3655ZM100.13 26.75V18.2728H101.878V19.7966H101.966C102.015 19.6469 102.073 19.5052 102.143 19.3716C102.218 19.2326 102.325 19.0855 102.464 18.9305C102.603 18.7754 102.76 18.6444 102.937 18.5375C103.113 18.4252 103.338 18.3317 103.611 18.2568C103.889 18.1819 104.191 18.1445 104.517 18.1445C105.399 18.1445 106.094 18.3905 106.602 18.8824C107.115 19.3689 107.372 20.0827 107.372 21.0237V26.75H105.592V21.545C105.592 20.9194 105.442 20.4489 105.142 20.1335C104.843 19.818 104.434 19.6603 103.915 19.6603C103.279 19.6603 102.785 19.8795 102.432 20.3179C102.084 20.7564 101.91 21.3311 101.91 22.0422V26.75H100.13ZM110.067 26.75V15.2252H111.847V26.75H110.067ZM117.958 18.1285C119.081 18.1285 119.987 18.4707 120.677 19.155C121.372 19.8394 121.72 20.7697 121.72 21.946V23.0448C121.72 24.2531 121.375 25.1968 120.685 25.8758C119.995 26.5548 119.087 26.8944 117.958 26.8944C116.814 26.8944 115.897 26.5575 115.208 25.8838C114.523 25.2102 114.181 24.2665 114.181 23.0528V21.954C114.181 20.8045 114.531 19.8795 115.232 19.1791C115.932 18.4787 116.841 18.1285 117.958 18.1285ZM117.966 19.5641C117.346 19.5641 116.86 19.7966 116.507 20.2618C116.154 20.7216 115.977 21.3151 115.977 22.0422V22.9886C115.977 23.7265 116.149 24.3226 116.491 24.7771C116.838 25.2315 117.33 25.4588 117.966 25.4588C118.597 25.4588 119.081 25.2315 119.418 24.7771C119.76 24.3226 119.931 23.7265 119.931 22.9886V22.0422C119.931 21.3098 119.758 20.7136 119.41 20.2538C119.062 19.794 118.581 19.5641 117.966 19.5641ZM126.331 26.8783C125.503 26.8783 124.832 26.6431 124.318 26.1726C123.81 25.7021 123.556 25.0738 123.556 24.2879C123.556 23.5233 123.816 22.9138 124.334 22.4593C124.858 22.0048 125.599 21.7776 126.556 21.7776H128.697V20.9836C128.697 20.5078 128.556 20.1522 128.272 19.9169C127.994 19.6763 127.604 19.556 127.101 19.556C126.235 19.556 125.724 19.8768 125.569 20.5184H123.877C123.931 19.7859 124.233 19.2085 124.783 18.7861C125.339 18.3584 126.131 18.1445 127.157 18.1445C127.628 18.1445 128.056 18.198 128.441 18.3049C128.831 18.4065 129.181 18.5669 129.491 18.7861C129.801 19 130.042 19.2967 130.213 19.6763C130.384 20.0506 130.47 20.4944 130.47 21.0077V26.75H128.777V25.6513H128.697C128.489 26.0148 128.187 26.3116 127.791 26.5415C127.401 26.766 126.914 26.8783 126.331 26.8783ZM126.885 25.4989C127.393 25.4989 127.82 25.3465 128.168 25.0417C128.521 24.7316 128.697 24.3467 128.697 23.8869V22.9726H126.837C126.339 22.9726 125.965 23.0849 125.714 23.3094C125.468 23.534 125.345 23.8307 125.345 24.1996C125.345 24.6167 125.492 24.9375 125.786 25.162C126.085 25.3866 126.452 25.4989 126.885 25.4989ZM135.955 18.1606C136.549 18.1606 137.062 18.2835 137.495 18.5295C137.928 18.7754 138.228 19.1149 138.393 19.548H138.482V15.2252H140.262V26.75H138.53V25.3946H138.442C138.313 25.8277 138.016 26.1806 137.551 26.4533C137.086 26.7259 136.546 26.8623 135.931 26.8623C134.953 26.8623 134.172 26.5361 133.589 25.8838C133.007 25.2315 132.715 24.3493 132.715 23.2372V21.7856C132.715 20.6735 133.009 19.7913 133.597 19.139C134.191 18.4867 134.977 18.1606 135.955 18.1606ZM136.453 19.6202C135.854 19.6202 135.383 19.8341 135.041 20.2618C134.699 20.6842 134.528 21.2777 134.528 22.0422V22.9726C134.528 23.7425 134.702 24.3413 135.049 24.7691C135.397 25.1914 135.878 25.4026 136.493 25.4026C137.097 25.4026 137.578 25.1968 137.936 24.7851C138.3 24.3681 138.482 23.8013 138.482 23.0849V21.8016C138.482 21.1547 138.292 20.6307 137.912 20.2297C137.533 19.8234 137.046 19.6202 136.453 19.6202ZM150.038 18.1285C151.161 18.1285 152.068 18.4707 152.757 19.155C153.452 19.8394 153.8 20.7697 153.8 21.946V23.0448C153.8 24.2531 153.455 25.1968 152.765 25.8758C152.076 26.5548 151.167 26.8944 150.038 26.8944C148.894 26.8944 147.977 26.5575 147.288 25.8838C146.603 25.2102 146.261 24.2665 146.261 23.0528V21.954C146.261 20.8045 146.611 19.8795 147.312 19.1791C148.012 18.4787 148.921 18.1285 150.038 18.1285ZM150.046 19.5641C149.426 19.5641 148.94 19.7966 148.587 20.2618C148.234 20.7216 148.058 21.3151 148.058 22.0422V22.9886C148.058 23.7265 148.229 24.3226 148.571 24.7771C148.918 25.2315 149.41 25.4588 150.046 25.4588C150.677 25.4588 151.161 25.2315 151.498 24.7771C151.84 24.3226 152.011 23.7265 152.011 22.9886V22.0422C152.011 21.3098 151.838 20.7136 151.49 20.2538C151.143 19.794 150.661 19.5641 150.046 19.5641ZM156.094 26.75V18.2728H157.842V19.7966H157.93C157.978 19.6469 158.037 19.5052 158.107 19.3716C158.181 19.2326 158.288 19.0855 158.427 18.9305C158.566 18.7754 158.724 18.6444 158.901 18.5375C159.077 18.4252 159.302 18.3317 159.574 18.2568C159.852 18.1819 160.154 18.1445 160.481 18.1445C161.363 18.1445 162.058 18.3905 162.566 18.8824C163.079 19.3689 163.336 20.0827 163.336 21.0237V26.75H161.555V21.545C161.555 20.9194 161.406 20.4489 161.106 20.1335C160.807 19.818 160.398 19.6603 159.879 19.6603C159.243 19.6603 158.748 19.8795 158.395 20.3179C158.048 20.7564 157.874 21.3311 157.874 22.0422V26.75H156.094ZM170.225 18.329V16.2117H171.965V18.329H173.866V19.7245H171.965V24.2237C171.965 24.6782 172.059 24.9883 172.246 25.154C172.438 25.3198 172.778 25.4026 173.264 25.4026C173.548 25.4026 173.78 25.3919 173.962 25.3706V26.734C173.673 26.7821 173.294 26.8061 172.823 26.8061C171.824 26.8061 171.136 26.6217 170.762 26.2528C170.388 25.8785 170.201 25.2503 170.201 24.3681V19.7245H168.91V18.329H170.225ZM176.112 26.75V15.2252H177.884V19.7966H177.972C178.026 19.6255 178.109 19.4545 178.221 19.2834C178.333 19.1069 178.485 18.9305 178.678 18.754C178.876 18.5723 179.135 18.4252 179.456 18.3129C179.782 18.2007 180.146 18.1445 180.547 18.1445C181.402 18.1445 182.086 18.3931 182.6 18.8904C183.118 19.3823 183.378 20.0961 183.378 21.0317V26.75H181.605V21.553C181.605 20.9275 181.448 20.457 181.132 20.1415C180.822 19.8207 180.405 19.6603 179.881 19.6603C179.255 19.6603 178.766 19.8822 178.413 20.326C178.06 20.7644 177.884 21.3365 177.884 22.0422V26.75H176.112ZM189.353 26.8944C188.192 26.8944 187.278 26.5575 186.61 25.8838C185.941 25.2102 185.607 24.2772 185.607 23.0849V21.938C185.607 20.7617 185.947 19.8341 186.626 19.155C187.31 18.4707 188.184 18.1285 189.248 18.1285C190.323 18.1285 191.195 18.476 191.863 19.1711C192.537 19.8608 192.873 20.7831 192.873 21.938V22.9325H187.372V23.3495C187.372 23.9751 187.548 24.4857 187.901 24.8813C188.254 25.2716 188.735 25.4668 189.345 25.4668C189.794 25.4668 190.171 25.3732 190.475 25.1861C190.786 24.999 190.973 24.7691 191.037 24.4964H192.777C192.75 24.7584 192.662 25.023 192.513 25.2904C192.363 25.5577 192.154 25.8143 191.887 26.0603C191.625 26.3062 191.272 26.5067 190.828 26.6618C190.385 26.8168 189.893 26.8944 189.353 26.8944ZM187.372 21.7696H191.133V21.6573C191.133 21.021 190.962 20.5078 190.62 20.1174C190.278 19.7271 189.823 19.532 189.256 19.532C188.69 19.532 188.232 19.7271 187.885 20.1174C187.543 20.5078 187.372 21.021 187.372 21.6573V21.7696Z" fill="black"/>
<path d="M69.726 57.75H66.0208L73.5596 35.8553H77.6337L85.1565 57.75H81.3069L79.3661 51.6869H71.6829L69.726 57.75ZM75.6127 39.6408H75.4683L72.5009 48.8959H78.548L75.6127 39.6408ZM95.3824 57.9906C94.3131 57.9906 93.3667 57.7607 92.5434 57.3009C91.72 56.8304 91.0784 56.1941 90.6185 55.3921H90.4902V63.3801H86.9293V40.7957H90.394V43.2819H90.5223C91.0035 42.4478 91.6665 41.7902 92.5113 41.309C93.3667 40.8171 94.3505 40.5711 95.4626 40.5711C97.4088 40.5711 98.9808 41.2769 100.178 42.6884C101.376 44.0892 101.975 46.0301 101.975 48.5109V50.0187C101.975 52.4996 101.371 54.4511 100.162 55.8733C98.9647 57.2848 97.3714 57.9906 95.3824 57.9906ZM94.5644 55.0553C95.7193 55.0553 96.6389 54.6008 97.3233 53.6919C98.0184 52.7829 98.3659 51.4944 98.3659 49.8262V48.6393C98.3659 47.0032 98.0237 45.736 97.3393 44.8378C96.6656 43.9288 95.7193 43.4744 94.5002 43.4744C93.2598 43.4744 92.276 43.9395 91.5489 44.8698C90.8217 45.8002 90.4581 47.0513 90.4581 48.6232V49.8262C90.4581 51.4302 90.8271 52.7027 91.5649 53.6437C92.3027 54.5848 93.3026 55.0553 94.5644 55.0553ZM113.484 57.9906C112.415 57.9906 111.468 57.7607 110.645 57.3009C109.822 56.8304 109.18 56.1941 108.72 55.3921H108.592V63.3801H105.031V40.7957H108.496V43.2819H108.624C109.105 42.4478 109.768 41.7902 110.613 41.309C111.468 40.8171 112.452 40.5711 113.564 40.5711C115.51 40.5711 117.082 41.2769 118.28 42.6884C119.478 44.0892 120.076 46.0301 120.076 48.5109V50.0187C120.076 52.4996 119.472 54.4511 118.264 55.8733C117.066 57.2848 115.473 57.9906 113.484 57.9906ZM112.666 55.0553C113.821 55.0553 114.74 54.6008 115.425 53.6919C116.12 52.7829 116.467 51.4944 116.467 49.8262V48.6393C116.467 47.0032 116.125 45.736 115.441 44.8378C114.767 43.9288 113.821 43.4744 112.602 43.4744C111.361 43.4744 110.378 43.9395 109.65 44.8698C108.923 45.8002 108.56 47.0513 108.56 48.6232V49.8262C108.56 51.4302 108.929 52.7027 109.666 53.6437C110.404 54.5848 111.404 55.0553 112.666 55.0553ZM127.456 51.6708H131.017C131.102 52.676 131.573 53.5154 132.428 54.1891C133.294 54.8521 134.465 55.1836 135.941 55.1836C137.352 55.1836 138.459 54.8788 139.261 54.2693C140.063 53.6491 140.464 52.8204 140.464 51.7831C140.464 50.9597 140.186 50.3074 139.63 49.8262C139.074 49.3343 138.197 48.944 136.999 48.6553L133.407 47.7571C132.658 47.586 131.979 47.3507 131.369 47.0513C130.76 46.7519 130.199 46.3723 129.685 45.9125C129.172 45.4419 128.771 44.8645 128.482 44.1801C128.194 43.4851 128.049 42.7098 128.049 41.8543C128.049 40.507 128.413 39.336 129.14 38.3416C129.878 37.3364 130.835 36.5932 132.011 36.112C133.198 35.6201 134.513 35.3741 135.957 35.3741C138.17 35.3741 140.026 35.9462 141.523 37.0904C143.02 38.2239 143.79 39.7798 143.833 41.7581H140.336C140.25 40.7636 139.828 39.9509 139.069 39.32C138.32 38.6784 137.267 38.3576 135.909 38.3576C134.636 38.3576 133.615 38.6463 132.845 39.2238C132.086 39.7905 131.706 40.5765 131.706 41.5816C131.706 43.068 132.717 44.0411 134.738 44.5009L138.315 45.3831C139.192 45.597 139.962 45.859 140.625 46.1691C141.288 46.4685 141.892 46.8535 142.437 47.324C142.982 47.7945 143.394 48.3773 143.672 49.0723C143.961 49.7674 144.105 50.5641 144.105 51.4623C144.105 53.5689 143.33 55.2157 141.779 56.4026C140.24 57.5896 138.203 58.1831 135.668 58.1831C134.492 58.1831 133.428 58.0494 132.476 57.7821C131.535 57.5147 130.76 57.1672 130.15 56.7395C129.552 56.3117 129.044 55.8092 128.627 55.2317C128.22 54.6543 127.926 54.0715 127.744 53.4833C127.573 52.8952 127.477 52.291 127.456 51.6708ZM148.444 40.7957V36.6734H151.941V40.7957H155.245V43.6508H151.941V52.6974C151.941 53.6063 152.128 54.2265 152.503 54.558C152.888 54.8895 153.567 55.0553 154.54 55.0553C154.935 55.0553 155.203 55.0446 155.342 55.0232V57.75C154.893 57.8249 154.331 57.8623 153.657 57.8623C152.289 57.8623 151.219 57.6858 150.449 57.333C149.68 56.9801 149.145 56.4615 148.845 55.7771C148.546 55.0927 148.396 54.1624 148.396 52.9861V43.6508H146.054V40.7957H148.444ZM159.296 42.7526C160.633 41.2555 162.488 40.507 164.862 40.507C167.236 40.507 169.08 41.2555 170.396 42.7526C171.722 44.2389 172.385 46.1744 172.385 48.5591V49.9225C172.385 52.3712 171.727 54.3388 170.412 55.8252C169.107 57.3009 167.257 58.0387 164.862 58.0387C162.467 58.0387 160.606 57.3009 159.28 55.8252C157.965 54.3388 157.307 52.3712 157.307 49.9225V48.5591C157.307 46.1851 157.97 44.2496 159.296 42.7526ZM167.797 44.7896C167.123 43.8379 166.145 43.3621 164.862 43.3621C163.579 43.3621 162.595 43.8379 161.91 44.7896C161.237 45.7414 160.9 47.0139 160.9 48.6072V49.9064C160.9 51.489 161.237 52.7615 161.91 53.7239C162.595 54.6864 163.579 55.1676 164.862 55.1676C166.145 55.1676 167.123 54.6864 167.797 53.7239C168.471 52.7615 168.808 51.489 168.808 49.9064V48.6072C168.808 47.0032 168.471 45.7307 167.797 44.7896ZM175.393 57.75V40.7957H178.953V43.0252H179.082C179.349 42.3836 179.825 41.8115 180.509 41.309C181.194 40.8064 182.071 40.5551 183.14 40.5551C183.61 40.5551 184.011 40.5872 184.343 40.6513V43.7952C184.022 43.7096 183.514 43.6668 182.819 43.6668C181.472 43.6668 180.499 44.0304 179.9 44.7576C179.301 45.4847 179.002 46.4685 179.002 47.7089V57.75H175.393ZM192.981 58.0387C190.703 58.0387 188.896 57.3276 187.559 55.9054C186.223 54.4725 185.554 52.5103 185.554 50.0187V48.3024C185.554 45.9285 186.212 44.0358 187.527 42.6242C188.842 41.2127 190.612 40.507 192.836 40.507C195.082 40.507 196.852 41.2288 198.146 42.6724C199.44 44.116 200.087 46.0461 200.087 48.4628V50.0829H189.067V50.4839C189.067 51.9168 189.425 53.0663 190.142 53.9325C190.858 54.7986 191.821 55.2317 193.029 55.2317C193.927 55.2317 194.676 55.0232 195.275 54.6062C195.873 54.1891 196.285 53.6117 196.51 52.8738H199.894C199.616 54.3602 198.889 55.5953 197.713 56.5791C196.536 57.5522 194.959 58.0387 192.981 58.0387ZM189.067 47.5967H196.606V47.5646C196.606 46.3348 196.258 45.3136 195.563 44.5009C194.868 43.6775 193.965 43.2658 192.852 43.2658C191.73 43.2658 190.815 43.6775 190.11 44.5009C189.415 45.3136 189.067 46.3348 189.067 47.5646V47.5967Z" fill="black"/>
</svg>
