<svg width="33" height="33" viewBox="0 0 33 33" fill="none" xmlns="http://www.w3.org/2000/svg">
<g clip-path="url(#clip0_70_4370)">
<path d="M11.272 12.9099C10.6399 11.9086 10.2749 10.7227 10.2749 9.4501C10.2749 5.86243 13.1823 2.95508 16.7699 2.95508C20.3576 2.95508 23.265 5.86243 23.265 9.4501C23.265 10.7213 22.8999 11.9086 22.2679 12.9099C21.2353 14.5461 20.4613 15.6042 19.9258 17.2078H17.1534V13.9865H17.2216C17.4147 13.9865 17.5795 13.8672 17.6392 13.6826L17.8266 13.1074C18.0993 13.0292 18.3621 12.9199 18.6092 12.7821L19.1489 13.0577C19.3208 13.1457 19.5225 13.113 19.6588 12.9767L20.2965 12.339C20.4329 12.2026 20.4655 12.001 20.3775 11.8291L20.1019 11.2894C20.2397 11.0408 20.3477 10.7781 20.4272 10.5054L21.0024 10.3179C21.1871 10.2582 21.3064 10.0935 21.3064 9.90033V8.99845C21.3064 8.80528 21.1871 8.64053 21.0024 8.58088L20.4272 8.3934C20.3491 8.1207 20.2397 7.85795 20.1019 7.60939L20.3775 7.06968C20.4655 6.89782 20.4329 6.69614 20.2965 6.55979L19.6588 5.92208C19.5225 5.78573 19.3208 5.75306 19.1489 5.84112L18.6092 6.11666C18.3607 5.97889 18.0979 5.87095 17.8266 5.79141L17.6392 5.21619C17.5795 5.03155 17.4147 4.91225 17.2216 4.91225H16.3197C16.1265 4.91225 15.9618 5.03155 15.9021 5.21619L15.7146 5.79141C15.4419 5.86953 15.1792 5.97889 14.9321 6.11666L14.3923 5.84112C14.2205 5.75306 14.0188 5.78573 13.8825 5.92208L13.2447 6.55979C13.1084 6.69614 13.0757 6.89782 13.1638 7.06968L13.4393 7.60939C13.3016 7.85795 13.1936 8.1207 13.1141 8.39198L12.5389 8.57946C12.3542 8.63911 12.2349 8.80386 12.2349 8.99702V9.89891C12.2349 10.0921 12.3542 10.2568 12.5389 10.3165L13.1141 10.504C13.1922 10.7767 13.3016 11.0394 13.4393 11.2865L13.1638 11.8263C13.0757 11.9981 13.1084 12.1998 13.2447 12.3361L13.8825 12.9739C14.0188 13.1102 14.2205 13.1429 14.3923 13.0548L14.9321 12.7793C15.1806 12.917 15.4434 13.025 15.7146 13.1045L15.9021 13.6797C15.9618 13.8644 16.1265 13.9837 16.3197 13.9837H16.3879V17.2049H13.6154C13.08 15.6014 12.3059 14.5433 11.2734 12.9071L11.272 12.9099ZM18.3038 7.91618C17.4574 7.06968 16.0839 7.06968 15.236 7.91618C14.3895 8.76268 14.3895 10.1361 15.236 10.984C16.0825 11.8319 17.4559 11.8305 18.3038 10.984C19.1503 10.1375 19.1503 8.7641 18.3038 7.91618ZM13.8399 18.3355L16.7699 19.4589L19.7 18.3355V17.9733H13.8399V18.3355ZM23.9254 10.6971C23.7635 11.6288 23.4212 12.5194 22.917 13.319C22.6571 13.7323 22.4042 14.1186 22.1642 14.4964L27.0131 16.3542L32.4841 13.9752L23.9268 10.6957L23.9254 10.6971ZM10.6243 13.319C10.1201 12.5194 9.77638 11.6288 9.61589 10.6971L1.05859 13.9766L6.52958 16.3556L11.3785 14.4978C11.1384 14.12 10.8856 13.7323 10.6257 13.3204L10.6243 13.319ZM16.7699 20.2799L22.2409 22.6589L32.4813 18.7346L27.0103 16.3556L16.7699 20.2799ZM1.05859 18.7332L11.2989 22.6574L16.7699 20.2785L6.52958 16.3542L1.05859 18.7332ZM17.1534 21.2812V30.7134L27.0117 26.9354V21.6505L22.2239 23.4855L17.1548 21.2812H17.1534ZM6.52958 21.6505V26.9354L16.3879 30.7134V21.2812L11.3188 23.4855L6.531 21.6505H6.52958Z" fill="#02A9F7"/>
</g>
<defs>
<clipPath id="clip0_70_4370">
<rect width="32" height="32" fill="white" transform="translate(0.984375 0.0507812)"/>
</clipPath>
</defs>
</svg>
