<svg width="106" height="48" viewBox="0 0 106 48" fill="none" xmlns="http://www.w3.org/2000/svg">
<path d="M3.83213 47.4367C3.53673 47.4367 3.27992 47.3728 3.06319 47.2449C2.84647 47.117 2.67872 46.9341 2.55997 46.6947C2.44121 46.4567 2.38184 46.1742 2.38184 45.8485C2.38184 45.5228 2.42934 45.2314 2.52583 44.9339C2.62232 44.6365 2.76037 44.3673 2.94295 44.1294C3.12554 43.8915 3.34227 43.6996 3.59759 43.5584C3.85292 43.4171 4.1409 43.3457 4.46154 43.3457C4.74803 43.3457 4.99445 43.4037 5.1993 43.5182C5.40416 43.6327 5.56299 43.7889 5.67581 43.9866C5.78714 44.1829 5.84355 44.4045 5.84355 44.6514H5.46502C5.45908 44.4714 5.41455 44.3094 5.32994 44.1666C5.24532 44.0238 5.12805 43.9093 4.97961 43.8275C4.82968 43.7442 4.65303 43.7026 4.44818 43.7026C4.1884 43.7026 3.95386 43.7621 3.74604 43.8825C3.53822 44.003 3.36008 44.1651 3.21164 44.3703C3.06319 44.5755 2.94889 44.8046 2.87022 45.0589C2.79154 45.3132 2.75146 45.5734 2.75146 45.8381C2.75146 46.2441 2.85537 46.5534 3.06171 46.7646C3.26805 46.9757 3.52931 47.0813 3.84698 47.0813C4.05925 47.0813 4.25668 47.0397 4.44075 46.9564C4.62483 46.8731 4.78515 46.7601 4.92023 46.6174C5.05531 46.4746 5.15626 46.3125 5.22454 46.1326H5.60604C5.52291 46.375 5.39525 46.595 5.22454 46.7913C5.05383 46.9876 4.84898 47.1453 4.61147 47.2613C4.37396 47.3788 4.11418 47.4367 3.83362 47.4367H3.83213Z" fill="#01303F"/>
<path d="M10.6534 47.4367C10.3595 47.4367 10.1042 47.3728 9.88745 47.2449C9.67072 47.117 9.5015 46.9341 9.38274 46.6947C9.26399 46.4567 9.20312 46.1742 9.20312 45.8455C9.20312 45.5169 9.25211 45.2284 9.3486 44.931C9.44509 44.6335 9.58463 44.3644 9.76573 44.1264C9.94683 43.8885 10.165 43.6981 10.4204 43.5569C10.6757 43.4156 10.9637 43.3457 11.2843 43.3457C11.5782 43.3457 11.8321 43.4096 12.0488 43.5375C12.2655 43.6654 12.4318 43.8498 12.5505 44.0878C12.6693 44.3257 12.7287 44.6083 12.7287 44.9339C12.7287 45.2596 12.6812 45.5541 12.5847 45.8515C12.4882 46.1489 12.3501 46.4181 12.169 46.656C11.9879 46.8954 11.7697 47.0843 11.5144 47.2256C11.2591 47.3669 10.9711 47.4367 10.6505 47.4367H10.6534ZM10.6683 47.0813C10.931 47.0813 11.167 47.0204 11.3763 46.8984C11.5842 46.7765 11.7623 46.6129 11.9093 46.4062C12.0562 46.201 12.1676 45.9705 12.2462 45.7176C12.3234 45.4648 12.362 45.2076 12.362 44.9473C12.362 44.5503 12.2626 44.2424 12.0636 44.0268C11.8647 43.8097 11.6005 43.7026 11.2739 43.7026C11.0112 43.7026 10.7737 43.7636 10.5644 43.8855C10.3551 44.0075 10.1754 44.1711 10.0285 44.3778C9.88003 44.583 9.7687 44.8135 9.69151 45.0663C9.61432 45.3191 9.57572 45.5764 9.57572 45.8366C9.57572 46.2322 9.67518 46.5385 9.87558 46.7571C10.076 46.9757 10.3417 47.0828 10.6727 47.0828L10.6683 47.0813Z" fill="#01303F"/>
<path d="M16.0791 47.3834L16.7382 43.3994H17.1658L18.527 46.106C18.573 46.1967 18.6309 46.3171 18.6977 46.4658C18.766 46.6146 18.8328 46.7781 18.9011 46.9566C18.9174 46.7796 18.9367 46.6131 18.9604 46.4554C18.9842 46.2978 19.005 46.158 19.0243 46.0376L19.4592 43.4009H19.8377L19.1787 47.3849H18.7511L17.4745 44.8657C17.4062 44.7334 17.3394 44.5906 17.2697 44.4359C17.2014 44.2813 17.1168 44.082 17.0143 43.8381C16.9817 44.0716 16.955 44.2738 16.9342 44.4434C16.9134 44.6144 16.8926 44.7527 16.8748 44.8612L16.4577 47.3834H16.0762H16.0791Z" fill="#01303F"/>
<path d="M24.2846 47.4502C24.0144 47.4502 23.7844 47.4056 23.5929 47.3149C23.4014 47.2242 23.2604 47.0993 23.1668 46.9387C23.0733 46.7781 23.0377 46.5907 23.0585 46.375H23.4459C23.4281 46.6115 23.5008 46.7929 23.6641 46.9178C23.8274 47.0428 24.0412 47.1052 24.3054 47.1052C24.5028 47.1052 24.6839 47.0725 24.8487 47.0056C25.0135 46.9401 25.15 46.8479 25.2569 46.7305C25.3653 46.613 25.4321 46.4747 25.4588 46.3156C25.4929 46.1178 25.444 45.9661 25.3133 45.8605C25.1827 45.7549 24.9957 45.6642 24.7507 45.5884L24.3024 45.4486C24.0144 45.3593 23.7947 45.2344 23.6448 45.0708C23.4949 44.9087 23.44 44.6961 23.483 44.4344C23.5172 44.2187 23.6018 44.0284 23.7398 43.8648C23.8764 43.7012 24.0501 43.5718 24.2579 43.4796C24.4657 43.3874 24.6943 43.3398 24.9407 43.3398C25.1872 43.3398 25.4024 43.3859 25.582 43.4781C25.7631 43.5703 25.8982 43.6953 25.9888 43.8544C26.0793 44.0135 26.1134 44.1949 26.0897 44.4002H25.7186C25.7334 44.1816 25.6666 44.0061 25.5197 43.8767C25.3727 43.7473 25.1693 43.6834 24.9066 43.6834C24.7255 43.6834 24.5592 43.7146 24.4093 43.7771C24.2594 43.8395 24.1347 43.9258 24.0367 44.0358C23.9387 44.1459 23.8779 44.2708 23.8556 44.4106C23.8319 44.5504 23.8512 44.6649 23.9135 44.7571C23.9744 44.8493 24.0619 44.9251 24.1718 44.9846C24.2831 45.0441 24.4004 45.0932 24.5221 45.1303L24.917 45.2538C25.0387 45.2909 25.1575 45.337 25.2762 45.3921C25.395 45.4471 25.5004 45.514 25.5924 45.5973C25.6844 45.6791 25.7527 45.7787 25.7973 45.8962C25.8418 46.0137 25.8507 46.1549 25.824 46.3215C25.7884 46.5371 25.7037 46.7305 25.5716 46.8985C25.4395 47.068 25.2643 47.2019 25.0461 47.3015C24.8279 47.4011 24.5726 47.4502 24.2816 47.4502H24.2846Z" fill="#01303F"/>
<path d="M30.867 47.4444C30.5627 47.4444 30.3059 47.3819 30.0951 47.257C29.8858 47.1321 29.7329 46.9625 29.6394 46.7469C29.5444 46.5313 29.5206 46.2874 29.5651 46.0167L30.0001 43.3994H30.3786L29.9466 46.0167C29.911 46.2264 29.9259 46.4138 29.9927 46.5759C30.0595 46.738 30.1678 46.8644 30.3192 46.9551C30.4706 47.0458 30.6592 47.0919 30.8818 47.0919C31.1045 47.0919 31.3212 47.0443 31.5098 46.9492C31.6983 46.854 31.8541 46.7231 31.9788 46.5566C32.102 46.39 32.1822 46.2011 32.2178 45.9915L32.6454 43.4009H33.0239L32.5889 46.045C32.5444 46.3171 32.442 46.5595 32.2817 46.7707C32.1213 46.9819 31.9195 47.1469 31.676 47.2674C31.4326 47.3864 31.1639 47.4458 30.87 47.4458L30.867 47.4444Z" fill="#01303F"/>
<path d="M36.229 47.3834L36.8881 43.3994H37.2696L36.6669 47.0443H38.5566L38.5002 47.3834H36.229Z" fill="#01303F"/>
<path d="M42.0005 43.7385L42.0599 43.3994H44.959L44.8996 43.7385H43.6423L43.0396 47.3834H42.6611L43.2637 43.7385H42.0005Z" fill="#01303F"/>
<path d="M48.9935 43.3994L48.3345 47.3834H47.9561L48.6151 43.3994H48.9935Z" fill="#01303F"/>
<path d="M52.231 47.3834L52.89 43.3994H53.3176L54.6788 46.106C54.7248 46.1967 54.7812 46.3171 54.8495 46.4658C54.9178 46.6146 54.9846 46.7781 55.0529 46.9566C55.0692 46.7796 55.0885 46.6131 55.1123 46.4554C55.136 46.2978 55.1568 46.158 55.1761 46.0376L55.611 43.4009H55.9896L55.3305 47.3849H54.903L53.6278 44.8657C53.5595 44.7334 53.4927 44.5906 53.423 44.4359C53.3547 44.2813 53.2701 44.082 53.1676 43.8381C53.135 44.0716 53.1083 44.2738 53.0875 44.4434C53.0667 44.6144 53.0459 44.7527 53.0281 44.8612L52.6125 47.3834H52.231Z" fill="#01303F"/>
<path d="M60.802 47.4363C60.4977 47.4363 60.2365 47.3723 60.0183 47.2444C59.8 47.1166 59.6323 46.9336 59.515 46.6972C59.3978 46.4607 59.3384 46.1812 59.3384 45.8555C59.3384 45.5298 59.3859 45.2354 59.4794 44.9364C59.5729 44.6375 59.711 44.3684 59.8906 44.1289C60.0702 43.8895 60.2884 43.6977 60.5437 43.5564C60.7991 43.4151 61.0885 43.3438 61.4092 43.3438C61.7031 43.3438 61.954 43.4032 62.1603 43.5222C62.3681 43.6412 62.527 43.8003 62.6383 43.9966C62.7496 44.1929 62.8075 44.41 62.8105 44.645H62.4216C62.4052 44.471 62.3562 44.3119 62.2746 44.1676C62.193 44.0248 62.0787 43.9103 61.9332 43.8256C61.7877 43.7408 61.6081 43.6992 61.3973 43.6992C61.1346 43.6992 60.8985 43.7601 60.6907 43.8836C60.4829 44.007 60.3047 44.1706 60.1593 44.3773C60.0138 44.5825 59.9025 44.813 59.8238 45.0643C59.7466 45.3171 59.708 45.5729 59.708 45.8332C59.708 46.2287 59.8089 46.5351 60.0093 46.7537C60.2097 46.9723 60.4799 47.0794 60.8154 47.0794C61.0603 47.0794 61.286 47.0258 61.4893 46.9203C61.6927 46.8147 61.8634 46.6645 62.0015 46.4697C62.1395 46.2748 62.2316 46.0473 62.2805 45.7856H61.1331L61.1895 45.448H62.7081L62.6517 45.7901C62.5952 46.1247 62.4795 46.4161 62.3058 46.6615C62.1321 46.9069 61.9169 47.0972 61.6586 47.2325C61.4003 47.3679 61.1153 47.4348 60.802 47.4348V47.4363Z" fill="#01303F"/>
<path d="M70.5088 47.3834L71.1679 43.3994H73.4821L73.4257 43.7385H71.49L71.2391 45.2524H72.9908L72.9373 45.5914H71.1857L70.8873 47.3834H70.5088Z" fill="#01303F"/>
<path d="M78.1324 47.4367C77.8385 47.4367 77.5832 47.3728 77.3664 47.2449C77.1497 47.117 76.982 46.9341 76.8617 46.6947C76.743 46.4567 76.6836 46.1742 76.6836 45.8455C76.6836 45.5169 76.7326 45.2284 76.8291 44.931C76.9256 44.6335 77.0651 44.3644 77.2462 44.1264C77.4273 43.8885 77.6455 43.6981 77.9008 43.5569C78.1562 43.4156 78.4441 43.3457 78.7648 43.3457C79.0587 43.3457 79.314 43.4096 79.5293 43.5375C79.746 43.6654 79.9123 43.8498 80.031 44.0878C80.1498 44.3257 80.2091 44.6083 80.2091 44.9339C80.2091 45.2596 80.1616 45.5541 80.0652 45.8515C79.9687 46.1489 79.8306 46.4181 79.6495 46.656C79.4684 46.8954 79.2502 47.0843 78.9949 47.2256C78.7395 47.3669 78.4516 47.4367 78.1309 47.4367H78.1324ZM78.1473 47.0813C78.41 47.0813 78.646 47.0204 78.8553 46.8984C79.0632 46.7765 79.2413 46.6129 79.3882 46.4062C79.5352 46.201 79.6465 45.9705 79.7252 45.7176C79.8024 45.4648 79.841 45.2076 79.841 44.9473C79.841 44.5503 79.7415 44.2424 79.5426 44.0268C79.3437 43.8112 79.0795 43.7026 78.7529 43.7026C78.4902 43.7026 78.2526 43.7636 78.0433 43.8855C77.8325 44.0075 77.6544 44.1711 77.5075 44.3778C77.359 44.583 77.2477 44.8135 77.1705 45.0663C77.0933 45.3191 77.0547 45.5764 77.0547 45.8366C77.0547 46.2322 77.1542 46.5385 77.3546 46.7571C77.555 46.9757 77.8207 47.0828 78.1517 47.0828L78.1473 47.0813Z" fill="#01303F"/>
<path d="M83.5581 47.3834L84.2172 43.3994H85.5146C85.7981 43.3994 86.0253 43.45 86.1989 43.5526C86.3726 43.6552 86.4929 43.7965 86.5597 43.9779C86.6265 44.1593 86.6398 44.366 86.6012 44.5995C86.5567 44.8627 86.4558 45.0917 86.2969 45.2866C86.1381 45.4814 85.9288 45.6197 85.669 45.7015L86.3043 47.3834H85.8694L85.2712 45.7758C85.2237 45.7788 85.1732 45.7818 85.1212 45.7818H84.2024L83.9352 47.3834H83.5566H83.5581ZM84.2603 45.4397H85.1539C85.4656 45.4397 85.7106 45.3639 85.8902 45.2107C86.0698 45.0575 86.1796 44.8553 86.2212 44.5995C86.2657 44.3318 86.2227 44.1222 86.095 43.969C85.9659 43.8158 85.7506 43.7385 85.4478 43.7385H84.5408L84.2603 45.4397Z" fill="#01303F"/>
<path d="M91.4332 47.4367C91.1378 47.4367 90.881 47.3728 90.6643 47.2449C90.4475 47.117 90.2798 46.9341 90.161 46.6947C90.0423 46.4567 89.9829 46.1742 89.9829 45.8485C89.9829 45.5228 90.0304 45.2314 90.1269 44.9339C90.2234 44.6365 90.3614 44.3673 90.5425 44.1294C90.7236 43.89 90.9419 43.6996 91.1987 43.5584C91.454 43.4171 91.742 43.3457 92.0626 43.3457C92.3491 43.3457 92.5955 43.4037 92.8004 43.5182C93.0052 43.6327 93.1641 43.7889 93.2769 43.9866C93.3897 44.1829 93.4446 44.4045 93.4446 44.6514H93.0661C93.0601 44.4714 93.0156 44.3094 92.931 44.1666C92.8464 44.0238 92.7291 43.9093 92.5792 43.8275C92.4293 43.7442 92.2526 43.7026 92.0478 43.7026C91.788 43.7026 91.5534 43.7621 91.3456 43.8825C91.1378 44.003 90.9597 44.1651 90.8097 44.3703C90.6613 44.5755 90.547 44.8046 90.4683 45.0589C90.3896 45.3132 90.3496 45.5734 90.3496 45.8381C90.3496 46.2441 90.452 46.5534 90.6598 46.7646C90.8662 46.9757 91.1274 47.0813 91.4451 47.0813C91.6574 47.0813 91.8548 47.0397 92.0389 46.9564C92.2229 46.8731 92.3832 46.7601 92.5183 46.6174C92.6534 46.4746 92.7544 46.3125 92.8226 46.1326H93.2041C93.121 46.375 92.9933 46.595 92.8226 46.7913C92.6519 46.9876 92.4471 47.1453 92.2096 47.2613C91.9721 47.3788 91.7123 47.4367 91.4317 47.4367H91.4332Z" fill="#01303F"/>
<path d="M96.6885 47.3834L97.3476 43.3994H99.6692L99.6128 43.7385H97.6727L97.4292 45.2092H99.2477L99.1912 45.5468H97.3713L97.1264 47.0443H99.1022L99.0487 47.3834H96.6885Z" fill="#01303F"/>
<path d="M1.25002 37.498L2.25647 32.018C2.55632 30.3792 4.14616 29.0527 5.81022 29.0527H12.1042C12.459 29.0527 12.6965 29.3353 12.6342 29.6862L12.3299 31.3682C12.2661 31.7176 11.9276 32.0017 11.5728 32.0017H6.09523C5.88296 32.0017 5.67959 32.1727 5.64099 32.3824L4.78447 37.1114C4.74736 37.3226 4.88838 37.4921 5.10214 37.4921H10.5797C10.9345 37.4921 11.172 37.7747 11.1097 38.1256L10.7994 39.8477C10.7356 40.1972 10.3971 40.4812 10.0424 40.4812H3.732C2.062 40.4812 0.950159 39.1458 1.25002 37.501V37.498Z" fill="#02A9F7"/>
<path d="M25.6308 32.0138L24.6407 37.5027C24.3438 39.146 22.751 40.4784 21.0825 40.4784H14.5153C12.8468 40.4784 11.7335 39.146 12.0303 37.5027L13.0205 32.0138C13.3174 30.3705 14.9102 29.0381 16.5787 29.0381H23.1458C24.8144 29.0381 25.9277 30.3705 25.6308 32.0138ZM22.1171 32.3633C22.1542 32.1536 22.0132 31.9826 21.7995 31.9826H16.8548C16.641 31.9826 16.4377 32.1521 16.4005 32.3633L15.544 37.1116C15.5069 37.3228 15.6479 37.4923 15.8617 37.4923H20.8078C21.0201 37.4923 21.225 37.3228 21.2636 37.1116L22.1186 32.3633H22.1171Z" fill="#02A9F7"/>
<path d="M29.8728 34.1328L28.8411 39.8448C28.7773 40.1943 28.4389 40.4783 28.0841 40.4783H25.9509C25.5962 40.4783 25.3586 40.1958 25.4225 39.8448L27.2498 29.7131C27.3137 29.3637 27.6521 29.0796 28.0069 29.0796H30.7264C30.9149 29.0796 31.0812 29.1614 31.1791 29.3057L34.3989 35.0385C34.4805 35.1589 34.6646 35.1262 34.6913 34.9864L35.6429 29.7116C35.7067 29.3622 36.0451 29.0781 36.3999 29.0781H38.5331C38.8878 29.0781 39.1254 29.3607 39.0645 29.7131L37.2371 39.8448C37.1733 40.1943 36.8349 40.4783 36.4801 40.4783H34.1243C33.9343 40.4783 33.7695 40.3951 33.673 40.2523L30.1682 34.0808C30.0866 33.9603 29.901 33.993 29.8758 34.1328H29.8728Z" fill="#02A9F7"/>
<path d="M35.1589 40.4769C34.8042 40.4769 34.5667 40.1943 34.6305 39.8434L34.9407 38.1228C35.0046 37.7733 35.343 37.4893 35.6978 37.4893H47.3002C47.5125 37.4893 47.7173 37.3197 47.7559 37.1086L47.8524 36.5702C47.8895 36.3591 47.7485 36.1895 47.5347 36.1895H42.3971C40.7286 36.1895 39.6152 34.8586 39.9121 33.2138L40.1229 32.0509C40.4198 30.4076 42.0126 29.0752 43.6811 29.0752H57.2237C57.5785 29.0752 57.816 29.3577 57.7521 29.7102L57.4567 31.349C57.3929 31.6985 57.0544 31.9825 56.6997 31.9825H43.8043C43.5906 31.9825 43.3872 32.152 43.3501 32.3632L43.2195 33.0815C43.1824 33.2926 43.3234 33.4622 43.5371 33.4622H48.6748C50.3433 33.4622 51.4566 34.7946 51.1597 36.4379L50.9682 37.5041C50.6714 39.1474 49.0785 40.4799 47.41 40.4799H47.0775L35.1619 40.4784L35.1589 40.4769Z" fill="url(#paint0_linear_6947_303)"/>
<path d="M51.9889 39.8464L53.8178 29.7087C53.8816 29.3592 54.22 29.0752 54.5748 29.0752H64.053C64.2667 29.0752 64.4078 29.2447 64.3706 29.4499L63.9832 31.5988C63.9461 31.81 63.7412 31.9795 63.529 31.9795H56.9722C56.9009 31.9795 56.8327 32.0375 56.8208 32.1074L56.6085 33.2822C56.5966 33.3521 56.6426 33.4101 56.7139 33.4101H62.0653C62.2791 33.4101 62.4201 33.5811 62.383 33.7908L62.0282 35.7642C61.9911 35.9754 61.7862 36.1449 61.574 36.1449H56.2225C56.1513 36.1449 56.083 36.2029 56.0711 36.2728L55.4254 39.8493C55.3616 40.1988 55.0231 40.4828 54.6683 40.4828H52.5204C52.1656 40.4828 51.9281 40.2003 51.9904 39.8493L51.9889 39.8464Z" fill="#01303F"/>
<path d="M77.1542 32.0138L76.1641 37.5027C75.8672 39.146 74.2744 40.4784 72.6059 40.4784H66.0387C64.3702 40.4784 63.2569 39.146 63.5538 37.5027L64.5439 32.0138C64.8408 30.3705 66.4336 29.0381 68.1021 29.0381H74.6693C76.3378 29.0381 77.4511 30.3705 77.1542 32.0138ZM73.642 32.3633C73.6792 32.1536 73.5381 31.9826 73.3244 31.9826H68.3797C68.1659 31.9826 67.9626 32.1521 67.9255 32.3633L67.0689 37.1116C67.0318 37.3228 67.1729 37.4923 67.3866 37.4923H72.3328C72.545 37.4923 72.7499 37.3228 72.7885 37.1116L73.6435 32.3633H73.642Z" fill="#01303F"/>
<path d="M77.3289 40.4786C76.9741 40.4786 76.7366 40.196 76.8004 39.845L78.6307 29.697C78.6946 29.3475 79.033 29.0635 79.3878 29.0635H87.5047C89.1732 29.0635 90.2866 30.3959 89.9882 32.0407L89.5206 34.6342C89.3172 35.7629 88.4993 36.737 87.4661 37.2396C87.3919 37.2768 87.3533 37.3586 87.3889 37.4211L88.7264 39.7543C88.9031 40.0696 88.6819 40.4458 88.3226 40.4458C87.2049 40.4458 86.5101 40.4815 86.0529 40.4741C85.2736 40.486 85.0138 40.4533 84.8728 40.1692L83.6481 37.775C83.5947 37.6709 83.4878 37.6069 83.3601 37.6069L80.7624 37.6099C80.6911 37.6099 80.6228 37.6679 80.611 37.7378L80.231 39.8421C80.1671 40.1915 79.8287 40.4756 79.4739 40.4756H77.3274L77.3289 40.4786ZM81.1765 34.6268C81.1647 34.6981 81.2107 34.7547 81.2819 34.7547H85.4829C85.7991 34.7547 86.1004 34.5018 86.1568 34.191L86.4641 32.4838C86.5205 32.1715 86.3097 31.9187 85.9921 31.9187H81.7911C81.7198 31.9187 81.6516 31.9767 81.6397 32.0451L81.1736 34.6253L81.1765 34.6268Z" fill="#01303F"/>
<path d="M89.9092 37.498L90.9156 32.018C91.2155 30.3792 92.8053 29.0527 94.4694 29.0527H100.763C101.118 29.0527 101.356 29.3353 101.293 29.6862L100.989 31.3682C100.925 31.7176 100.587 32.0017 100.232 32.0017H94.7544C94.5421 32.0017 94.3387 32.1727 94.3016 32.3824L93.4451 37.1114C93.408 37.3226 93.549 37.4921 93.7628 37.4921H99.2404C99.5951 37.4921 99.8326 37.7747 99.7703 38.1256L99.46 39.8477C99.3962 40.1972 99.0578 40.4812 98.703 40.4812H92.3941C90.7241 40.4812 89.6123 39.1458 89.9121 37.501L89.9092 37.498Z" fill="#01303F"/>
<path d="M104.791 38.0705L104.472 39.8773C104.412 40.2075 104.096 40.4781 103.765 40.4781H101.961C101.63 40.4781 101.409 40.2119 101.469 39.8788L101.786 38.072C101.846 37.7418 102.16 37.4727 102.493 37.4727H104.296C104.628 37.4727 104.849 37.7388 104.791 38.0705Z" fill="#02A9F7"/>
<path d="M43.4174 4.98472L40.7557 13.1824L40.7551 13.1869C39.9596 15.6473 41.3516 17.645 43.8628 17.645C49.5503 17.645 53.3935 17.645 59.0802 17.645C59.4302 17.645 59.8056 17.3503 59.9151 17.0052L60.9518 13.7809C61.061 13.4383 60.8694 13.146 60.5169 13.146H46.5533C46.2318 13.146 46.0515 12.9199 46.1515 12.604L48.4304 5.52975C48.5323 5.21608 48.874 4.96025 49.1932 4.96025H63.3421C63.8756 4.96025 64.4441 4.53534 64.6133 4.01256L65.4233 1.49651C65.5906 0.971504 65.2927 0.548828 64.7592 0.548828H49.3825C46.8803 0.548828 44.2117 2.53319 43.4174 4.98472Z" fill="#02A9F7"/>
<path d="M62.7811 11.9891H48.053L49.1616 8.91084C49.5134 8.04224 49.6552 7.87577 50.555 7.87577H64.2214C64.5776 7.87577 64.979 8.29382 64.8708 8.62913L63.8291 11.2153C63.7195 11.5603 63.1312 11.9891 62.7811 11.9891Z" fill="#02A9F7"/>
<path d="M44.5557 22.2666L45.8437 18.8019H51.5103L50.22 22.2666C50.0347 22.8376 49.4116 23.3017 48.8266 23.3017H45.2846C44.6995 23.3017 44.3725 22.84 44.5557 22.2666Z" fill="#02A9F7"/>
<defs>
<linearGradient id="paint0_linear_6947_303" x1="34.6186" y1="34.7783" x2="57.761" y2="34.7783" gradientUnits="userSpaceOnUse">
<stop stop-color="#02A9F7"/>
<stop offset="0.41" stop-color="#02A7F5"/>
<stop offset="0.56" stop-color="#02A0EE"/>
<stop offset="0.66" stop-color="#0294E2"/>
<stop offset="0.75" stop-color="#0284D1"/>
<stop offset="0.82" stop-color="#026EBB"/>
<stop offset="0.88" stop-color="#0254A1"/>
<stop offset="0.91" stop-color="#024591"/>
</linearGradient>
</defs>
</svg>
