<svg width="160" height="160" viewBox="0 0 160 160" fill="none" xmlns="http://www.w3.org/2000/svg">
<g filter="url(#filter0_f_7017_573)">
<circle cx="80" cy="80" r="40" fill="url(#paint0_linear_7017_573)" fill-opacity="0.15"/>
</g>
<g clip-path="url(#clip0_7017_573)">
<path d="M74.2724 76.9109C73.6404 75.9096 73.2754 74.7237 73.2754 73.4511C73.2754 69.8634 76.1827 66.9561 79.7704 66.9561C83.3581 66.9561 86.2654 69.8634 86.2654 73.4511C86.2654 74.7222 85.9004 75.9096 85.2684 76.9109C84.2358 78.5471 83.4618 79.6052 82.9263 81.2087H80.1539V77.9875H80.2221C80.4152 77.9875 80.58 77.8682 80.6396 77.6836L80.8271 77.1083C81.0998 77.0302 81.3626 76.9209 81.6097 76.7831L82.1494 77.0586C82.3213 77.1467 82.523 77.114 82.6593 76.9777L83.297 76.34C83.4334 76.2036 83.466 76.0019 83.378 75.8301L83.1024 75.2904C83.2402 75.0418 83.3481 74.7791 83.4277 74.5064L84.0029 74.3189C84.1875 74.2592 84.3068 74.0945 84.3068 73.9013V72.9994C84.3068 72.8063 84.1875 72.6415 84.0029 72.5819L83.4277 72.3944C83.3496 72.1217 83.2402 71.8589 83.1024 71.6104L83.378 71.0707C83.466 70.8988 83.4334 70.6971 83.297 70.5608L82.6593 69.9231C82.523 69.7867 82.3213 69.754 82.1494 69.8421L81.6097 70.1176C81.3612 69.9799 81.0984 69.8719 80.8271 69.7924L80.6396 69.2172C80.58 69.0325 80.4152 68.9132 80.2221 68.9132H79.3202C79.127 68.9132 78.9623 69.0325 78.9026 69.2172L78.7151 69.7924C78.4424 69.8705 78.1797 69.9799 77.9326 70.1176L77.3928 69.8421C77.221 69.754 77.0193 69.7867 76.883 69.9231L76.2452 70.5608C76.1089 70.6971 76.0762 70.8988 76.1643 71.0707L76.4398 71.6104C76.302 71.8589 76.1941 72.1217 76.1146 72.393L75.5393 72.5804C75.3547 72.6401 75.2354 72.8048 75.2354 72.998V73.8999C75.2354 74.0931 75.3547 74.2578 75.5393 74.3175L76.1146 74.5049C76.1927 74.7776 76.302 75.0404 76.4398 75.2875L76.1643 75.8272C76.0762 75.9991 76.1089 76.2008 76.2452 76.3371L76.883 76.9748C77.0193 77.1112 77.221 77.1439 77.3928 77.0558L77.9326 76.7803C78.1811 76.918 78.4439 77.026 78.7151 77.1055L78.9026 77.6807C78.9623 77.8654 79.127 77.9847 79.3202 77.9847H79.3884V81.2059H76.6159C76.0805 79.6024 75.3064 78.5443 74.2739 76.9081L74.2724 76.9109ZM81.3043 71.9172C80.4578 71.0707 79.0844 71.0707 78.2365 71.9172C77.39 72.7637 77.39 74.1371 78.2365 74.985C79.083 75.8329 80.4564 75.8315 81.3043 74.985C82.1508 74.1385 82.1508 72.7651 81.3043 71.9172ZM76.8403 82.3365L79.7704 83.4599L82.7005 82.3365V81.9743H76.8403V82.3365ZM86.9259 74.6981C86.764 75.6298 86.4217 76.5203 85.9175 77.32C85.6576 77.7333 85.4047 78.1196 85.1647 78.4974L90.0136 80.3551L95.4846 77.9761L86.9273 74.6967L86.9259 74.6981ZM73.6248 77.32C73.1206 76.5203 72.7769 75.6298 72.6164 74.6981L64.0591 77.9776L69.5301 80.3566L74.379 78.4988C74.1389 78.121 73.8861 77.7333 73.6262 77.3214L73.6248 77.32ZM79.7704 84.2808L85.2414 86.6598L95.4818 82.7356L90.0108 80.3566L79.7704 84.2808ZM64.0591 82.7341L74.2994 86.6584L79.7704 84.2794L69.5301 80.3551L64.0591 82.7341ZM80.1539 85.2822V94.7144L90.0122 90.9364V85.6514L85.2244 87.4865L80.1553 85.2822H80.1539ZM69.5301 85.6514V90.9364L79.3884 94.7144V85.2822L74.3193 87.4865L69.5315 85.6514H69.5301Z" fill="#02A9F7"/>
</g>
<defs>
<filter id="filter0_f_7017_573" x="0" y="0" width="160" height="160" filterUnits="userSpaceOnUse" color-interpolation-filters="sRGB">
<feFlood flood-opacity="0" result="BackgroundImageFix"/>
<feBlend mode="normal" in="SourceGraphic" in2="BackgroundImageFix" result="shape"/>
<feGaussianBlur stdDeviation="20" result="effect1_foregroundBlur_7017_573"/>
</filter>
<linearGradient id="paint0_linear_7017_573" x1="80" y1="40" x2="80" y2="120" gradientUnits="userSpaceOnUse">
<stop stop-color="#02A9F7"/>
<stop offset="0.295" stop-color="#38C5E8"/>
<stop offset="1" stop-color="#A5FECB"/>
</linearGradient>
<clipPath id="clip0_7017_573">
<rect width="32" height="32" fill="white" transform="translate(63.9844 64.0518)"/>
</clipPath>
</defs>
</svg>
