<svg width="32" height="32" viewBox="0 0 32 32" fill="none" xmlns="http://www.w3.org/2000/svg">
<path d="M22.5625 32H9.4375V29.1875C9.4375 25.5693 12.3818 22.625 16 22.625C19.6182 22.625 22.5625 25.5693 22.5625 29.1875V32ZM16 22.625C13.4154 22.625 11.3125 20.5221 11.3125 17.9375C11.3125 15.3529 13.4154 13.25 16 13.25C18.5846 13.25 20.6875 15.3529 20.6875 17.9375C20.6875 20.5221 18.5846 22.625 16 22.625ZM16 11.7632L9.98681 5.75H13.1875V0H18.8125V5.75H22.0132L16 11.7632ZM20.3561 11.8931L25.7808 9.18075L26.6189 10.8572L21.1943 13.5696L20.3561 11.8931ZM22.5625 15.125H28.1875V17H22.5625V15.125ZM5.36188 10.8582L6.2 9.18188L11.6247 11.8942L10.7865 13.5707L5.36188 10.8582ZM3.8125 15.125H9.4375V17H3.8125V15.125ZM7.5625 29.1875C7.5625 28.2819 7.74319 27.4257 8.0085 26.6073C7.56831 26.4701 7.10975 26.375 6.625 26.375C4.04044 26.375 1.9375 28.4779 1.9375 31.0625V32H7.5625V29.1875ZM25.375 26.375C24.8902 26.375 24.4317 26.4701 23.9915 26.6073C24.2568 27.4257 24.4375 28.2819 24.4375 29.1875V32H30.0625V31.0625C30.0625 28.4779 27.9596 26.375 25.375 26.375ZM9.39287 24.0037C9.41587 23.8591 9.4375 23.7136 9.4375 23.5625C9.4375 22.0116 8.17587 20.75 6.625 20.75C5.07413 20.75 3.8125 22.0116 3.8125 23.5625C3.8125 25.1134 5.07413 26.375 6.625 26.375C7.23769 26.375 7.80075 26.1727 8.26325 25.8389C8.55319 25.1716 8.94862 24.5686 9.39287 24.0037ZM25.375 20.75C23.8241 20.75 22.5625 22.0116 22.5625 23.5625C22.5625 23.7136 22.5841 23.859 22.6071 24.0037C23.0514 24.5686 23.4467 25.1716 23.7367 25.8389C24.1992 26.1727 24.7623 26.375 25.375 26.375C26.9259 26.375 28.1875 25.1134 28.1875 23.5625C28.1875 22.0116 26.9259 20.75 25.375 20.75Z" fill="#02A9F7"/>
</svg>
