<svg width="160" height="160" viewBox="0 0 160 160" fill="none" xmlns="http://www.w3.org/2000/svg">
<g filter="url(#filter0_f_6947_366)">
<circle cx="80" cy="80" r="40" fill="url(#paint0_linear_6947_366)" fill-opacity="0.15"/>
</g>
<path d="M86.5625 96H73.4375V93.1875C73.4375 89.5693 76.3818 86.625 80 86.625C83.6182 86.625 86.5625 89.5693 86.5625 93.1875V96ZM80 86.625C77.4154 86.625 75.3125 84.5221 75.3125 81.9375C75.3125 79.3529 77.4154 77.25 80 77.25C82.5846 77.25 84.6875 79.3529 84.6875 81.9375C84.6875 84.5221 82.5846 86.625 80 86.625ZM80 75.7632L73.9868 69.75H77.1875V64H82.8125V69.75H86.0132L80 75.7632ZM84.3561 75.8931L89.7808 73.1807L90.6189 74.8572L85.1943 77.5696L84.3561 75.8931ZM86.5625 79.125H92.1875V81H86.5625V79.125ZM69.3619 74.8582L70.2 73.1819L75.6247 75.8942L74.7865 77.5707L69.3619 74.8582ZM67.8125 79.125H73.4375V81H67.8125V79.125ZM71.5625 93.1875C71.5625 92.2819 71.7432 91.4257 72.0085 90.6073C71.5683 90.4701 71.1097 90.375 70.625 90.375C68.0404 90.375 65.9375 92.4779 65.9375 95.0625V96H71.5625V93.1875ZM89.375 90.375C88.8902 90.375 88.4317 90.4701 87.9915 90.6073C88.2568 91.4257 88.4375 92.2819 88.4375 93.1875V96H94.0625V95.0625C94.0625 92.4779 91.9596 90.375 89.375 90.375ZM73.3929 88.0037C73.4159 87.8591 73.4375 87.7136 73.4375 87.5625C73.4375 86.0116 72.1759 84.75 70.625 84.75C69.0741 84.75 67.8125 86.0116 67.8125 87.5625C67.8125 89.1134 69.0741 90.375 70.625 90.375C71.2377 90.375 71.8008 90.1727 72.2633 89.8389C72.5532 89.1716 72.9486 88.5686 73.3929 88.0037ZM89.375 84.75C87.8241 84.75 86.5625 86.0116 86.5625 87.5625C86.5625 87.7136 86.5841 87.859 86.6071 88.0037C87.0514 88.5686 87.4467 89.1716 87.7367 89.8389C88.1992 90.1727 88.7623 90.375 89.375 90.375C90.9259 90.375 92.1875 89.1134 92.1875 87.5625C92.1875 86.0116 90.9259 84.75 89.375 84.75Z" fill="#02A9F7"/>
<defs>
<filter id="filter0_f_6947_366" x="0" y="0" width="160" height="160" filterUnits="userSpaceOnUse" color-interpolation-filters="sRGB">
<feFlood flood-opacity="0" result="BackgroundImageFix"/>
<feBlend mode="normal" in="SourceGraphic" in2="BackgroundImageFix" result="shape"/>
<feGaussianBlur stdDeviation="20" result="effect1_foregroundBlur_6947_366"/>
</filter>
<linearGradient id="paint0_linear_6947_366" x1="80" y1="40" x2="80" y2="120" gradientUnits="userSpaceOnUse">
<stop stop-color="#02A9F7"/>
<stop offset="0.295" stop-color="#38C5E8"/>
<stop offset="1" stop-color="#A5FECB"/>
</linearGradient>
</defs>
</svg>
