<svg width="160" height="160" viewBox="0 0 160 160" fill="none" xmlns="http://www.w3.org/2000/svg">
<g filter="url(#filter0_f_6947_354)">
<circle cx="80" cy="80" r="40" fill="url(#paint0_linear_6947_354)" fill-opacity="0.15"/>
</g>
<path fill-rule="evenodd" clip-rule="evenodd" d="M67.3202 77.9427C67.2284 77.9444 67.1373 77.9263 67.0531 77.8897C66.969 77.853 66.8936 77.7987 66.8323 77.7304C66.771 77.6622 66.725 77.5815 66.6976 77.4939C66.6702 77.4062 66.662 77.3138 66.6735 77.2227C67.049 74.5569 68.2818 72.0857 70.1856 70.1824C72.0895 68.279 74.561 67.0469 77.2268 66.672C77.3178 66.6606 77.4101 66.6688 77.4977 66.6961C77.5852 66.7234 77.6658 66.7692 77.7341 66.8304C77.8023 66.8916 77.8567 66.9667 77.8934 67.0508C77.9301 67.1348 77.9483 67.2257 77.9468 67.3174V68.208C77.9468 68.4743 78.0526 68.7297 78.2409 68.918C78.4292 69.1062 78.6845 69.212 78.9508 69.212C79.2171 69.212 79.4725 69.1062 79.6608 68.918C79.849 68.7297 79.9548 68.4743 79.9548 68.208V67.3174C79.9533 67.2257 79.9716 67.1348 80.0083 67.0508C80.045 66.9667 80.0993 66.8916 80.1676 66.8304C80.2359 66.7692 80.3165 66.7234 80.404 66.6961C80.4915 66.6688 80.5839 66.6606 80.6748 66.672C86.7028 67.512 91.3415 72.688 91.3415 78.9467V79.128C91.3348 79.6147 90.8015 79.892 90.3522 79.704C88.8628 79.0786 87.2209 78.9108 85.6358 79.2221C84.0507 79.5334 82.5942 80.3096 81.452 81.4519C80.3098 82.5941 79.5335 84.0506 79.2223 85.6357C78.911 87.2208 79.0787 88.8626 79.7042 90.352C79.8935 90.8 79.6162 91.3334 79.1308 91.3387C79.0695 91.3414 79.0095 91.3414 78.9482 91.3414C72.6882 91.3414 67.5108 86.6987 66.6735 80.6694C66.662 80.5784 66.6702 80.486 66.6975 80.3985C66.7249 80.311 66.7707 80.2304 66.8319 80.1621C66.8931 80.0938 66.9682 80.0395 67.0522 80.0028C67.1362 79.9661 67.2272 79.9479 67.3188 79.9494H68.2135C68.4799 79.9494 68.7355 79.8435 68.9239 79.6551C69.1123 79.4667 69.2182 79.2111 69.2182 78.9447C69.2182 78.6782 69.1123 78.4227 68.9239 78.2343C68.7355 78.0459 68.4799 77.94 68.2135 77.94L67.3202 77.9427ZM79.9535 73.9614C79.9535 73.6951 79.8477 73.4397 79.6594 73.2514C79.4711 73.0631 79.2158 72.9574 78.9495 72.9574C78.6832 72.9574 78.4278 73.0631 78.2396 73.2514C78.0513 73.4397 77.9455 73.6951 77.9455 73.9614V78.5627C77.9455 78.748 77.8695 78.924 77.7348 79.0507L75.1908 81.44C75.0947 81.5303 75.0173 81.6386 74.963 81.7588C74.9088 81.879 74.8787 82.0086 74.8745 82.1404C74.8704 82.2722 74.8922 82.4036 74.9388 82.5269C74.9855 82.6503 75.0559 82.7632 75.1462 82.8594C75.2364 82.9555 75.3447 83.0329 75.4649 83.0872C75.5851 83.1414 75.7148 83.1715 75.8466 83.1756C75.9784 83.1798 76.1097 83.1579 76.233 83.1113C76.3564 83.0647 76.4694 82.9943 76.5655 82.904L79.4255 80.2174C79.7628 79.9014 79.9535 79.4587 79.9535 78.9974V73.9614Z" fill="#02A9F7"/>
<path fill-rule="evenodd" clip-rule="evenodd" d="M87.2078 93.333C88.0197 93.345 88.8259 93.1954 89.5795 92.893C90.3331 92.5906 91.019 92.1414 91.5974 91.5714C92.1758 91.0015 92.6351 90.3223 92.9486 89.5733C93.2621 88.8242 93.4235 88.0203 93.4235 87.2083C93.4235 86.3963 93.2621 85.5925 92.9486 84.8434C92.6351 84.0944 92.1758 83.4152 91.5974 82.8452C91.019 82.2753 90.3331 81.8261 89.5795 81.5237C88.8259 81.2213 88.0197 81.0717 87.2078 81.0837C85.5991 81.1074 84.0643 81.7631 82.9351 82.9091C81.8059 84.0552 81.1729 85.5995 81.1729 87.2083C81.1729 88.8172 81.8059 90.3615 82.9351 91.5075C84.0643 92.6536 85.5991 93.3093 87.2078 93.333ZM90.4638 86.369C90.6321 86.1634 90.712 85.8995 90.6861 85.6351C90.6602 85.3707 90.5306 85.1274 90.3256 84.9584C90.1206 84.7894 89.857 84.7085 89.5925 84.7335C89.328 84.7585 89.0842 84.8873 88.9145 85.0917L87.3465 86.9917C87.2889 87.0617 87.2177 87.1194 87.1372 87.161C87.0567 87.2027 86.9685 87.2275 86.878 87.234C86.7876 87.2405 86.6968 87.2285 86.6111 87.1988C86.5255 87.169 86.4468 87.1221 86.3798 87.061L85.8491 86.577C85.6514 86.4049 85.3942 86.317 85.1324 86.332C84.8707 86.347 84.6252 86.4639 84.4485 86.6575C84.2717 86.8511 84.1777 87.1062 84.1866 87.3682C84.1954 87.6302 84.3064 87.8784 84.4958 88.0597L85.8691 89.313C86.5118 89.8997 87.5798 89.8663 88.1598 89.1623L90.4638 86.369Z" fill="#02A9F7"/>
<defs>
<filter id="filter0_f_6947_354" x="0" y="0" width="160" height="160" filterUnits="userSpaceOnUse" color-interpolation-filters="sRGB">
<feFlood flood-opacity="0" result="BackgroundImageFix"/>
<feBlend mode="normal" in="SourceGraphic" in2="BackgroundImageFix" result="shape"/>
<feGaussianBlur stdDeviation="20" result="effect1_foregroundBlur_6947_354"/>
</filter>
<linearGradient id="paint0_linear_6947_354" x1="80" y1="40" x2="80" y2="120" gradientUnits="userSpaceOnUse">
<stop stop-color="#02A9F7"/>
<stop offset="0.295" stop-color="#38C5E8"/>
<stop offset="1" stop-color="#A5FECB"/>
</linearGradient>
</defs>
</svg>
