<svg width="32" height="32" viewBox="0 0 32 32" fill="none" xmlns="http://www.w3.org/2000/svg">
<path d="M11.6809 28.5564H4.92369C3.975 28.5564 3.20312 29.3282 3.20312 30.2776C3.20312 31.2263 3.975 31.9981 4.92369 31.9981H14.7183C13.4614 31.1006 12.4183 29.9226 11.6809 28.5564ZM4.92369 26.6814H10.9022C10.6241 25.7603 10.4753 24.7847 10.4753 23.7747C10.4753 23.5953 10.4803 23.4172 10.4891 23.2403H4.92369C3.975 23.2403 3.20312 24.0121 3.20312 24.9609C3.20312 25.9096 3.975 26.6814 4.92369 26.6814ZM4.92369 21.3654H10.7659C11.0741 20.1105 11.6178 18.9462 12.3471 17.9237H4.92369C3.975 17.9237 3.20312 18.6956 3.20312 19.6443C3.20312 20.5936 3.975 21.3654 4.92369 21.3654ZM4.92369 16.0488H14.077C15.5838 14.7795 17.4656 13.9427 19.5293 13.7296C19.2855 13.0753 18.6543 12.6077 17.9162 12.6077H4.92369C3.975 12.6077 3.20312 13.3796 3.20312 14.3283C3.20312 15.2769 3.975 16.0488 4.92369 16.0488ZM14.8007 17.9237C13.8427 18.8693 13.1152 20.0474 12.7102 21.3654C11.024 26.8513 15.3773 32.3447 21.0811 31.9831C25.3809 31.7206 28.7982 28.1395 28.7982 23.7747C28.7982 16.5888 20.0564 12.7337 14.8007 17.9237ZM23.5422 25.9946C23.3728 27.0027 22.6379 28.0246 21.4879 28.4032V28.6532C21.4879 29.2055 21.0107 29.6334 20.4836 29.5882C19.9974 29.5538 19.6131 29.1488 19.6131 28.6532V28.5126C18.9965 28.4311 18.5188 28.2054 17.99 27.8589C17.8923 27.7954 17.8075 27.714 17.74 27.6189C17.1612 26.8089 18.0823 25.7797 18.9493 26.2496H18.9499C19.4463 26.5122 19.4367 26.6903 20.5199 26.6814C20.7761 26.6796 20.9936 26.6077 21.1686 26.4933V26.4927C21.7763 26.0961 22.0411 25.0059 21.0542 24.6565C20.2586 24.3762 18.8839 23.8612 18.3381 23.2153H18.3374C17.2331 21.9449 17.8742 19.6575 19.613 19.1499C19.613 18.9091 19.5574 18.3966 20.0723 18.0899C20.601 17.7761 21.4879 17.9834 21.4879 19.1049C21.7039 19.1619 21.996 19.2785 22.2882 19.4134C22.8678 19.6811 23.0193 20.4354 22.5864 20.9046C22.4508 21.0515 22.272 21.1513 22.0758 21.1896C21.8796 21.2279 21.6763 21.2027 21.4954 21.1176C21.2099 20.9833 20.8124 20.7439 20.1647 20.9411C19.6382 21.1004 19.5646 21.8439 19.7754 22.0079C20.2318 22.3678 21.1267 22.6933 21.6791 22.8884C23.0254 23.3647 23.7747 24.6128 23.5422 25.9946ZM10.7853 10.3939C11.0878 10.8458 11.7521 10.8458 12.0546 10.3939L15.8638 5.54156C16.2032 5.03413 15.8394 4.3535 15.2294 4.3535H14.0664C13.6445 4.3535 13.3026 4.01163 13.3026 3.58981V0.763687C13.3026 0.341812 12.9607 0 12.5396 0H10.3003C9.87906 0 9.53719 0.341875 9.53719 0.763687V3.58981C9.53719 4.01169 9.19531 4.3535 8.7735 4.3535H7.61044C7.00044 4.3535 6.63675 5.03413 6.97606 5.54156L10.7853 10.3939Z" fill="#02A9F7"/>
</svg>

