<svg width="32" height="32" viewBox="0 0 32 32" fill="none" xmlns="http://www.w3.org/2000/svg">
<path fill-rule="evenodd" clip-rule="evenodd" d="M3.31967 13.9417C3.22789 13.9434 3.13682 13.9253 3.05265 13.8887C2.96847 13.8521 2.89316 13.7978 2.83182 13.7295C2.77048 13.6612 2.72455 13.5805 2.69715 13.4929C2.66975 13.4053 2.66151 13.3128 2.673 13.2217C3.04852 10.5559 4.2813 8.08476 6.18513 6.1814C8.08897 4.27804 10.5605 3.04589 13.2263 2.67105C13.3173 2.65957 13.4097 2.66778 13.4972 2.6951C13.5847 2.72243 13.6653 2.76824 13.7336 2.82943C13.8019 2.89062 13.8562 2.96577 13.8929 3.04978C13.9296 3.13379 13.9478 3.22471 13.9463 3.31638V4.20705C13.9463 4.47332 14.0521 4.72869 14.2404 4.91698C14.4287 5.10527 14.6841 5.21105 14.9503 5.21105C15.2166 5.21105 15.472 5.10527 15.6603 4.91698C15.8486 4.72869 15.9543 4.47332 15.9543 4.20705V3.31638C15.9529 3.22471 15.9711 3.13379 16.0078 3.04978C16.0445 2.96577 16.0988 2.89062 16.1671 2.82943C16.2354 2.76824 16.316 2.72243 16.4035 2.6951C16.491 2.66778 16.5834 2.65957 16.6743 2.67105C22.7023 3.51105 27.341 8.68705 27.341 14.9457V15.127C27.3343 15.6137 26.801 15.891 26.3517 15.703C24.8623 15.0776 23.2204 14.9099 21.6353 15.2211C20.0502 15.5324 18.5938 16.3087 17.4515 17.4509C16.3093 18.5931 15.5331 20.0496 15.2218 21.6347C14.9105 23.2198 15.0782 24.8617 15.7037 26.351C15.893 26.799 15.6157 27.3324 15.1303 27.3377C15.069 27.3404 15.009 27.3404 14.9477 27.3404C8.68767 27.3404 3.51034 22.6977 2.673 16.6684C2.66153 16.5774 2.66973 16.4851 2.69706 16.3975C2.72439 16.31 2.7702 16.2294 2.83139 16.1611C2.89258 16.0929 2.96772 16.0385 3.05174 16.0018C3.13575 15.9651 3.22667 15.9469 3.31834 15.9484H4.213C4.47946 15.9484 4.735 15.8425 4.92341 15.6541C5.11182 15.4657 5.21767 15.2102 5.21767 14.9437C5.21767 14.6773 5.11182 14.4217 4.92341 14.2333C4.735 14.0449 4.47946 13.939 4.213 13.939L3.31967 13.9417ZM15.953 9.96038C15.953 9.6941 15.8472 9.43873 15.6589 9.25044C15.4707 9.06216 15.2153 8.95638 14.949 8.95638C14.6827 8.95638 14.4274 9.06216 14.2391 9.25044C14.0508 9.43873 13.945 9.6941 13.945 9.96038V14.5617C13.945 14.747 13.869 14.923 13.7343 15.0497L11.1903 17.439C11.0942 17.5293 11.0168 17.6376 10.9625 17.7578C10.9083 17.878 10.8782 18.0077 10.874 18.1395C10.8699 18.2713 10.8918 18.4026 10.9384 18.5259C10.985 18.6493 11.0554 18.7623 11.1457 18.8584C11.2359 18.9545 11.3442 19.0319 11.4644 19.0862C11.5846 19.1405 11.7143 19.1705 11.8461 19.1747C11.9779 19.1788 12.1092 19.157 12.2326 19.1104C12.3559 19.0638 12.4689 18.9933 12.565 18.903L15.425 16.2164C15.7623 15.9004 15.953 15.4577 15.953 14.9964V9.96038Z" fill="#02A9F7"/>
<path fill-rule="evenodd" clip-rule="evenodd" d="M23.2068 29.332C24.0187 29.344 24.8249 29.1944 25.5785 28.892C26.3321 28.5896 27.018 28.1404 27.5964 27.5705C28.1748 27.0005 28.6341 26.3213 28.9476 25.5723C29.2611 24.8233 29.4225 24.0194 29.4225 23.2074C29.4225 22.3954 29.2611 21.5915 28.9476 20.8424C28.6341 20.0934 28.1748 19.4142 27.5964 18.8443C27.018 18.2744 26.3321 17.8251 25.5785 17.5227C24.8249 17.2203 24.0187 17.0707 23.2068 17.0827C21.5981 17.1064 20.0633 17.7622 18.9341 18.9082C17.8049 20.0542 17.1719 21.5985 17.1719 23.2074C17.1719 24.8163 17.8049 26.3605 18.9341 27.5066C20.0633 28.6526 21.5981 29.3083 23.2068 29.332ZM26.4628 22.368C26.6311 22.1625 26.7111 21.8986 26.6851 21.6342C26.6592 21.3698 26.5296 21.1264 26.3246 20.9574C26.1196 20.7884 25.856 20.7076 25.5915 20.7325C25.327 20.7575 25.0832 20.8863 24.9135 21.0907L23.3455 22.9907C23.288 23.0608 23.2168 23.1184 23.1362 23.1601C23.0557 23.2017 22.9675 23.2266 22.8771 23.233C22.7866 23.2395 22.6958 23.2275 22.6102 23.1978C22.5245 23.168 22.4458 23.1212 22.3788 23.06L21.8482 22.576C21.6504 22.4039 21.3932 22.316 21.1314 22.331C20.8697 22.3461 20.6242 22.4629 20.4475 22.6565C20.2707 22.8501 20.1768 23.1052 20.1856 23.3672C20.1945 23.6293 20.3054 23.8774 20.4948 24.0587L21.8682 25.312C22.5108 25.8987 23.5788 25.8654 24.1588 25.1614L26.4628 22.368Z" fill="#02A9F7"/>
</svg>

