<svg width="160" height="160" viewBox="0 0 160 160" fill="none" xmlns="http://www.w3.org/2000/svg">
<g filter="url(#filter0_f_6947_361)">
<circle cx="80" cy="80" r="40" fill="url(#paint0_linear_6947_361)" fill-opacity="0.12"/>
</g>
<path d="M75.6804 92.5564H68.9232C67.9745 92.5564 67.2026 93.3282 67.2026 94.2776C67.2026 95.2262 67.9745 95.9981 68.9232 95.9981H78.7178C77.4609 95.1006 76.4178 93.9226 75.6804 92.5564ZM68.9232 90.6814H74.9017C74.6236 89.7603 74.4748 88.7847 74.4748 87.7747C74.4748 87.5953 74.4798 87.4172 74.4886 87.2403H68.9232C67.9745 87.2403 67.2026 88.0121 67.2026 88.9609C67.2026 89.9096 67.9745 90.6814 68.9232 90.6814ZM68.9232 85.3654H74.7654C75.0736 84.1105 75.6173 82.9462 76.3466 81.9237H68.9232C67.9745 81.9237 67.2026 82.6956 67.2026 83.6443C67.2026 84.5936 67.9745 85.3654 68.9232 85.3654ZM68.9232 80.0488H78.0765C79.5833 78.7795 81.4651 77.9427 83.5288 77.7296C83.285 77.0753 82.6538 76.6077 81.9157 76.6077H68.9232C67.9745 76.6077 67.2026 77.3796 67.2026 78.3283C67.2026 79.2769 67.9745 80.0488 68.9232 80.0488ZM78.8003 81.9237C77.8422 82.8693 77.1147 84.0474 76.7097 85.3654C75.0235 90.8513 79.3768 96.3447 85.0806 95.9831C89.3804 95.7206 92.7977 92.1395 92.7977 87.7747C92.7978 80.5888 84.056 76.7337 78.8003 81.9237ZM87.5417 89.9946C87.3723 91.0027 86.6374 92.0246 85.4874 92.4032V92.6532C85.4874 93.2055 85.0102 93.6334 84.4831 93.5882C83.9969 93.5538 83.6126 93.1488 83.6126 92.6532V92.5126C82.996 92.4311 82.5183 92.2054 81.9895 91.8589C81.8918 91.7954 81.807 91.714 81.7395 91.6189C81.1607 90.8089 82.0818 89.7797 82.9488 90.2496H82.9494C83.4458 90.5122 83.4363 90.6903 84.5194 90.6814C84.7756 90.6796 84.9931 90.6077 85.1681 90.4933V90.4927C85.7758 90.0961 86.0406 89.0059 85.0537 88.6565C84.2581 88.3762 82.8834 87.8612 82.3376 87.2153H82.3369C81.2326 85.9449 81.8738 83.6575 83.6125 83.1499C83.6125 82.9091 83.5569 82.3966 84.0718 82.0899C84.6005 81.7761 85.4874 81.9834 85.4874 83.1049C85.7034 83.1619 85.9955 83.2785 86.2877 83.4134C86.8673 83.6811 87.0188 84.4354 86.5859 84.9046C86.4504 85.0515 86.2715 85.1513 86.0753 85.1896C85.8791 85.2279 85.6758 85.2027 85.4949 85.1176C85.2094 84.9833 84.8119 84.7439 84.1643 84.9411C83.6377 85.1004 83.5641 85.8439 83.7749 86.0079C84.2313 86.3678 85.1263 86.6933 85.6786 86.8884C87.0249 87.3647 87.7742 88.6128 87.5417 89.9946ZM74.7848 74.3939C75.0873 74.8457 75.7516 74.8457 76.0541 74.3939L79.8633 69.5416C80.2027 69.0341 79.8389 68.3535 79.2289 68.3535H78.0659C77.644 68.3535 77.3021 68.0116 77.3021 67.5898V64.7637C77.3021 64.3418 76.9603 64 76.5391 64H74.2998C73.8786 64 73.5367 64.3419 73.5367 64.7637V67.5898C73.5367 68.0117 73.1948 68.3535 72.773 68.3535H71.6099C70.9999 68.3535 70.6363 69.0341 70.9756 69.5416L74.7848 74.3939Z" fill="#02A9F7"/>
<defs>
<filter id="filter0_f_6947_361" x="0" y="0" width="160" height="160" filterUnits="userSpaceOnUse" color-interpolation-filters="sRGB">
<feFlood flood-opacity="0" result="BackgroundImageFix"/>
<feBlend mode="normal" in="SourceGraphic" in2="BackgroundImageFix" result="shape"/>
<feGaussianBlur stdDeviation="20" result="effect1_foregroundBlur_6947_361"/>
</filter>
<linearGradient id="paint0_linear_6947_361" x1="80" y1="40" x2="80" y2="120" gradientUnits="userSpaceOnUse">
<stop stop-color="#02A9F7"/>
<stop offset="0.295" stop-color="#38C5E8"/>
<stop offset="1" stop-color="#A5FECB"/>
</linearGradient>
</defs>
</svg>
