<svg width="33" height="33" viewBox="0 0 33 33" fill="none" xmlns="http://www.w3.org/2000/svg">
<rect x="0.727478" y="0.472656" width="31.6524" height="31.6529" rx="15.4002" fill="#0079FE"/>
<path d="M14.5125 16.4351C14.5125 15.2335 15.486 14.2592 16.6873 14.2592C17.8885 14.2592 18.8625 15.2335 18.8625 16.4351C18.8625 17.6367 17.8885 18.611 16.6873 18.611C15.486 18.611 14.5125 17.6367 14.5125 16.4351ZM13.3366 16.4351C13.3366 18.2862 14.8367 19.7868 16.6873 19.7868C18.5378 19.7868 20.0379 18.2862 20.0379 16.4351C20.0379 14.584 18.5378 13.0834 16.6873 13.0834C14.8367 13.0834 13.3366 14.584 13.3366 16.4351ZM19.3875 12.9505C19.3875 13.1055 19.4333 13.2569 19.5193 13.3858C19.6053 13.5146 19.7276 13.615 19.8706 13.6744C20.0137 13.7337 20.1711 13.7493 20.323 13.7191C20.4749 13.689 20.6145 13.6144 20.724 13.5049C20.8336 13.3954 20.9082 13.2559 20.9385 13.104C20.9688 12.952 20.9533 12.7945 20.8941 12.6514C20.8349 12.5082 20.7346 12.3859 20.6059 12.2998C20.4771 12.2136 20.3258 12.1676 20.1709 12.1676H20.1706C19.963 12.1677 19.7639 12.2502 19.6171 12.397C19.4703 12.5438 19.3877 12.7429 19.3875 12.9505ZM14.0511 21.7481C13.4149 21.7192 13.0691 21.6132 12.8393 21.5236C12.5346 21.405 12.3173 21.2637 12.0887 21.0354C11.8602 20.8071 11.7187 20.5898 11.6006 20.2851C11.5111 20.0553 11.4051 19.7093 11.3762 19.073C11.3445 18.3849 11.3382 18.1783 11.3382 16.4352C11.3382 14.6921 11.345 14.486 11.3762 13.7974C11.4051 13.161 11.5119 12.8157 11.6006 12.5852C11.7192 12.2805 11.8605 12.063 12.0887 11.8344C12.3169 11.6058 12.5341 11.4643 12.8393 11.3462C13.069 11.2566 13.4149 11.1506 14.0511 11.1216C14.7389 11.09 14.9455 11.0837 16.6873 11.0837C18.4291 11.0837 18.6359 11.0905 19.3243 11.1216C19.9605 11.1506 20.3057 11.2574 20.536 11.3462C20.8407 11.4643 21.0581 11.6061 21.2866 11.8344C21.5151 12.0627 21.6561 12.2805 21.7747 12.5852C21.8643 12.815 21.9702 13.161 21.9992 13.7974C22.0308 14.486 22.0371 14.6921 22.0371 16.4352C22.0371 18.1783 22.0308 18.3844 21.9992 19.073C21.9702 19.7093 21.8637 20.0552 21.7747 20.2851C21.6561 20.5898 21.5148 20.8073 21.2866 21.0354C21.0584 21.2635 20.8407 21.405 20.536 21.5236C20.3064 21.6132 19.9605 21.7192 19.3243 21.7481C18.6365 21.7798 18.4298 21.7861 16.6873 21.7861C14.9447 21.7861 14.7387 21.7798 14.0511 21.7481ZM13.997 9.94737C13.3024 9.97901 12.8277 10.0892 12.4132 10.2505C11.9838 10.4172 11.6204 10.6407 11.2572 11.0034C10.8941 11.3661 10.6712 11.7303 10.5046 12.1597C10.3433 12.5746 10.2331 13.0492 10.2015 13.744C10.1693 14.44 10.162 14.6625 10.162 16.4351C10.162 18.2077 10.1693 18.4302 10.2015 19.1262C10.2331 19.8211 10.3433 20.2956 10.5046 20.7105C10.6712 21.1397 10.8941 21.5042 11.2572 21.8668C11.6204 22.2293 11.9838 22.4526 12.4132 22.6197C12.8285 22.781 13.3024 22.8912 13.997 22.9228C14.6931 22.9545 14.9152 22.9624 16.6873 22.9624C18.4593 22.9624 18.6818 22.955 19.3775 22.9228C20.0722 22.8912 20.5466 22.781 20.9614 22.6197C21.3904 22.4526 21.7541 22.2295 22.1173 21.8668C22.4805 21.5041 22.7029 21.1397 22.87 20.7105C23.0313 20.2956 23.1419 19.821 23.173 19.1262C23.2047 18.4297 23.212 18.2077 23.212 16.4351C23.212 14.6625 23.2047 14.44 23.173 13.744C23.1414 13.0491 23.0313 12.5744 22.87 12.1597C22.7029 11.7305 22.4799 11.3667 22.1173 11.0034C21.7547 10.6401 21.3904 10.4172 20.9619 10.2505C20.5466 10.0892 20.0722 9.97849 19.378 9.94737C18.6823 9.91572 18.4599 9.90784 16.6878 9.90784C14.9157 9.90784 14.6931 9.9152 13.997 9.94737Z" fill="white"/>
</svg>
