<svg width="82" height="63" viewBox="0 0 82 63" fill="none" xmlns="http://www.w3.org/2000/svg">
<path d="M10.9823 53.1546L11.1098 53.069C11.5944 52.785 11.9368 52.6412 12.1354 52.6412C12.5762 52.6412 13.0535 53.0399 13.5672 53.8374C13.8805 54.3362 14.0372 54.7422 14.0372 55.0554C14.0372 55.3412 13.9406 55.5816 13.7493 55.7818C13.5563 55.9821 13.2684 56.1951 12.8841 56.4227C12.7566 56.5083 12.5744 56.623 12.3394 56.765C12.1044 56.907 11.6235 57.0927 10.8967 57.3203C10.1698 57.5479 9.44301 57.6626 8.71617 57.6626C8.08953 57.6626 7.4301 57.5734 6.7397 57.395C6.0493 57.2165 5.33704 56.9179 4.60292 56.4974C3.8688 56.0768 3.20937 55.5652 2.62645 54.9589C2.04171 54.3544 1.56079 53.5788 1.18372 52.6302C0.806637 51.6835 0.617188 50.6475 0.617188 49.5223C0.617188 48.3972 0.802994 47.4267 1.17279 46.5219C1.54258 45.6188 2.0162 44.8705 2.59366 44.2788C3.17112 43.6889 3.82873 43.19 4.57013 42.784C5.31154 42.378 6.03473 42.0867 6.7397 41.9083C7.44467 41.7298 8.12597 41.6406 8.77993 41.6406C9.4339 41.6406 10.1298 41.7444 10.8202 41.9501C11.5106 42.1559 12.0352 42.3671 12.3904 42.5801L12.9041 42.8787C13.161 43.0353 13.3559 43.1664 13.4925 43.2738C13.6273 43.3812 13.7566 43.5268 13.8769 43.7126C13.9971 43.8983 14.059 44.0967 14.059 44.3097C14.059 44.6666 13.9097 45.0508 13.6109 45.4622C13.0553 46.2306 12.5562 46.6147 12.1153 46.6147C11.8585 46.6147 11.496 46.4581 11.026 46.145C10.4267 45.6607 9.62881 45.4185 8.63238 45.4185C8.19154 45.4185 7.73431 45.5005 7.26433 45.6643C6.79435 45.8282 6.34258 46.0667 5.90721 46.3799C5.47184 46.693 5.11298 47.1354 4.82881 47.7035C4.54463 48.2734 4.40072 48.9142 4.40072 49.6261C4.40072 50.338 4.54281 51.0007 4.82881 51.5706C5.11298 52.1405 5.47731 52.5847 5.91814 52.9052C6.35898 53.2256 6.81621 53.4641 7.28619 53.6207C7.75617 53.7773 8.2043 53.8556 8.63238 53.8556C9.06046 53.8556 9.49037 53.7991 9.88202 53.6844C10.2737 53.5715 10.556 53.4568 10.7254 53.3421L10.9823 53.1491V53.1546Z" fill="#00267A"/>
<path d="M21.262 46.2438C22.6865 46.2438 23.8724 46.7845 24.8197 47.8678C25.7669 48.9511 26.2405 50.2747 26.2405 51.8405V55.6002C26.2405 55.9279 26.2296 56.1737 26.2077 56.3376C26.1859 56.5015 26.1221 56.6872 26.0147 56.8929C25.9072 57.0986 25.7195 57.2461 25.4481 57.3299C25.1767 57.4154 24.8142 57.4573 24.3588 57.4573C23.9034 57.4573 23.5646 57.4154 23.3004 57.3299C23.0363 57.2443 22.8487 57.0986 22.7339 56.8929C22.6191 56.6872 22.5517 56.4978 22.5317 56.3267C22.5117 56.1555 22.4989 55.8988 22.4989 55.5584V51.8205C22.4989 51.2361 22.335 50.7809 22.0071 50.4532C21.6792 50.1254 21.2584 49.9616 20.7465 49.9616C20.2346 49.9616 19.8065 50.1145 19.4222 50.4204C19.0378 50.7263 18.8156 51.0722 18.7591 51.4564V55.6002C18.7591 55.9279 18.7482 56.1737 18.7263 56.3376C18.7044 56.5015 18.6407 56.6872 18.5332 56.8929C18.4257 57.0986 18.2381 57.2461 17.9667 57.3299C17.6952 57.4154 17.3327 57.4573 16.8773 57.4573C16.4219 57.4573 16.0795 57.4154 15.808 57.3299C15.5366 57.2443 15.349 57.095 15.2415 56.882C15.134 56.669 15.0703 56.4833 15.0484 56.3267C15.0266 56.1701 15.0156 55.9207 15.0156 55.5784V42.8063C15.0156 42.4786 15.0266 42.2328 15.0484 42.0689C15.0703 41.9051 15.134 41.7194 15.2415 41.5136C15.349 41.3079 15.5366 41.1604 15.808 41.0767C16.0776 40.9911 16.442 40.9492 16.8974 40.9492C17.3528 40.9492 17.6952 40.9911 17.9667 41.0767C18.2363 41.1622 18.4257 41.3115 18.5332 41.5246C18.6407 41.7376 18.7044 41.9269 18.7263 42.0908C18.7482 42.2546 18.7591 42.5004 18.7591 42.8282V47.5492C19.4713 46.6807 20.3038 46.2456 21.2602 46.2456L21.262 46.2438Z" fill="#00267A"/>
<path d="M36.2527 46.1914C36.6935 46.1914 37.0506 46.2351 37.322 46.3189C37.5916 46.4044 37.781 46.5537 37.8885 46.7667C37.996 46.9798 38.0598 47.1691 38.0816 47.333C38.1035 47.4968 38.1144 47.7426 38.1144 48.0703V55.5461C38.1144 55.8738 38.1035 56.1196 38.0816 56.2834C38.0598 56.4473 37.996 56.633 37.8885 56.8387C37.781 57.0445 37.5934 57.192 37.322 57.2775C37.0506 57.3631 36.6881 57.405 36.2327 57.405C35.5914 57.405 35.1397 57.3085 34.8755 57.1173C34.6114 56.9243 34.4584 56.6439 34.4165 56.2743C33.89 57.0299 33.0339 57.4068 31.8516 57.4068C30.5692 57.4068 29.4015 56.8442 28.3468 55.719C27.2921 54.5938 26.7656 53.2775 26.7656 51.7681C26.7656 50.2588 27.2957 49.0098 28.3577 47.8919C29.4197 46.774 30.5838 46.2151 31.8516 46.2151C32.3362 46.2151 32.777 46.3006 33.176 46.4718C33.5749 46.6429 33.8518 46.8032 34.0103 46.9525C34.1669 47.1017 34.2944 47.2474 34.3946 47.3912C34.4365 46.9925 34.5895 46.6939 34.8537 46.4936C35.1178 46.2952 35.5842 46.195 36.2527 46.195V46.1914ZM32.4273 53.6671C32.941 53.6671 33.3709 53.4741 33.7206 53.09C34.0704 52.7058 34.2434 52.2779 34.2434 51.8082C34.2434 51.3385 34.0758 50.9252 33.7407 50.5264C33.4055 50.1277 32.9537 49.9293 32.3835 49.9293C31.8134 49.9293 31.3762 50.1295 31.0264 50.5264C30.6767 50.9252 30.5036 51.3603 30.5036 51.83C30.5036 52.2998 30.6894 52.724 31.0592 53.1009C31.429 53.4778 31.8862 53.6671 32.4273 53.6671Z" fill="#00267A"/>
<path d="M47.5807 47.5245C47.5807 48.1363 47.4459 48.7134 47.1744 49.2542C46.903 49.7949 46.5114 50.0662 45.9995 50.0662C45.7426 50.0662 45.4967 50.0098 45.2617 49.8951C45.0267 49.7822 44.7881 49.7239 44.5458 49.7239C44.0194 49.7239 43.5876 49.8587 43.2525 50.1299C42.9173 50.4012 42.7497 50.7289 42.7497 51.1131V55.5993C42.7497 55.927 42.7388 56.1728 42.7169 56.3366C42.695 56.5005 42.6276 56.6862 42.5129 56.8919C42.3981 57.0977 42.2068 57.2451 41.9354 57.3289C41.664 57.4145 41.3015 57.4563 40.8461 57.4563C40.489 57.4563 40.1867 57.4218 39.9371 57.3489C39.6875 57.2779 39.5017 57.1923 39.3815 57.0922C39.2594 56.9921 39.1684 56.8464 39.1028 56.6534C39.039 56.4604 39.0026 56.2984 38.9953 56.1618C38.988 56.0271 38.9844 55.8232 38.9844 55.5537V48.0562C38.9844 47.7285 38.9953 47.4827 39.0172 47.3188C39.039 47.1549 39.1028 46.9692 39.2103 46.7635C39.3177 46.5578 39.5054 46.4103 39.7768 46.3247C40.0464 46.2391 40.4107 46.1973 40.8661 46.1973C41.2942 46.1973 41.6421 46.241 41.9136 46.3247C42.1832 46.4103 42.369 46.5268 42.4692 46.6779C42.5694 46.8272 42.6331 46.9528 42.6623 47.0512C42.6914 47.1513 42.7042 47.2642 42.7042 47.3935C42.7752 47.2933 42.879 47.1732 43.0138 47.0293C43.1486 46.8873 43.4383 46.6943 43.8791 46.4522C44.3199 46.21 44.7699 46.0898 45.2253 46.0898C45.4384 46.0898 45.6588 46.1081 45.8884 46.1426C46.1161 46.1791 46.3656 46.2391 46.6371 46.3247C46.9067 46.4103 47.1325 46.5559 47.3111 46.7635C47.4896 46.9692 47.5788 47.2223 47.5788 47.5209L47.5807 47.5245Z" fill="#00267A"/>
<path d="M60.3537 46.1736C61.4941 46.1736 62.4486 46.6123 63.2173 47.4863C63.9861 48.3602 64.3704 49.8113 64.3704 51.8322V55.5701C64.3704 55.8978 64.3595 56.1436 64.3376 56.3075C64.3158 56.4713 64.252 56.6607 64.1445 56.8737C64.0371 57.0867 63.8494 57.236 63.578 57.3216C63.3066 57.4072 62.9441 57.449 62.4887 57.449C62.0333 57.449 61.6908 57.4035 61.4194 57.3107C61.148 57.2178 60.9603 57.0649 60.8528 56.8518C60.7454 56.6388 60.6816 56.4495 60.6598 56.2856C60.6379 56.1218 60.627 55.876 60.627 55.5482V51.8104C60.627 50.5723 60.1843 49.9515 59.3026 49.9515C58.8035 49.9515 58.4647 50.1153 58.288 50.4431C58.1095 50.7708 58.0202 51.2332 58.0202 51.8304V55.5683C58.0202 55.9106 58.0093 56.16 57.9874 56.3166C57.9656 56.4731 57.8982 56.6589 57.7834 56.8719C57.6686 57.0849 57.4774 57.2342 57.2059 57.3198C56.9345 57.4053 56.572 57.4472 56.1166 57.4472C55.6612 57.4472 55.3187 57.4017 55.0473 57.3088C54.7759 57.216 54.5882 57.063 54.4808 56.85C54.3733 56.637 54.3095 56.4477 54.2877 56.2838C54.2658 56.1199 54.2549 55.8741 54.2549 55.5464V51.8086C54.2549 50.5705 53.8141 49.9497 52.9306 49.9497C52.0471 49.9497 51.6481 50.5687 51.6481 51.8086V55.5883C51.6481 55.916 51.6372 56.1618 51.6153 56.3257C51.5935 56.4895 51.5261 56.6752 51.4113 56.881C51.2966 57.0867 51.1053 57.2342 50.8339 57.3179C50.5624 57.4035 50.1999 57.4454 49.7445 57.4454C49.2891 57.4454 48.9466 57.4035 48.6752 57.3179C48.4038 57.2324 48.2162 57.0831 48.1087 56.8701C48.0012 56.657 47.9375 56.4713 47.9156 56.3148C47.8937 56.1582 47.8828 55.9087 47.8828 55.5664V48.0489C47.8828 47.7211 47.8937 47.4753 47.9156 47.3115C47.9375 47.1476 48.0049 46.9619 48.1196 46.7562C48.2326 46.5504 48.4257 46.403 48.6971 46.3174C48.9667 46.2318 49.331 46.1899 49.7864 46.1899C50.4841 46.1899 50.9541 46.3174 51.1964 46.5741C51.4386 46.8308 51.5589 47.2004 51.5589 47.6847C51.588 47.6429 51.6226 47.5882 51.6663 47.5245C51.7082 47.4608 51.8084 47.3406 51.9651 47.1622C52.1218 46.9838 52.2857 46.8272 52.4569 46.6925C52.6282 46.5577 52.8522 46.4357 53.1309 46.3301C53.4078 46.2227 53.6902 46.1699 53.9744 46.1699C55.428 46.1699 56.5101 46.789 57.2223 48.0288C57.379 47.8158 57.5684 47.5919 57.7889 47.3552C58.0093 47.1203 58.3627 46.8636 58.8472 46.5869C59.3318 46.3083 59.8309 46.1699 60.3428 46.1699L60.3537 46.1736Z" fill="#00267A"/>
<path d="M65.2188 48.0835C65.2188 47.7558 65.2297 47.51 65.2515 47.3461C65.2734 47.1823 65.3372 46.9966 65.4446 46.7908C65.5521 46.5851 65.7397 46.4376 66.0112 46.3521C66.2808 46.2665 66.6451 46.2246 67.1005 46.2246C67.4557 46.2246 67.7599 46.261 68.0095 46.332C68.2591 46.403 68.443 46.4886 68.5651 46.5887C68.6853 46.6889 68.7782 46.8345 68.8438 47.0257C68.9076 47.2187 68.944 47.3826 68.9513 47.5173C68.9586 47.652 68.9622 47.8559 68.9622 48.1254V55.6011C68.9622 55.9288 68.9513 56.1746 68.9294 56.3385C68.9076 56.5023 68.8438 56.688 68.7363 56.8938C68.6288 57.0995 68.4412 57.247 68.1698 57.3308C67.8984 57.4163 67.5359 57.4582 67.0805 57.4582C66.6251 57.4582 66.2826 57.4163 66.0112 57.3308C65.7397 57.2452 65.5521 57.0959 65.4446 56.8829C65.3372 56.6698 65.2734 56.4841 65.2515 56.3276C65.2297 56.171 65.2188 55.9215 65.2188 55.5793V48.0817V48.0835Z" fill="#00267A"/>
<path d="M80.7035 46.3311C81.5432 46.7025 81.964 47.1504 81.964 47.6765C81.964 47.9041 81.8565 48.2464 81.6434 48.7016V48.7234C81.6288 48.738 81.6216 48.7526 81.6216 48.7653L76.0219 61.2825C75.9071 61.5519 75.8105 61.7595 75.734 61.9015C75.6557 62.0435 75.5318 62.1783 75.3606 62.3075C75.1894 62.4368 74.989 62.5005 74.7613 62.5005C74.4753 62.5005 74.0854 62.3931 73.5863 62.1801C72.7447 61.8105 72.3258 61.3681 72.3258 60.8564C72.3258 60.6289 72.4387 60.2593 72.6682 59.7458C73.1947 58.5351 73.7648 57.2752 74.3769 55.9661L70.1234 48.8108C69.8392 48.3411 69.6953 47.9915 69.6953 47.7639C69.6953 47.3088 70.0797 46.8536 70.8484 46.3966C71.333 46.1126 71.7465 45.9688 72.0871 45.9688C72.2857 45.9688 72.4715 46.0252 72.6427 46.1399C72.8139 46.2546 72.9378 46.3711 73.0162 46.4931C73.0945 46.6151 73.2111 46.8026 73.3696 47.0593C74.6228 49.2096 75.5701 50.8045 76.2113 51.8441C76.2823 51.6165 76.9655 50.0853 78.2625 47.2523C78.3627 47.0247 78.4373 46.8609 78.4865 46.7607C78.5357 46.6606 78.614 46.5441 78.7215 46.4075C78.829 46.2728 78.9456 46.1763 79.0749 46.1199C79.2024 46.0634 79.3591 46.0343 79.5449 46.0343C79.8582 46.0343 80.2426 46.1344 80.698 46.3329L80.7035 46.3311Z" fill="#00267A"/>
<path d="M67.0741 45.0973C68.1808 45.0973 69.0779 44.2006 69.0779 43.0945C69.0779 41.9885 68.1808 41.0918 67.0741 41.0918C65.9674 41.0918 65.0703 41.9885 65.0703 43.0945C65.0703 44.2006 65.9674 45.0973 67.0741 45.0973Z" fill="#00267A"/>
<path d="M59.4015 27.0393C58.9643 28.4795 57.7256 29.774 56.6836 30.8136C55.5524 31.9406 54.2718 32.9146 52.8819 33.7012C51.6887 34.3766 50.4172 34.9119 49.102 35.2997C43.668 36.9019 38.0793 35.815 33.7656 32.8127C35.8496 32.8291 37.9718 32.5414 40.0739 31.9224C45.2401 30.3985 49.4098 27.1249 52.1259 22.9373C52.7798 21.9287 54.392 21.4771 55.5141 21.5318C58.2447 21.6628 60.1957 24.4194 59.4015 27.0393Z" fill="#0079FE"/>
<path d="M52.6039 6.65191C52.4345 7.13257 52.1868 7.56589 51.8808 7.93913C50.7441 9.32831 48.8058 9.7416 47.1318 9.09162C42.8218 7.41841 37.9434 7.10708 33.1616 8.51628C31.1068 9.12257 29.2105 10.0038 27.5 11.1144C29.5238 6.34421 33.5861 2.48619 38.9453 0.905843C42.6997 -0.20113 46.527 -0.0245244 49.9571 1.18077C49.968 1.18259 49.9808 1.18805 49.9899 1.19169C50.0027 1.19533 50.0154 1.19897 50.0263 1.20625C52.2323 2.00553 53.3854 4.43614 52.6021 6.65191H52.6039Z" fill="#0079FE"/>
<path d="M46.1964 27.2367C45.2091 28.1853 42.83 29.4998 39.6713 30.5394C37.7149 31.1821 35.5435 31.6209 33.5051 31.1056C31.7618 30.665 30.3209 29.1848 29.2224 27.8193C26.3552 24.2562 24.5044 17.9949 27.348 13.8948C28.8235 11.7664 31.2317 10.7595 33.5852 9.92021C34.1991 9.70173 36.2813 9.14461 38.9245 9.09545C39.6841 9.08088 40.4382 9.11001 41.1851 9.18102C36.3377 10.7231 33.5889 15.8647 35.0371 20.766C36.4543 25.569 41.3818 28.3819 46.1982 27.2349L46.1964 27.2367Z" fill="#0576DB"/>
<path d="M61.9004 22.8116C63.4246 22.8116 64.6602 21.5766 64.6602 20.0533C64.6602 18.5299 63.4246 17.2949 61.9004 17.2949C60.3762 17.2949 59.1406 18.5299 59.1406 20.0533C59.1406 21.5766 60.3762 22.8116 61.9004 22.8116Z" fill="#FF5F57"/>
<path d="M57.2754 9.46588C58.7996 9.46588 60.0352 8.23093 60.0352 6.70755C60.0352 5.18416 58.7996 3.94922 57.2754 3.94922C55.7512 3.94922 54.5156 5.18416 54.5156 6.70755C54.5156 8.23093 55.7512 9.46588 57.2754 9.46588Z" fill="#FF9240"/>
</svg>
