<svg width="140" height="29" viewBox="0 0 140 29" fill="none" xmlns="http://www.w3.org/2000/svg">
<path d="M108.243 21.8825H111.289V1.28956H108.243V21.8825ZM135.679 8.70737L132.187 17.6358H132.082L128.458 8.70737H125.177L130.612 21.1857L127.515 28.1274H130.69L139.066 8.70737H135.679ZM118.404 19.5433C117.405 19.5433 116.015 19.0409 116.015 17.7939C116.015 16.2059 117.747 15.5964 119.243 15.5964C120.582 15.5964 121.214 15.888 122.027 16.285C121.79 18.1925 120.163 19.5433 118.404 19.5433ZM118.772 8.25765C116.566 8.25765 114.281 9.2378 113.337 11.4106L116.041 12.5489C116.619 11.4106 117.694 11.0383 118.824 11.0383C120.399 11.0383 122.001 11.9921 122.027 13.6888V13.8997C121.475 13.5817 120.295 13.1057 118.85 13.1057C115.936 13.1057 112.968 14.7217 112.968 17.7412C112.968 20.4971 115.358 22.2729 118.035 22.2729C120.084 22.2729 121.214 21.3455 121.922 20.2583H122.027V21.8479H124.967V13.9524C124.967 10.297 122.263 8.25765 118.772 8.25765M99.9467 11.2146H95.6143V4.15587H99.9467C102.224 4.15587 103.517 6.0585 103.517 7.68439C103.517 9.28063 102.224 11.2146 99.9467 11.2146ZM99.8683 1.28956H92.5698V21.8825H95.6143V14.0809H99.8683C103.244 14.0809 106.563 11.6132 106.563 7.68439C106.563 3.75557 103.244 1.28956 99.8683 1.28956M60.0684 19.5466C57.9643 19.5466 56.2029 17.7692 56.2029 15.3279C56.2029 12.8602 57.9643 11.0548 60.0684 11.0548C62.1465 11.0548 63.7756 12.8602 63.7756 15.3279C63.7756 17.7692 62.1465 19.5466 60.0684 19.5466ZM63.5667 9.86048H63.4606C62.7766 9.03848 61.4625 8.29554 59.8056 8.29554C56.3335 8.29554 53.1519 11.3727 53.1519 15.3279C53.1519 19.2551 56.3335 22.3075 59.8056 22.3075C61.4625 22.3075 62.7766 21.5646 63.4606 20.7146H63.5667V21.7244C63.5667 24.4045 62.1465 25.8377 59.8578 25.8377C57.9904 25.8377 56.833 24.4836 56.3596 23.342L53.7036 24.4572C54.466 26.3154 56.4918 28.5969 59.8578 28.5969C63.4345 28.5969 66.4593 26.4735 66.4593 21.2994V8.7189H63.5667V9.86048ZM68.5635 21.8825H71.6145V1.28791H68.5635V21.8825ZM76.1102 15.089C76.0318 12.3825 78.1882 11.0021 79.739 11.0021C80.9503 11.0021 81.9754 11.6116 82.3166 12.4879L76.1102 15.089ZM85.5782 12.7531C85.0003 11.1882 83.2373 8.29554 79.6346 8.29554C76.0579 8.29554 73.0869 11.1338 73.0869 15.3015C73.0869 19.2287 76.0318 22.3075 79.9757 22.3075C83.1589 22.3075 85.0003 20.3439 85.7626 19.2023L83.3956 17.6094C82.6072 18.7773 81.5282 19.5466 79.9757 19.5466C78.4249 19.5466 77.3198 18.8301 76.6097 17.4249L85.8932 13.5488L85.5782 12.7531ZM11.6167 10.4453V13.417H18.6639C18.4533 15.089 17.9015 16.3097 17.0608 17.158C16.034 18.1942 14.4294 19.3358 11.6167 19.3358C7.27612 19.3358 3.88397 15.8056 3.88397 11.4271C3.88397 7.04689 7.27612 3.51836 11.6167 3.51836C13.9576 3.51836 15.6667 4.44744 16.9286 5.64174L19.0067 3.54472C17.2437 1.84635 14.9044 0.544976 11.6167 0.544976C5.67309 0.544976 0.67627 5.42923 0.67627 11.4271C0.67627 17.4249 5.67309 22.3075 11.6167 22.3075C14.8244 22.3075 17.2437 21.245 19.1373 19.2551C21.0847 17.2915 21.6887 14.5322 21.6887 12.3018C21.6887 11.6116 21.6365 10.9757 21.5304 10.4453H11.6167ZM29.7022 19.5466C27.5981 19.5466 25.7828 17.7955 25.7828 15.3015C25.7828 12.7795 27.5981 11.0548 29.7022 11.0548C31.8048 11.0548 33.62 12.7795 33.62 15.3015C33.62 17.7955 31.8048 19.5466 29.7022 19.5466ZM29.7022 8.29554C25.8612 8.29554 22.7318 11.2409 22.7318 15.3015C22.7318 19.3358 25.8612 22.3075 29.7022 22.3075C33.5417 22.3075 36.671 19.3358 36.671 15.3015C36.671 11.2409 33.5417 8.29554 29.7022 8.29554ZM44.9049 19.5466C42.8007 19.5466 40.9855 17.7955 40.9855 15.3015C40.9855 12.7795 42.8007 11.0548 44.9049 11.0548C47.0091 11.0548 48.8227 12.7795 48.8227 15.3015C48.8227 17.7955 47.0091 19.5466 44.9049 19.5466ZM44.9049 8.29554C41.0655 8.29554 37.9361 11.2409 37.9361 15.3015C37.9361 19.3358 41.0655 22.3075 44.9049 22.3075C48.7444 22.3075 51.8737 19.3358 51.8737 15.3015C51.8737 11.2409 48.7444 8.29554 44.9049 8.29554Z" fill="black"/>
</svg>
