<svg width="226" height="76" viewBox="0 0 226 76" fill="none" xmlns="http://www.w3.org/2000/svg">
<rect x="1.72803" y="1.51905" width="222.545" height="72.9351" rx="10.2857" fill="white"/>
<rect x="1.72803" y="1.51905" width="222.545" height="72.9351" rx="10.2857" stroke="black" stroke-width="1.87013"/>
<path d="M46.9935 39.4135C47.0162 37.6931 47.4843 36.0064 48.3541 34.5101C49.224 33.0138 50.4674 31.7566 51.9686 30.8556C51.0149 29.5258 49.7568 28.4315 48.2941 27.6595C46.8314 26.8875 45.2045 26.4591 43.5426 26.4083C39.9974 26.045 36.5606 28.4794 34.754 28.4794C32.9125 28.4794 30.131 26.4444 27.1358 26.5045C25.1985 26.5656 23.3103 27.1157 21.6554 28.101C20.0005 29.0863 18.6353 30.4734 17.6927 32.127C13.6098 39.0285 16.6553 49.1715 20.5665 54.7502C22.5233 57.4819 24.8103 60.5333 27.8028 60.4251C30.7311 60.3065 31.8248 58.602 35.3595 58.602C38.8614 58.602 39.8875 60.4251 42.9407 60.3563C46.0829 60.3065 48.0626 57.6124 49.9509 54.8548C51.3569 52.9084 52.4388 50.7571 53.1565 48.4808C51.331 47.727 49.7731 46.4652 48.6771 44.8528C47.5812 43.2403 46.9956 41.3486 46.9935 39.4135Z" fill="black"/>
<path d="M41.2217 22.7398C42.935 20.7318 43.779 18.1509 43.5746 15.5452C40.9571 15.8136 38.5393 17.0349 36.8029 18.9658C35.9539 19.9091 35.3037 21.0066 34.8894 22.1954C34.4751 23.3842 34.3048 24.641 34.3883 25.8941C35.6976 25.9073 36.9928 25.6302 38.1764 25.0838C39.36 24.5375 40.4013 23.736 41.2217 22.7398Z" fill="black"/>
<path d="M47.2396 39.8686C47.2623 38.1482 47.7303 36.4614 48.6002 34.9651C49.4701 33.4689 50.7135 32.2117 52.2147 31.3106C51.261 29.9809 50.0028 28.8865 48.5402 28.1145C47.0775 27.3425 45.4506 26.9141 43.7887 26.8634C40.2435 26.5001 36.8067 28.9345 35.0001 28.9345C33.1586 28.9345 30.3771 26.8995 27.3819 26.9596C25.4445 27.0207 23.5564 27.5707 21.9015 28.5561C20.2466 29.5414 18.8814 30.9285 17.9388 32.5821C13.8559 39.4836 16.9014 49.6265 20.8126 55.2052C22.7694 57.937 25.0564 60.9884 28.0489 60.8802C30.9772 60.7616 32.0709 59.0571 35.6056 59.0571C39.1075 59.0571 40.1336 60.8802 43.1868 60.8114C46.329 60.7616 48.3087 58.0675 50.197 55.3099C51.603 53.3635 52.6849 51.2122 53.4026 48.9359C51.577 48.182 50.0192 46.9203 48.9232 45.3078C47.8273 43.6954 47.2417 41.8037 47.2396 39.8686Z" fill="black"/>
<path d="M41.4678 23.1948C43.1811 21.1868 44.0251 18.6059 43.8207 16.0001C41.2032 16.2685 38.7854 17.4899 37.049 19.4208C36.2 20.3641 35.5498 21.4615 35.1355 22.6503C34.7212 23.8391 34.5509 25.096 34.6344 26.3491C35.9436 26.3622 37.2388 26.0852 38.4225 25.5388C39.6061 24.9924 40.6474 24.1909 41.4678 23.1948Z" fill="black"/>
<path d="M67.4661 13.5879H71.3123C72.9563 13.5879 74.1894 14.0616 75.0114 15.0088C75.8389 15.9561 76.2527 17.3361 76.2527 19.1489C76.2527 20.9618 75.8389 22.3473 75.0114 23.3054C74.184 24.2581 72.9509 24.7344 71.3123 24.7344H67.4661V13.5879ZM69.3198 15.1476V23.1747H71.1081C72.2078 23.1747 73.0217 22.8427 73.5497 22.1785C74.0832 21.5143 74.35 20.5127 74.35 19.1734C74.35 17.8233 74.0832 16.8162 73.5497 16.152C73.0162 15.4824 72.2024 15.1476 71.1081 15.1476H69.3198Z" fill="black"/>
<path d="M82.1158 15.9561C83.259 15.9561 84.1818 16.3045 84.884 17.0013C85.5918 17.6981 85.9456 18.6454 85.9456 19.843V20.9618C85.9456 22.1921 85.5945 23.153 84.8922 23.8444C84.1899 24.5357 83.2645 24.8814 82.1158 24.8814C80.9508 24.8814 80.0171 24.5385 79.3149 23.8525C78.6181 23.1666 78.2696 22.2057 78.2696 20.9699V19.8512C78.2696 18.6808 78.6262 17.739 79.3394 17.0258C80.0525 16.3126 80.978 15.9561 82.1158 15.9561ZM82.124 17.4178C81.4925 17.4178 80.9971 17.6546 80.6378 18.1282C80.2785 18.5964 80.0988 19.2007 80.0988 19.941V20.9046C80.0988 21.6559 80.273 22.2629 80.6214 22.7256C80.9753 23.1884 81.4761 23.4197 82.124 23.4197C82.7663 23.4197 83.259 23.1884 83.602 22.7256C83.9504 22.2629 84.1246 21.6559 84.1246 20.9046V19.941C84.1246 19.1952 83.9477 18.5882 83.5938 18.12C83.24 17.6519 82.75 17.4178 82.124 17.4178Z" fill="black"/>
<path d="M99.2561 16.1031L96.986 24.7344H95.1405L93.3358 18.365H93.2868L91.5148 24.7344H89.6611L87.293 16.1031H89.2446L90.6329 22.6848H90.7145L92.4539 16.1031H94.1605L95.9489 22.6848H96.0305L97.4432 16.1031H99.2561Z" fill="black"/>
<path d="M101.053 24.7344V16.1031H102.833V17.6546H102.923C102.972 17.5021 103.031 17.3579 103.102 17.2218C103.178 17.0802 103.287 16.9305 103.429 16.7727C103.57 16.6148 103.731 16.4814 103.911 16.3725C104.09 16.2582 104.319 16.1629 104.597 16.0867C104.88 16.0105 105.187 15.9724 105.519 15.9724C106.418 15.9724 107.125 16.2228 107.642 16.7237C108.165 17.2191 108.426 17.9458 108.426 18.904V24.7344H106.614V19.4348C106.614 18.7978 106.461 18.3187 106.156 17.9975C105.851 17.6764 105.435 17.5158 104.907 17.5158C104.259 17.5158 103.756 17.739 103.396 18.1854C103.042 18.6318 102.865 19.217 102.865 19.941V24.7344H101.053Z" fill="black"/>
<path d="M111.17 24.7344V13H112.983V24.7344H111.17Z" fill="black"/>
<path d="M119.205 15.9561C120.349 15.9561 121.271 16.3045 121.974 17.0013C122.681 17.6981 123.035 18.6454 123.035 19.843V20.9618C123.035 22.1921 122.684 23.153 121.982 23.8444C121.28 24.5357 120.354 24.8814 119.205 24.8814C118.04 24.8814 117.107 24.5385 116.405 23.8525C115.708 23.1666 115.359 22.2057 115.359 20.9699V19.8512C115.359 18.6808 115.716 17.739 116.429 17.0258C117.142 16.3126 118.068 15.9561 119.205 15.9561ZM119.214 17.4178C118.582 17.4178 118.087 17.6546 117.727 18.1282C117.368 18.5964 117.188 19.2007 117.188 19.941V20.9046C117.188 21.6559 117.363 22.2629 117.711 22.7256C118.065 23.1884 118.566 23.4197 119.214 23.4197C119.856 23.4197 120.349 23.1884 120.692 22.7256C121.04 22.2629 121.214 21.6559 121.214 20.9046V19.941C121.214 19.1952 121.037 18.5882 120.683 18.12C120.33 17.6519 119.84 17.4178 119.214 17.4178Z" fill="black"/>
<path d="M127.731 24.8651C126.887 24.8651 126.204 24.6256 125.681 24.1465C125.164 23.6674 124.905 23.0278 124.905 22.2275C124.905 21.449 125.169 20.8284 125.697 20.3657C126.231 19.9029 126.985 19.6716 127.959 19.6716H130.14V18.8631C130.14 18.3786 129.995 18.0166 129.707 17.7771C129.424 17.5321 129.026 17.4096 128.515 17.4096C127.633 17.4096 127.113 17.7362 126.955 18.3895H125.232C125.286 17.6437 125.594 17.0557 126.155 16.6257C126.721 16.1902 127.527 15.9724 128.572 15.9724C129.051 15.9724 129.486 16.0268 129.878 16.1357C130.276 16.2392 130.632 16.4025 130.948 16.6257C131.264 16.8434 131.509 17.1456 131.683 17.5321C131.857 17.9132 131.944 18.365 131.944 18.8876V24.7344H130.221V23.6157H130.14C129.927 23.9859 129.62 24.288 129.217 24.5221C128.819 24.7508 128.324 24.8651 127.731 24.8651ZM128.294 23.4606C128.811 23.4606 129.247 23.3054 129.601 22.9951C129.96 22.6793 130.14 22.2874 130.14 21.8192V20.8883H128.245C127.739 20.8883 127.358 21.0026 127.102 21.2313C126.851 21.4599 126.726 21.762 126.726 22.1377C126.726 22.5623 126.876 22.8889 127.175 23.1176C127.48 23.3462 127.853 23.4606 128.294 23.4606Z" fill="black"/>
<path d="M137.53 15.9887C138.134 15.9887 138.657 16.1139 139.098 16.3644C139.539 16.6148 139.843 16.9605 140.012 17.4014H140.102V13H141.915V24.7344H140.151V23.3544H140.061C139.931 23.7954 139.628 24.1547 139.155 24.4323C138.681 24.7099 138.131 24.8488 137.505 24.8488C136.509 24.8488 135.714 24.5167 135.121 23.8525C134.527 23.1884 134.231 22.2901 134.231 21.1578V19.6797C134.231 18.5474 134.53 17.6491 135.129 16.985C135.733 16.3208 136.534 15.9887 137.53 15.9887ZM138.036 17.4749C137.426 17.4749 136.947 17.6927 136.599 18.1282C136.25 18.5583 136.076 19.1626 136.076 19.941V20.8883C136.076 21.6722 136.253 22.2819 136.607 22.7175C136.961 23.1475 137.451 23.3626 138.077 23.3626C138.692 23.3626 139.182 23.153 139.547 22.7338C139.917 22.3092 140.102 21.7321 140.102 21.0026V19.6961C140.102 19.0373 139.909 18.5038 139.522 18.0955C139.136 17.6818 138.64 17.4749 138.036 17.4749Z" fill="black"/>
<path d="M151.869 15.9561C153.012 15.9561 153.935 16.3045 154.637 17.0013C155.345 17.6981 155.699 18.6454 155.699 19.843V20.9618C155.699 22.1921 155.348 23.153 154.646 23.8444C153.943 24.5357 153.018 24.8814 151.869 24.8814C150.704 24.8814 149.771 24.5385 149.068 23.8525C148.371 23.1666 148.023 22.2057 148.023 20.9699V19.8512C148.023 18.6808 148.38 17.739 149.093 17.0258C149.806 16.3126 150.731 15.9561 151.869 15.9561ZM151.877 17.4178C151.246 17.4178 150.75 17.6546 150.391 18.1282C150.032 18.5964 149.852 19.2007 149.852 19.941V20.9046C149.852 21.6559 150.026 22.2629 150.375 22.7256C150.729 23.1884 151.23 23.4197 151.877 23.4197C152.52 23.4197 153.012 23.1884 153.355 22.7256C153.704 22.2629 153.878 21.6559 153.878 20.9046V19.941C153.878 19.1952 153.701 18.5882 153.347 18.12C152.993 17.6519 152.503 17.4178 151.877 17.4178Z" fill="black"/>
<path d="M158.034 24.7344V16.1031H159.815V17.6546H159.904C159.953 17.5021 160.013 17.3579 160.084 17.2218C160.16 17.0802 160.269 16.9305 160.411 16.7727C160.552 16.6148 160.713 16.4814 160.893 16.3725C161.072 16.2582 161.301 16.1629 161.578 16.0867C161.862 16.0105 162.169 15.9724 162.501 15.9724C163.399 15.9724 164.107 16.2228 164.624 16.7237C165.147 17.2191 165.408 17.9458 165.408 18.904V24.7344H163.595V19.4348C163.595 18.7978 163.443 18.3187 163.138 17.9975C162.833 17.6764 162.417 17.5158 161.889 17.5158C161.241 17.5158 160.737 17.739 160.378 18.1854C160.024 18.6318 159.847 19.217 159.847 19.941V24.7344H158.034Z" fill="black"/>
<path d="M172.423 16.1602V14.0044H174.195V16.1602H176.13V17.5811H174.195V22.1622C174.195 22.6249 174.29 22.9407 174.481 23.1094C174.677 23.2782 175.022 23.3626 175.518 23.3626C175.806 23.3626 176.043 23.3517 176.228 23.3299V24.7181C175.934 24.7671 175.548 24.7916 175.069 24.7916C174.051 24.7916 173.351 24.6038 172.97 24.2282C172.589 23.8471 172.398 23.2074 172.398 22.3092V17.5811H171.084V16.1602H172.423Z" fill="black"/>
<path d="M178.417 24.7344V13H180.221V17.6546H180.311C180.366 17.4804 180.45 17.3062 180.564 17.132C180.679 16.9523 180.834 16.7727 181.03 16.593C181.231 16.4079 181.495 16.2582 181.822 16.1439C182.154 16.0296 182.524 15.9724 182.932 15.9724C183.803 15.9724 184.5 16.2255 185.023 16.7318C185.551 17.2327 185.815 17.9594 185.815 18.9121V24.7344H184.01V19.4429C184.01 18.806 183.85 18.3269 183.528 18.0057C183.213 17.6791 182.788 17.5158 182.255 17.5158C181.618 17.5158 181.12 17.7417 180.76 18.1935C180.401 18.6399 180.221 19.2224 180.221 19.941V24.7344H178.417Z" fill="black"/>
<path d="M191.899 24.8814C190.717 24.8814 189.786 24.5385 189.106 23.8525C188.425 23.1666 188.085 22.2166 188.085 21.0026V19.8349C188.085 18.6372 188.431 17.6927 189.122 17.0013C189.819 16.3045 190.709 15.9561 191.792 15.9561C192.887 15.9561 193.774 16.3099 194.454 17.0176C195.14 17.7199 195.483 18.659 195.483 19.8349V20.8475H189.882V21.2721C189.882 21.909 190.061 22.4289 190.421 22.8318C190.78 23.2292 191.27 23.4279 191.89 23.4279C192.348 23.4279 192.731 23.3326 193.042 23.1421C193.358 22.9515 193.548 22.7175 193.613 22.4398H195.385C195.358 22.7066 195.268 22.976 195.116 23.2482C194.964 23.5204 194.751 23.7818 194.479 24.0322C194.212 24.2826 193.853 24.4867 193.401 24.6446C192.949 24.8025 192.448 24.8814 191.899 24.8814ZM189.882 19.6634H193.711V19.5491C193.711 18.9012 193.537 18.3786 193.189 17.9812C192.84 17.5838 192.378 17.3851 191.801 17.3851C191.224 17.3851 190.758 17.5838 190.404 17.9812C190.056 18.3786 189.882 18.9012 189.882 19.5491V19.6634Z" fill="black"/>
<path d="M69.7727 56.5174H66L73.676 34.2244H77.8243L85.4839 56.5174H81.5643L79.5881 50.3439H71.7651L69.7727 56.5174ZM75.7665 38.0787H75.6195L72.5981 47.5022H78.7552L75.7665 38.0787Z" fill="black"/>
<path d="M95.8959 56.7624C94.8071 56.7624 93.8435 56.5283 93.0051 56.0601C92.1668 55.581 91.5135 54.9332 91.0453 54.1166H90.9147V62.2499H87.289V39.2546H90.8167V41.786H90.9473C91.4373 40.9368 92.1123 40.2672 92.9725 39.7772C93.8435 39.2764 94.8452 39.026 95.9775 39.026C97.9591 39.026 99.5597 39.7446 100.779 41.1818C101.999 42.6081 102.608 44.5842 102.608 47.1102V48.6454C102.608 51.1714 101.993 53.1585 100.763 54.6066C99.5433 56.0438 97.921 56.7624 95.8959 56.7624ZM95.0629 53.7736C96.2388 53.7736 97.1752 53.3109 97.872 52.3854C98.5797 51.46 98.9336 50.148 98.9336 48.4494V47.2409C98.9336 45.575 98.5852 44.2848 97.8884 43.3702C97.2024 42.4448 96.2388 41.982 94.9976 41.982C93.7346 41.982 92.7329 42.4557 91.9926 43.4029C91.2522 44.3502 90.882 45.624 90.882 47.2246V48.4494C90.882 50.0826 91.2576 51.3783 92.0089 52.3364C92.7602 53.2946 93.7782 53.7736 95.0629 53.7736Z" fill="black"/>
<path d="M114.327 56.7624C113.238 56.7624 112.274 56.5283 111.436 56.0601C110.598 55.581 109.944 54.9332 109.476 54.1166H109.346V62.2499H105.72V39.2546H109.248V41.786H109.378C109.868 40.9368 110.543 40.2672 111.403 39.7772C112.274 39.2764 113.276 39.026 114.408 39.026C116.39 39.026 117.991 39.7446 119.21 41.1818C120.429 42.6081 121.039 44.5842 121.039 47.1102V48.6454C121.039 51.1714 120.424 53.1585 119.194 54.6066C117.974 56.0438 116.352 56.7624 114.327 56.7624ZM113.494 53.7736C114.67 53.7736 115.606 53.3109 116.303 52.3854C117.011 51.46 117.365 50.148 117.365 48.4494V47.2409C117.365 45.575 117.016 44.2848 116.319 43.3702C115.633 42.4448 114.67 41.982 113.429 41.982C112.166 41.982 111.164 42.4557 110.423 43.4029C109.683 44.3502 109.313 45.624 109.313 47.2246V48.4494C109.313 50.0826 109.689 51.3783 110.44 52.3364C111.191 53.2946 112.209 53.7736 113.494 53.7736Z" fill="black"/>
<path d="M128.553 50.3276H132.178C132.265 51.3511 132.744 52.2058 133.616 52.8917C134.497 53.5668 135.69 53.9043 137.192 53.9043C138.629 53.9043 139.756 53.594 140.573 52.9734C141.389 52.3419 141.798 51.4981 141.798 50.4419C141.798 49.6036 141.515 48.9394 140.949 48.4494C140.382 47.9486 139.49 47.5512 138.27 47.2572L134.612 46.3426C133.85 46.1684 133.158 45.9289 132.538 45.624C131.917 45.3192 131.345 44.9327 130.823 44.4645C130.3 43.9854 129.892 43.3975 129.598 42.7006C129.304 41.9929 129.157 41.2035 129.157 40.3325C129.157 38.9606 129.527 37.7684 130.267 36.7558C131.019 35.7324 131.993 34.9757 133.191 34.4857C134.399 33.9849 135.739 33.7344 137.209 33.7344C139.462 33.7344 141.351 34.3169 142.876 35.482C144.4 36.6361 145.184 38.2203 145.227 40.2345H141.667C141.58 39.2219 141.15 38.3945 140.377 37.7521C139.615 37.0988 138.542 36.7722 137.16 36.7722C135.864 36.7722 134.824 37.0661 134.04 37.6541C133.267 38.2311 132.881 39.0314 132.881 40.0549C132.881 41.5683 133.909 42.5591 135.967 43.0273L139.609 43.9255C140.502 44.1433 141.286 44.41 141.961 44.7258C142.636 45.0306 143.251 45.4226 143.807 45.9017C144.362 46.3807 144.781 46.9741 145.064 47.6819C145.358 48.3896 145.505 49.2007 145.505 50.1153C145.505 52.2602 144.716 53.937 143.137 55.1455C141.569 56.3541 139.495 56.9583 136.915 56.9583C135.717 56.9583 134.634 56.8223 133.664 56.5501C132.706 56.2779 131.917 55.924 131.296 55.4885C130.687 55.053 130.169 54.5412 129.745 53.9533C129.331 53.3653 129.032 52.7719 128.847 52.1731C128.672 51.5743 128.574 50.9591 128.553 50.3276Z" fill="black"/>
<path d="M149.923 39.2546V35.0573H153.484V39.2546H156.848V42.1617H153.484V51.3729C153.484 52.2983 153.674 52.9298 154.055 53.2673C154.447 53.6049 155.139 53.7736 156.129 53.7736C156.532 53.7736 156.804 53.7627 156.946 53.741V56.5174C156.489 56.5936 155.917 56.6317 155.231 56.6317C153.837 56.6317 152.749 56.4521 151.965 56.0928C151.181 55.7335 150.636 55.2054 150.332 54.5086C150.027 53.8117 149.874 52.8645 149.874 51.6668V42.1617H147.49V39.2546H149.923Z" fill="black"/>
<path d="M160.972 41.2471C162.333 39.7228 164.222 38.9606 166.639 38.9606C169.056 38.9606 170.935 39.7228 172.274 41.2471C173.624 42.7605 174.299 44.7312 174.299 47.1592V48.5474C174.299 51.0408 173.629 53.0441 172.29 54.5576C170.962 56.0601 169.078 56.8114 166.639 56.8114C164.2 56.8114 162.306 56.0601 160.956 54.5576C159.617 53.0441 158.947 51.0408 158.947 48.5474V47.1592C158.947 44.7421 159.622 42.7714 160.972 41.2471ZM169.628 43.3212C168.942 42.3522 167.946 41.8677 166.639 41.8677C165.333 41.8677 164.331 42.3522 163.634 43.3212C162.948 44.2903 162.605 45.5859 162.605 47.2082V48.5311C162.605 50.1425 162.948 51.4382 163.634 52.4181C164.331 53.398 165.333 53.888 166.639 53.888C167.946 53.888 168.942 53.398 169.628 52.4181C170.314 51.4382 170.657 50.1425 170.657 48.5311V47.2082C170.657 45.575 170.314 44.2794 169.628 43.3212Z" fill="black"/>
<path d="M177.362 56.5174V39.2546H180.987V41.5247H181.118C181.39 40.8715 181.875 40.289 182.571 39.7772C183.268 39.2655 184.161 39.0096 185.25 39.0096C185.729 39.0096 186.137 39.0423 186.475 39.1076V42.3087C186.148 42.2216 185.631 42.178 184.923 42.178C183.551 42.178 182.561 42.5482 181.951 43.2886C181.341 44.029 181.036 45.0306 181.036 46.2936V56.5174H177.362Z" fill="black"/>
<path d="M195.27 56.8114C192.951 56.8114 191.111 56.0873 189.75 54.6392C188.389 53.1802 187.708 51.1823 187.708 48.6454V46.8979C187.708 44.4808 188.378 42.5536 189.717 41.1164C191.056 39.6792 192.858 38.9606 195.123 38.9606C197.409 38.9606 199.211 39.6956 200.529 41.1654C201.846 42.6353 202.505 44.6006 202.505 47.0612V48.7108H191.285V49.1191C191.285 50.578 191.65 51.7485 192.379 52.6304C193.109 53.5123 194.089 53.9533 195.319 53.9533C196.233 53.9533 196.996 53.741 197.605 53.3163C198.215 52.8917 198.634 52.3038 198.863 51.5525H202.309C202.026 53.0659 201.285 54.3235 200.088 55.3252C198.89 56.316 197.284 56.8114 195.27 56.8114ZM191.285 46.1793H198.961V46.1467C198.961 44.8945 198.607 43.8548 197.899 43.0273C197.192 42.1889 196.272 41.7697 195.139 41.7697C193.996 41.7697 193.065 42.1889 192.346 43.0273C191.639 43.8548 191.285 44.8945 191.285 46.1467V46.1793Z" fill="black"/>
</svg>
