<svg width="120" height="40" viewBox="0 0 120 40" fill="none" xmlns="http://www.w3.org/2000/svg">
<rect x="0.5" y="0.5" width="119" height="39" rx="5.5" fill="white"/>
<rect x="0.5" y="0.5" width="119" height="39" rx="5.5" stroke="black"/>
<path d="M17.8051 19.4617L8.08984 30.0059C8.09076 30.0078 8.09076 30.0106 8.09167 30.0125C8.39005 31.1574 9.41203 32 10.6256 32C11.1111 32 11.5664 31.8656 11.957 31.6305L11.988 31.6118L22.9232 25.1593L17.8051 19.4617Z" fill="#EA4335"/>
<path d="M27.6312 17.6662L27.6221 17.6597L22.9009 14.8613L17.582 19.7014L22.9201 25.1582L27.6157 22.3878C28.4388 21.9324 28.9981 21.045 28.9981 20.0223C28.9981 19.0052 28.447 18.1225 27.6312 17.6662Z" fill="#FBBC04"/>
<path d="M8.08942 9.99333C8.03102 10.2135 8 10.445 8 10.6838V29.3164C8 29.5552 8.03102 29.7867 8.09034 30.0059L18.1386 19.7314L8.08942 9.99333Z" fill="#4285F4"/>
<path d="M17.8771 19.9999L22.9049 14.8594L11.9825 8.38352C11.5856 8.13998 11.122 8.00001 10.6265 8.00001C9.41295 8.00001 8.38914 8.84448 8.09076 9.99035C8.09076 9.99129 8.08984 9.99222 8.08984 9.99315L17.8771 19.9999Z" fill="#34A853"/>
<path d="M41.8339 9.47619C41.8339 10.2433 41.6063 10.8545 41.1512 11.3096C40.6397 11.8517 39.9672 12.1228 39.1336 12.1228C38.3358 12.1228 37.6608 11.8466 37.1084 11.2943C36.5561 10.7419 36.2799 10.0618 36.2799 9.25373C36.2799 8.44569 36.5561 7.76551 37.1084 7.21318C37.6608 6.66085 38.3358 6.38469 39.1336 6.38469C39.5376 6.38469 39.9187 6.45629 40.2766 6.59948C40.6346 6.74268 40.9287 6.94469 41.1588 7.20551L40.6525 7.71181C40.4838 7.50725 40.2639 7.34871 39.9928 7.23619C39.7269 7.11857 39.4405 7.05976 39.1336 7.05976C38.5353 7.05976 38.029 7.26688 37.6147 7.68113C37.2056 8.10049 37.001 8.62469 37.001 9.25373C37.001 9.88277 37.2056 10.407 37.6147 10.8263C38.029 11.2406 38.5353 11.4477 39.1336 11.4477C39.6808 11.4477 40.136 11.2943 40.4991 10.9874C40.8622 10.6806 41.0719 10.2587 41.1281 9.72167H39.1336V9.06195H41.7955C41.8211 9.20514 41.8339 9.34323 41.8339 9.47619ZM45.898 6.50743V7.1825H43.3972V8.92387H45.6525V9.58359H43.3972V11.325H45.898V12H42.6914V6.50743H45.898ZM48.7209 7.1825V12H48.0152V7.1825H46.4809V6.50743H50.2552V7.1825H48.7209ZM53.3832 12H52.6775V6.50743H53.3832V12ZM56.3622 7.1825V12H55.6564V7.1825H54.1222V6.50743H57.8964V7.1825H56.3622ZM65.5465 9.25373C65.5465 10.0669 65.2754 10.7471 64.7333 11.2943C64.1861 11.8466 63.5161 12.1228 62.7234 12.1228C61.9256 12.1228 61.2557 11.8466 60.7136 11.2943C60.1715 10.7471 59.9004 10.0669 59.9004 9.25373C59.9004 8.44058 60.1715 7.7604 60.7136 7.21318C61.2557 6.66085 61.9256 6.38469 62.7234 6.38469C63.5213 6.38469 64.1912 6.66341 64.7333 7.22085C65.2754 7.76807 65.5465 8.44569 65.5465 9.25373ZM60.6215 9.25373C60.6215 9.88788 60.821 10.4121 61.2199 10.8263C61.6239 11.2406 62.1251 11.4477 62.7234 11.4477C63.3218 11.4477 63.8204 11.2406 64.2193 10.8263C64.6234 10.4172 64.8254 9.893 64.8254 9.25373C64.8254 8.61446 64.6234 8.09026 64.2193 7.68113C63.8204 7.26688 63.3218 7.05976 62.7234 7.05976C62.1251 7.05976 61.6239 7.26688 61.2199 7.68113C60.821 8.09537 60.6215 8.61957 60.6215 9.25373ZM67.0851 12H66.3793V6.50743H67.2385L69.9081 10.7803H69.9388L69.9081 9.72167V6.50743H70.6138V12H69.8774L67.0851 7.52003H67.0544L67.0851 8.57866V12Z" fill="black"/>
<path d="M93.5142 31.4097H95.143V20.3982H93.5142V31.4097ZM108.185 24.3646L106.318 29.1389H106.262L104.324 24.3646H102.57L105.475 31.0371L103.82 34.749H105.517L109.996 24.3646H108.185ZM98.948 30.1589C98.4137 30.1589 97.67 29.8902 97.67 29.2234C97.67 28.3743 98.5962 28.0484 99.3966 28.0484C100.112 28.0484 100.45 28.2043 100.885 28.4166C100.758 29.4366 99.8881 30.1589 98.948 30.1589ZM99.1443 24.1242C97.9651 24.1242 96.743 24.6483 96.2385 25.8101L97.684 26.4188C97.993 25.8101 98.5682 25.611 99.1723 25.611C100.015 25.611 100.871 26.1211 100.885 27.0283V27.1411C100.59 26.9711 99.9588 26.7165 99.1862 26.7165C97.6281 26.7165 96.0412 27.5806 96.0412 29.1952C96.0412 30.6689 97.3191 31.6184 98.7507 31.6184C99.8461 31.6184 100.45 31.1225 100.829 30.5412H100.885V31.3912H102.457V27.1693C102.457 25.2147 101.011 24.1242 99.1443 24.1242ZM89.0782 25.7053H86.7615V21.9309H89.0782C90.2959 21.9309 90.9872 22.9482 90.9872 23.8176C90.9872 24.6712 90.2959 25.7053 89.0782 25.7053ZM89.0363 20.3982H85.1336V31.4097H86.7615V27.238H89.0363C90.8414 27.238 92.616 25.9185 92.616 23.8176C92.616 21.7168 90.8414 20.3982 89.0363 20.3982ZM67.7544 30.1606C66.6292 30.1606 65.6874 29.2102 65.6874 27.9048C65.6874 26.5853 66.6292 25.6199 67.7544 25.6199C68.8656 25.6199 69.7367 26.5853 69.7367 27.9048C69.7367 29.2102 68.8656 30.1606 67.7544 30.1606ZM69.625 24.9812H69.5683C69.2025 24.5417 68.4998 24.1444 67.6139 24.1444C65.7572 24.1444 64.056 25.7899 64.056 27.9048C64.056 30.0047 65.7572 31.6369 67.6139 31.6369C68.4998 31.6369 69.2025 31.2397 69.5683 30.7852H69.625V31.3251C69.625 32.7583 68.8656 33.5246 67.6418 33.5246C66.6432 33.5246 66.0243 32.8005 65.7712 32.1901L64.351 32.7865C64.7586 33.7801 65.8419 35 67.6418 35C69.5543 35 71.1718 33.8646 71.1718 31.0979V24.3708H69.625V24.9812ZM72.2969 31.4097H73.9283V20.3973H72.2969V31.4097ZM76.3323 27.7771C76.2904 26.3298 77.4435 25.5917 78.2727 25.5917C78.9204 25.5917 79.4686 25.9176 79.651 26.3862L76.3323 27.7771ZM81.395 26.528C81.086 25.6912 80.1433 24.1444 78.2168 24.1444C76.3043 24.1444 74.7157 25.6621 74.7157 27.8907C74.7157 29.9906 76.2904 31.6369 78.3993 31.6369C80.1014 31.6369 81.086 30.587 81.4937 29.9765L80.228 29.1248C79.8064 29.7493 79.2294 30.1606 78.3993 30.1606C77.57 30.1606 76.9791 29.7775 76.5994 29.0261L81.5635 26.9535L81.395 26.528ZM41.8462 25.2939V26.883H45.6145C45.5019 27.7771 45.2068 28.4298 44.7573 28.8834C44.2082 29.4375 43.3502 30.0479 41.8462 30.0479C39.5252 30.0479 37.7113 28.1602 37.7113 25.8189C37.7113 23.4767 39.5252 21.59 41.8462 21.59C43.0979 21.59 44.0118 22.0868 44.6866 22.7254L45.7978 21.6041C44.855 20.6959 43.6042 20 41.8462 20C38.668 20 35.9961 22.6118 35.9961 25.8189C35.9961 29.0261 38.668 31.6369 41.8462 31.6369C43.5614 31.6369 44.855 31.0688 45.8676 30.0047C46.9089 28.9548 47.2319 27.4793 47.2319 26.2867C47.2319 25.9176 47.204 25.5776 47.1472 25.2939H41.8462ZM51.5169 30.1606C50.3918 30.1606 49.4211 29.2243 49.4211 27.8907C49.4211 26.5421 50.3918 25.6199 51.5169 25.6199C52.6412 25.6199 53.6119 26.5421 53.6119 27.8907C53.6119 29.2243 52.6412 30.1606 51.5169 30.1606ZM51.5169 24.1444C49.463 24.1444 47.7897 25.7194 47.7897 27.8907C47.7897 30.0479 49.463 31.6369 51.5169 31.6369C53.57 31.6369 55.2433 30.0479 55.2433 27.8907C55.2433 25.7194 53.57 24.1444 51.5169 24.1444ZM59.6461 30.1606C58.521 30.1606 57.5503 29.2243 57.5503 27.8907C57.5503 26.5421 58.521 25.6199 59.6461 25.6199C60.7713 25.6199 61.7411 26.5421 61.7411 27.8907C61.7411 29.2243 60.7713 30.1606 59.6461 30.1606ZM59.6461 24.1444C57.5931 24.1444 55.9198 25.7194 55.9198 27.8907C55.9198 30.0479 57.5931 31.6369 59.6461 31.6369C61.6992 31.6369 63.3725 30.0479 63.3725 27.8907C63.3725 25.7194 61.6992 24.1444 59.6461 24.1444Z" fill="black"/>
</svg>
