<svg width="40" height="46" viewBox="0 0 40 46" fill="none" xmlns="http://www.w3.org/2000/svg">
<path d="M18.6492 21.9799L0.480469 41.699C0.482175 41.7025 0.482175 41.7078 0.483881 41.7113C1.0419 43.8524 2.95313 45.4282 5.22273 45.4282C6.13057 45.4282 6.9821 45.1769 7.71246 44.7372L7.77048 44.7023L28.2207 32.6352L18.6492 21.9799Z" fill="#EA4335"/>
<path d="M37.0291 18.622L37.0121 18.6098L28.1828 13.3764L18.2358 22.428L28.2187 32.6331L37.0001 27.452C38.5393 26.6004 39.5854 24.9409 39.5854 23.0283C39.5854 21.1262 38.5547 19.4753 37.0291 18.622Z" fill="#FBBC04"/>
<path d="M0.479733 4.27255C0.37052 4.68438 0.3125 5.11715 0.3125 5.56389V40.4091C0.3125 40.8559 0.37052 41.2886 0.48144 41.6987L19.273 22.4839L0.479733 4.27255Z" fill="#4285F4"/>
<path d="M18.783 22.9866L28.1856 13.3731L7.75926 1.26239C7.01695 0.806932 6.15007 0.545175 5.22346 0.545175C2.95386 0.545175 1.03921 2.12445 0.481198 4.26737C0.481198 4.26912 0.479492 4.27087 0.479492 4.27261L18.783 22.9866Z" fill="#34A853"/>
</svg>
