<svg width="225" height="76" viewBox="0 0 225 76" fill="none" xmlns="http://www.w3.org/2000/svg">
<rect x="1.28663" y="1.51905" width="222.545" height="72.9351" rx="10.2857" fill="white"/>
<rect x="1.28663" y="1.51905" width="222.545" height="72.9351" rx="10.2857" stroke="black" stroke-width="1.87013"/>
<path d="M33.6492 36.9799L15.4805 56.699C15.4822 56.7025 15.4822 56.7078 15.4839 56.7113C16.0419 58.8524 17.9531 60.4282 20.2227 60.4282C21.1306 60.4282 21.9821 60.1769 22.7125 59.7372L22.7705 59.7023L43.2207 47.6352L33.6492 36.9799Z" fill="#EA4335"/>
<path d="M52.0291 33.622L52.0121 33.6098L43.1828 28.3764L33.2358 37.428L43.2186 47.6331L52.0001 42.452C53.5393 41.6004 54.5854 39.9409 54.5854 38.0283C54.5854 36.1262 53.5547 34.4753 52.0291 33.622Z" fill="#FBBC04"/>
<path d="M15.4797 19.2728C15.3705 19.6846 15.3125 20.1174 15.3125 20.5641V55.4094C15.3125 55.8561 15.3705 56.2889 15.4814 56.699L34.273 37.4842L15.4797 19.2728Z" fill="#4285F4"/>
<path d="M33.783 37.9866L43.1856 28.3731L22.7593 16.2624C22.017 15.8069 21.1501 15.5452 20.2235 15.5452C17.9539 15.5452 16.0392 17.1244 15.4812 19.2674C15.4812 19.2691 15.4795 19.2709 15.4795 19.2726L33.783 37.9866Z" fill="#34A853"/>
<path d="M93.136 20.642C93.136 22.042 92.7207 23.1573 91.89 23.988C90.9567 24.9773 89.7293 25.472 88.208 25.472C86.752 25.472 85.52 24.968 84.512 23.96C83.504 22.952 83 21.7107 83 20.236C83 18.7613 83.504 17.52 84.512 16.512C85.52 15.504 86.752 15 88.208 15C88.9453 15 89.6407 15.1307 90.294 15.392C90.9473 15.6533 91.484 16.022 91.904 16.498L90.98 17.422C90.672 17.0487 90.2707 16.7593 89.776 16.554C89.2907 16.3393 88.768 16.232 88.208 16.232C87.116 16.232 86.192 16.61 85.436 17.366C84.6893 18.1313 84.316 19.088 84.316 20.236C84.316 21.384 84.6893 22.3407 85.436 23.106C86.192 23.862 87.116 24.24 88.208 24.24C89.2067 24.24 90.0373 23.96 90.7 23.4C91.3627 22.84 91.7453 22.07 91.848 21.09H88.208V19.886H93.066C93.1127 20.1473 93.136 20.3993 93.136 20.642Z" fill="black"/>
<path d="M100.553 15.224V16.456H95.9889V19.634H100.105V20.838H95.9889V24.016H100.553V25.248H94.7009V15.224H100.553Z" fill="black"/>
<path d="M105.705 16.456V25.248H104.417V16.456H101.617V15.224H108.505V16.456H105.705Z" fill="black"/>
<path d="M114.214 25.248H112.926V15.224H114.214V25.248Z" fill="black"/>
<path d="M119.65 16.456V25.248H118.362V16.456H115.562V15.224H122.45V16.456H119.65Z" fill="black"/>
<path d="M136.411 20.236C136.411 21.72 135.917 22.9613 134.927 23.96C133.929 24.968 132.706 25.472 131.259 25.472C129.803 25.472 128.581 24.968 127.591 23.96C126.602 22.9613 126.107 21.72 126.107 20.236C126.107 18.752 126.602 17.5107 127.591 16.512C128.581 15.504 129.803 15 131.259 15C132.715 15 133.938 15.5087 134.927 16.526C135.917 17.5247 136.411 18.7613 136.411 20.236ZM127.423 20.236C127.423 21.3933 127.787 22.35 128.515 23.106C129.253 23.862 130.167 24.24 131.259 24.24C132.351 24.24 133.261 23.862 133.989 23.106C134.727 22.3593 135.095 21.4027 135.095 20.236C135.095 19.0693 134.727 18.1127 133.989 17.366C133.261 16.61 132.351 16.232 131.259 16.232C130.167 16.232 129.253 16.61 128.515 17.366C127.787 18.122 127.423 19.0787 127.423 20.236Z" fill="black"/>
<path d="M139.219 25.248H137.931V15.224H139.499L144.371 23.022H144.427L144.371 21.09V15.224H145.659V25.248H144.315L139.219 17.072H139.163L139.219 19.004V25.248Z" fill="black"/>
<path d="M175.243 54.196H178.289V33.603H175.243V54.196ZM202.679 41.0208L199.187 49.9492H199.082L195.458 41.0208H192.177L197.612 53.4992L194.515 60.4409H197.69L206.066 41.0208H202.679ZM185.404 51.8568C184.405 51.8568 183.015 51.3544 183.015 50.1074C183.015 48.5194 184.747 47.9099 186.243 47.9099C187.582 47.9099 188.214 48.2014 189.027 48.5984C188.79 50.506 187.163 51.8568 185.404 51.8568ZM185.772 40.5711C183.566 40.5711 181.281 41.5513 180.337 43.7241L183.041 44.8624C183.619 43.7241 184.694 43.3518 185.824 43.3518C187.399 43.3518 189.001 44.3056 189.027 46.0023V46.2131C188.475 45.8952 187.295 45.4191 185.85 45.4191C182.936 45.4191 179.968 47.0352 179.968 50.0547C179.968 52.8106 182.358 54.5864 185.035 54.5864C187.084 54.5864 188.214 53.659 188.922 52.5717H189.027V54.1614H191.967V46.2659C191.967 42.6105 189.263 40.5711 185.772 40.5711ZM166.947 43.528H162.614V36.4693H166.947C169.224 36.4693 170.517 38.372 170.517 39.9979C170.517 41.5941 169.224 43.528 166.947 43.528ZM166.868 33.603H159.57V54.196H162.614V46.3944H166.868C170.244 46.3944 173.563 43.9267 173.563 39.9979C173.563 36.069 170.244 33.603 166.868 33.603ZM127.068 51.8601C124.964 51.8601 123.203 50.0827 123.203 47.6414C123.203 45.1737 124.964 43.3683 127.068 43.3683C129.146 43.3683 130.776 45.1737 130.776 47.6414C130.776 50.0827 129.146 51.8601 127.068 51.8601ZM130.567 42.174H130.461C129.777 41.352 128.463 40.609 126.806 40.609C123.333 40.609 120.152 43.6862 120.152 47.6414C120.152 51.5685 123.333 54.621 126.806 54.621C128.463 54.621 129.777 53.8781 130.461 53.028H130.567V54.0378C130.567 56.718 129.146 58.1512 126.858 58.1512C124.99 58.1512 123.833 56.7971 123.36 55.6555L120.704 56.7707C121.466 58.6289 123.492 60.9104 126.858 60.9104C130.434 60.9104 133.459 58.787 133.459 53.6128V41.0324H130.567V42.174ZM135.564 54.196H138.615V33.6014H135.564V54.196ZM143.11 47.4025C143.032 44.696 145.188 43.3155 146.739 43.3155C147.95 43.3155 148.975 43.925 149.317 44.8014L143.11 47.4025ZM152.578 45.0666C152 43.5017 150.237 40.609 146.635 40.609C143.058 40.609 140.087 43.4473 140.087 47.615C140.087 51.5422 143.032 54.621 146.976 54.621C150.159 54.621 152 52.6574 152.763 51.5158L150.396 49.9229C149.607 51.0908 148.528 51.8601 146.976 51.8601C145.425 51.8601 144.32 51.1435 143.61 49.7384L152.893 45.8623L152.578 45.0666ZM78.6167 42.7588V45.7305H85.6639C85.4533 47.4025 84.9015 48.6232 84.0608 49.4715C83.034 50.5077 81.4294 51.6493 78.6167 51.6493C74.2761 51.6493 70.884 48.1191 70.884 43.7405C70.884 39.3604 74.2761 35.8318 78.6167 35.8318C80.9576 35.8318 82.6667 36.7609 83.9286 37.9552L86.0067 35.8582C84.2437 34.1598 81.9044 32.8585 78.6167 32.8585C72.6731 32.8585 67.6763 37.7427 67.6763 43.7405C67.6763 49.7384 72.6731 54.621 78.6167 54.621C81.8244 54.621 84.2437 53.5585 86.1373 51.5685C88.0847 49.6049 88.6887 46.8457 88.6887 44.6153C88.6887 43.925 88.6365 43.2892 88.5304 42.7588H78.6167ZM96.7022 51.8601C94.5981 51.8601 92.7828 50.109 92.7828 47.615C92.7828 45.093 94.5981 43.3683 96.7022 43.3683C98.8048 43.3683 100.62 45.093 100.62 47.615C100.62 50.109 98.8048 51.8601 96.7022 51.8601ZM96.7022 40.609C92.8612 40.609 89.7318 43.5544 89.7318 47.615C89.7318 51.6493 92.8612 54.621 96.7022 54.621C100.542 54.621 103.671 51.6493 103.671 47.615C103.671 43.5544 100.542 40.609 96.7022 40.609ZM111.905 51.8601C109.801 51.8601 107.986 50.109 107.986 47.615C107.986 45.093 109.801 43.3683 111.905 43.3683C114.009 43.3683 115.823 45.093 115.823 47.615C115.823 50.109 114.009 51.8601 111.905 51.8601ZM111.905 40.609C108.065 40.609 104.936 43.5544 104.936 47.615C104.936 51.6493 108.065 54.621 111.905 54.621C115.744 54.621 118.874 51.6493 118.874 47.615C118.874 43.5544 115.744 40.609 111.905 40.609Z" fill="black"/>
</svg>
