<svg width="124" height="23" viewBox="0 0 124 23" fill="none" xmlns="http://www.w3.org/2000/svg">
<path d="M4.0686 22.326C3.72054 22.326 3.41796 22.2507 3.1626 22.1C2.90725 21.9494 2.70961 21.734 2.56968 21.452C2.42976 21.1718 2.3598 20.839 2.3598 20.4555C2.3598 20.0719 2.41577 19.7286 2.52946 19.3783C2.64314 19.028 2.8058 18.711 3.02093 18.4308C3.23606 18.1506 3.49142 17.9247 3.79225 17.7583C4.09308 17.5919 4.43239 17.5078 4.81018 17.5078C5.14774 17.5078 5.43808 17.5761 5.67945 17.711C5.92081 17.8458 6.10796 18.0297 6.24088 18.2627C6.37206 18.4939 6.43852 18.7548 6.43852 19.0456H5.99252C5.98553 18.8336 5.93306 18.6427 5.83336 18.4746C5.73367 18.3065 5.59549 18.1716 5.42059 18.0753C5.24394 17.9772 5.03581 17.9282 4.79444 17.9282C4.48836 17.9282 4.21202 17.9982 3.96715 18.1401C3.72229 18.2819 3.51241 18.4728 3.33751 18.7145C3.1626 18.9562 3.02793 19.226 2.93523 19.5255C2.84253 19.8249 2.79531 20.1314 2.79531 20.4432C2.79531 20.9213 2.91774 21.2856 3.16085 21.5343C3.40397 21.783 3.7118 21.9074 4.08609 21.9074C4.3362 21.9074 4.56882 21.8583 4.7857 21.7603C5.00258 21.6622 5.19147 21.5291 5.35063 21.3609C5.50979 21.1928 5.62873 21.0019 5.70918 20.79H6.15868C6.06073 21.0755 5.91032 21.3347 5.70918 21.5659C5.50804 21.797 5.26668 21.9827 4.98683 22.1193C4.70699 22.2577 4.40091 22.326 4.07035 22.326H4.0686Z" fill="white"/>
<path d="M12.1053 22.326C11.759 22.326 11.4582 22.2507 11.2028 22.1C10.9475 21.9494 10.7481 21.734 10.6082 21.452C10.4683 21.1718 10.3965 20.839 10.3965 20.452C10.3965 20.0649 10.4543 19.7251 10.5679 19.3748C10.6816 19.0245 10.846 18.7075 11.0594 18.4273C11.2728 18.1471 11.5299 17.9229 11.8307 17.7565C12.1316 17.5901 12.4709 17.5078 12.8487 17.5078C13.195 17.5078 13.4941 17.5831 13.7494 17.7337C14.0048 17.8844 14.2007 18.1015 14.3406 18.3818C14.4805 18.662 14.5505 18.9948 14.5505 19.3783C14.5505 19.7619 14.4945 20.1087 14.3808 20.459C14.2671 20.8092 14.1045 21.1262 13.8911 21.4065C13.6777 21.6885 13.4206 21.9109 13.1198 22.0773C12.8189 22.2437 12.4796 22.326 12.1018 22.326H12.1053ZM12.1228 21.9074C12.4324 21.9074 12.7105 21.8356 12.9571 21.692C13.202 21.5483 13.4119 21.3557 13.585 21.1122C13.7582 20.8705 13.8893 20.5991 13.982 20.3013C14.073 20.0036 14.1185 19.7006 14.1185 19.3941C14.1185 18.9265 14.0013 18.5639 13.7669 18.31C13.5325 18.0543 13.2212 17.9282 12.8364 17.9282C12.5269 17.9282 12.247 18 12.0004 18.1436C11.7538 18.2872 11.5422 18.4799 11.369 18.7233C11.1941 18.965 11.0629 19.2365 10.972 19.5342C10.881 19.8319 10.8355 20.1349 10.8355 20.4414C10.8355 20.9073 10.9527 21.2681 11.1889 21.5256C11.425 21.783 11.738 21.9091 12.1281 21.9091L12.1228 21.9074Z" fill="white"/>
<path d="M18.4981 22.2629L19.2746 17.5708H19.7784L21.3822 20.7584C21.4364 20.8652 21.5046 21.0071 21.5833 21.1822C21.6638 21.3574 21.7425 21.55 21.823 21.7602C21.8422 21.5518 21.8649 21.3556 21.8929 21.17C21.9209 20.9843 21.9454 20.8197 21.9681 20.6778L22.4806 17.5726H22.9266L22.15 22.2646H21.6463L20.1421 19.2977C20.0617 19.1418 19.983 18.9737 19.9008 18.7915C19.8203 18.6094 19.7206 18.3747 19.6 18.0875C19.5615 18.3624 19.53 18.6006 19.5055 18.8003C19.481 19.0017 19.4565 19.1646 19.4355 19.2925L18.9441 22.2629H18.4946H18.4981Z" fill="white"/>
<path d="M28.1667 22.3417C27.8483 22.3417 27.5772 22.2891 27.3516 22.1823C27.126 22.0755 26.9598 21.9283 26.8496 21.7392C26.7395 21.55 26.6975 21.3293 26.722 21.0754H27.1785C27.1575 21.3539 27.2432 21.5675 27.4356 21.7147C27.628 21.8618 27.8798 21.9353 28.1911 21.9353C28.4238 21.9353 28.6371 21.8968 28.8313 21.818C29.0254 21.7409 29.1863 21.6323 29.3123 21.494C29.4399 21.3556 29.5187 21.1927 29.5501 21.0053C29.5904 20.7724 29.5326 20.5937 29.3787 20.4694C29.2248 20.345 29.0044 20.2382 28.7158 20.1489L28.1876 19.9843C27.8483 19.8792 27.5895 19.732 27.4128 19.5394C27.2362 19.3485 27.1715 19.098 27.2222 18.7898C27.2624 18.5358 27.3621 18.3116 27.5248 18.119C27.6857 17.9263 27.8903 17.774 28.1352 17.6654C28.38 17.5568 28.6494 17.5007 28.9397 17.5007C29.2301 17.5007 29.4837 17.555 29.6953 17.6636C29.9087 17.7722 30.0678 17.9193 30.1745 18.1067C30.2812 18.2941 30.3215 18.5078 30.2935 18.7495H29.8562C29.8737 18.492 29.795 18.2854 29.6218 18.133C29.4487 17.9806 29.2091 17.9053 28.8995 17.9053C28.6861 17.9053 28.4902 17.9421 28.3136 18.0157C28.1369 18.0892 27.99 18.1908 27.8746 18.3204C27.7591 18.45 27.6874 18.5971 27.6612 18.7618C27.6332 18.9264 27.6559 19.0613 27.7294 19.1698C27.8011 19.2784 27.9043 19.3677 28.0337 19.4378C28.1649 19.5079 28.3031 19.5657 28.4465 19.6094L28.9117 19.7548C29.0552 19.7986 29.1951 19.8529 29.335 19.9177C29.4749 19.9825 29.5991 20.0613 29.7075 20.1594C29.816 20.2557 29.8964 20.3731 29.9489 20.5114C30.0014 20.6498 30.0119 20.8162 29.9804 21.0123C29.9384 21.2663 29.8387 21.494 29.6831 21.6919C29.5274 21.8916 29.321 22.0492 29.0639 22.1665C28.8068 22.2839 28.506 22.3417 28.1632 22.3417H28.1667Z" fill="white"/>
<path d="M35.9218 22.3347C35.5633 22.3347 35.2607 22.2611 35.0123 22.114C34.7657 21.9669 34.5856 21.7672 34.4754 21.5133C34.3634 21.2593 34.3354 20.9721 34.3879 20.6533L34.9004 17.5708H35.3464L34.8374 20.6533C34.7954 20.9003 34.8129 21.1209 34.8916 21.3118C34.9703 21.5027 35.098 21.6516 35.2764 21.7585C35.4548 21.8653 35.6769 21.9196 35.9393 21.9196C36.2016 21.9196 36.457 21.8635 36.6791 21.7514C36.9013 21.6394 37.0849 21.4852 37.2318 21.2891C37.377 21.0929 37.4714 20.8705 37.5134 20.6235L38.0171 17.5726H38.4631L37.9507 20.6866C37.8982 21.0071 37.7775 21.2926 37.5886 21.5413C37.3997 21.79 37.1619 21.9844 36.875 22.1263C36.5882 22.2664 36.2716 22.3364 35.9253 22.3364L35.9218 22.3347Z" fill="white"/>
<path d="M42.2393 22.2629L43.0158 17.5708H43.4653L42.7552 21.8635H44.9817L44.9153 22.2629H42.2393Z" fill="white"/>
<path d="M49.0394 17.9701L49.1094 17.5708H52.5252L52.4553 17.9701H50.9738L50.2637 22.2629H49.8177L50.5278 17.9701H49.0394Z" fill="white"/>
<path d="M57.279 17.5708L56.5025 22.2629H56.0566L56.833 17.5708H57.279Z" fill="white"/>
<path d="M61.0937 22.2629L61.8703 17.5708H62.374L63.9778 20.7584C64.0321 20.8652 64.0985 21.0071 64.179 21.1822C64.2594 21.3574 64.3381 21.55 64.4186 21.7602C64.4378 21.5518 64.4606 21.3556 64.4885 21.17C64.5165 20.9843 64.541 20.8197 64.5637 20.6778L65.0762 17.5726H65.5222L64.7456 22.2646H64.2419L62.7395 19.2977C62.6591 19.1418 62.5804 18.9737 62.4982 18.7915C62.4177 18.6094 62.318 18.3747 62.1973 18.0875C62.1588 18.3624 62.1274 18.6006 62.1029 18.8003C62.0784 19.0017 62.0539 19.1646 62.0329 19.2925L61.5432 22.2629H61.0937Z" fill="white"/>
<path d="M71.1926 22.326C70.834 22.326 70.5262 22.2507 70.2691 22.1001C70.012 21.9495 69.8143 21.734 69.6762 21.4556C69.538 21.1771 69.468 20.8478 69.468 20.4643C69.468 20.0807 69.524 19.7339 69.6342 19.3819C69.7444 19.0298 69.907 18.7128 70.1187 18.4309C70.3303 18.1489 70.5874 17.9229 70.8882 17.7566C71.1891 17.5902 71.5301 17.5061 71.9079 17.5061C72.2542 17.5061 72.5498 17.5762 72.7929 17.7163C73.0378 17.8564 73.2249 18.0438 73.3561 18.275C73.4873 18.5062 73.5555 18.7619 73.559 19.0386H73.1007C73.0815 18.8337 73.0238 18.6463 72.9276 18.4764C72.8314 18.3083 72.6967 18.1734 72.5253 18.0736C72.3539 17.9737 72.1423 17.9247 71.8939 17.9247C71.5843 17.9247 71.3062 17.9965 71.0614 18.1419C70.8165 18.2872 70.6066 18.4799 70.4352 18.7233C70.2638 18.965 70.1326 19.2365 70.04 19.5325C69.949 19.8302 69.9035 20.1315 69.9035 20.438C69.9035 20.9039 70.0225 21.2647 70.2586 21.5221C70.4947 21.7796 70.813 21.9057 71.2083 21.9057C71.4969 21.9057 71.7627 21.8426 72.0024 21.7183C72.242 21.5939 72.4431 21.417 72.6058 21.1876C72.7684 20.9582 72.8769 20.6902 72.9346 20.3819H71.5826L71.649 19.9844H73.4383L73.3718 20.3872C73.3054 20.7813 73.169 21.1245 72.9643 21.4135C72.7597 21.7025 72.5061 21.9267 72.2017 22.0861C71.8974 22.2455 71.5616 22.3243 71.1926 22.3243V22.326Z" fill="white"/>
<path d="M82.6294 22.2629L83.406 17.5708H86.1327L86.0662 17.9701H83.7855L83.4899 19.7531H85.5538L85.4908 20.1524H83.4269L83.0754 22.2629H82.6294Z" fill="white"/>
<path d="M91.6124 22.326C91.2661 22.326 90.9652 22.2507 90.7099 22.1C90.4545 21.9494 90.2569 21.734 90.1152 21.452C89.9753 21.1718 89.9053 20.839 89.9053 20.452C89.9053 20.0649 89.9631 19.7251 90.0767 19.3748C90.1904 19.0245 90.3548 18.7075 90.5682 18.4273C90.7816 18.1471 91.0387 17.9229 91.3395 17.7565C91.6404 17.5901 91.9797 17.5078 92.3575 17.5078C92.7038 17.5078 93.0046 17.5831 93.2582 17.7337C93.5136 17.8844 93.7095 18.1015 93.8494 18.3818C93.9893 18.662 94.0593 18.9948 94.0593 19.3783C94.0593 19.7619 94.0033 20.1087 93.8896 20.459C93.7759 20.8092 93.6133 21.1262 93.3999 21.4065C93.1865 21.6885 92.9294 21.9109 92.6286 22.0773C92.3277 22.2437 91.9884 22.326 91.6106 22.326H91.6124ZM91.6299 21.9074C91.9394 21.9074 92.2175 21.8356 92.4642 21.692C92.709 21.5483 92.9189 21.3557 93.092 21.1122C93.2652 20.8705 93.3964 20.5991 93.4891 20.3013C93.58 20.0036 93.6255 19.7006 93.6255 19.3941C93.6255 18.9265 93.5083 18.5639 93.274 18.31C93.0396 18.056 92.7283 17.9282 92.3435 17.9282C92.0339 17.9282 91.754 18 91.5074 18.1436C91.2591 18.2872 91.0492 18.4799 90.876 18.7233C90.7011 18.965 90.57 19.2365 90.479 19.5342C90.3881 19.8319 90.3426 20.1349 90.3426 20.4414C90.3426 20.9073 90.4598 21.2681 90.6959 21.5256C90.932 21.783 91.2451 21.9091 91.6351 21.9091L91.6299 21.9074Z" fill="white"/>
<path d="M98.0051 22.2629L98.7817 17.5708H100.31C100.644 17.5708 100.912 17.6303 101.117 17.7512C101.321 17.872 101.463 18.0384 101.542 18.2521C101.62 18.4658 101.636 18.7092 101.591 18.9842C101.538 19.2942 101.419 19.5639 101.232 19.7934C101.045 20.0228 100.798 20.1857 100.492 20.282L101.241 22.2629H100.728L100.023 20.3696C99.9675 20.3731 99.908 20.3766 99.8468 20.3766H98.7642L98.4494 22.2629H98.0034H98.0051ZM98.8324 19.9738H99.8853C100.253 19.9738 100.541 19.8844 100.753 19.704C100.964 19.5236 101.094 19.2854 101.143 18.9842C101.195 18.6689 101.145 18.422 100.994 18.2416C100.842 18.0612 100.588 17.9701 100.232 17.9701H99.163L98.8324 19.9738Z" fill="white"/>
<path d="M107.284 22.326C106.936 22.326 106.633 22.2507 106.378 22.1C106.122 21.9494 105.925 21.734 105.785 21.452C105.645 21.1718 105.575 20.839 105.575 20.4555C105.575 20.0719 105.631 19.7286 105.744 19.3783C105.858 19.028 106.021 18.711 106.234 18.4308C106.448 18.1488 106.705 17.9247 107.007 17.7583C107.308 17.5919 107.647 17.5078 108.025 17.5078C108.363 17.5078 108.653 17.5761 108.894 17.711C109.136 17.8458 109.323 18.0297 109.456 18.2627C109.589 18.4939 109.654 18.7548 109.654 19.0456H109.208C109.201 18.8336 109.148 18.6427 109.048 18.4746C108.949 18.3065 108.811 18.1716 108.634 18.0753C108.457 17.9772 108.249 17.9282 108.008 17.9282C107.702 17.9282 107.425 17.9982 107.18 18.1401C106.936 18.2819 106.726 18.4728 106.549 18.7145C106.374 18.9562 106.239 19.226 106.147 19.5255C106.054 19.8249 106.007 20.1314 106.007 20.4432C106.007 20.9213 106.128 21.2856 106.372 21.5343C106.615 21.783 106.923 21.9074 107.298 21.9074C107.548 21.9074 107.78 21.8583 107.997 21.7603C108.214 21.6622 108.403 21.5291 108.562 21.3609C108.721 21.1928 108.84 21.0019 108.921 20.79H109.37C109.272 21.0755 109.122 21.3347 108.921 21.5659C108.72 21.797 108.478 21.9827 108.198 22.1193C107.919 22.2577 107.612 22.326 107.282 22.326H107.284Z" fill="white"/>
<path d="M113.475 22.2629L114.252 17.5708H116.987L116.921 17.9701H114.635L114.348 19.7023H116.491L116.424 20.0999H114.28L113.991 21.8635H116.319L116.256 22.2629H113.475Z" fill="white"/>
<path d="M1.02532 10.6209L2.21116 4.1669C2.56446 2.23683 4.43767 0.674561 6.39832 0.674561H13.8142C14.2322 0.674561 14.512 1.00733 14.4386 1.42067L14.08 3.40153C14.0048 3.81311 13.606 4.14763 13.188 4.14763H6.73413C6.48402 4.14763 6.24441 4.34905 6.19893 4.596L5.18975 10.1655C5.14602 10.4142 5.31218 10.6139 5.56404 10.6139H12.0179C12.4359 10.6139 12.7158 10.9467 12.6423 11.36L12.2768 13.3881C12.2016 13.7997 11.8028 14.1343 11.3848 14.1343H3.94969C1.98204 14.1343 0.672021 12.5615 1.02532 10.6244V10.6209Z" fill="white"/>
<path d="M29.7512 4.16158L28.5846 10.6261C28.2348 12.5614 26.3581 14.1307 24.3922 14.1307H16.6546C14.6887 14.1307 13.3769 12.5614 13.7267 10.6261L14.8933 4.16158C15.2431 2.22626 17.1198 0.656982 19.0857 0.656982H26.8234C28.7893 0.656982 30.101 2.22626 29.7512 4.16158ZM25.6113 4.57317C25.655 4.32621 25.4889 4.1248 25.237 4.1248H19.411C19.1592 4.1248 18.9195 4.32446 18.8758 4.57317L17.8666 10.1655C17.8229 10.4142 17.9891 10.6138 18.2409 10.6138H24.0687C24.3188 10.6138 24.5601 10.4142 24.6056 10.1655L25.6131 4.57317H25.6113Z" fill="white"/>
<path d="M34.75 6.65719L33.5344 13.3844C33.4592 13.796 33.0604 14.1305 32.6424 14.1305H30.1291C29.7111 14.1305 29.4312 13.7977 29.5064 13.3844L31.6595 1.45196C31.7347 1.04038 32.1335 0.705852 32.5515 0.705852H35.7557C35.9778 0.705852 36.1737 0.802181 36.2891 0.972069L40.0828 7.72381C40.179 7.86567 40.3958 7.82714 40.4273 7.66251L41.5484 1.45021C41.6237 1.03862 42.0224 0.704102 42.4404 0.704102H44.9538C45.3718 0.704102 45.6517 1.03687 45.5799 1.45196L43.4269 13.3844C43.3517 13.796 42.9529 14.1305 42.5349 14.1305H39.7592C39.5353 14.1305 39.3412 14.0324 39.2275 13.8643L35.098 6.59589C35.0019 6.45402 34.7832 6.49255 34.7535 6.65719H34.75Z" fill="white"/>
<path d="M40.9783 14.1288C40.5602 14.1288 40.2804 13.7961 40.3556 13.3827L40.7211 11.3563C40.7964 10.9448 41.1951 10.6102 41.6132 10.6102H55.2835C55.5336 10.6102 55.775 10.4106 55.8205 10.1619L55.9341 9.52786C55.9779 9.27915 55.8117 9.07949 55.5599 9.07949H49.5065C47.5406 9.07949 46.2288 7.51197 46.5786 5.5749L46.827 4.20528C47.1768 2.26996 49.0535 0.700684 51.0194 0.700684H66.9757C67.3937 0.700684 67.6736 1.03345 67.5984 1.44854L67.2503 3.37861C67.1751 3.7902 66.7763 4.12472 66.3583 4.12472H51.1646C50.9127 4.12472 50.6731 4.32438 50.6294 4.57308L50.4754 5.41902C50.4317 5.66772 50.5979 5.86738 50.8497 5.86738H56.9031C58.869 5.86738 60.1808 7.43666 59.831 9.37198L59.6053 10.6278C59.2555 12.5631 57.3788 14.1324 55.4129 14.1324H55.0212L40.9818 14.1306L40.9783 14.1288Z" fill="white"/>
<path d="M60.8087 13.3862L62.9635 1.44679C63.0387 1.0352 63.4374 0.700684 63.8555 0.700684H75.023C75.2748 0.700684 75.441 0.900347 75.3973 1.14204L74.9408 3.67285C74.897 3.92155 74.6557 4.12121 74.4056 4.12121H66.6801C66.5962 4.12121 66.5157 4.18952 66.5017 4.27184L66.2516 5.65546C66.2376 5.73778 66.2919 5.80608 66.3758 5.80608H72.681C72.9329 5.80608 73.0991 6.0075 73.0553 6.25445L72.6373 8.57859C72.5936 8.82729 72.3522 9.02695 72.1021 9.02695H65.7969C65.7129 9.02695 65.6325 9.09526 65.6185 9.17757L64.8577 13.3897C64.7824 13.8013 64.3837 14.1359 63.9657 14.1359H61.4348C61.0168 14.1359 60.737 13.8031 60.8104 13.3897L60.8087 13.3862Z" fill="white"/>
<path d="M90.4599 4.16158L89.2933 10.6261C88.9435 12.5614 87.0668 14.1307 85.1009 14.1307H77.3632C75.3973 14.1307 74.0855 12.5614 74.4353 10.6261L75.6019 4.16158C75.9517 2.22626 77.8284 0.656982 79.7943 0.656982H87.532C89.4979 0.656982 90.8097 2.22626 90.4599 4.16158ZM86.3217 4.57317C86.3654 4.32621 86.1992 4.1248 85.9474 4.1248H80.1214C79.8695 4.1248 79.6299 4.32446 79.5862 4.57317L78.577 10.1655C78.5333 10.4142 78.6994 10.6138 78.9513 10.6138H84.779C85.0291 10.6138 85.2705 10.4142 85.316 10.1655L86.3234 4.57317H86.3217Z" fill="white"/>
<path d="M90.6645 14.1307C90.2465 14.1307 89.9666 13.7979 90.0418 13.3846L92.1984 1.43288C92.2736 1.02129 92.6724 0.686768 93.0904 0.686768H102.654C104.62 0.686768 105.932 2.25604 105.58 4.19312L105.029 7.2476C104.79 8.57693 103.826 9.72411 102.609 10.3161C102.521 10.3599 102.476 10.4562 102.518 10.5298L104.093 13.2778C104.302 13.6491 104.041 14.0922 103.618 14.0922C102.301 14.0922 101.482 14.1342 100.943 14.1254C100.025 14.1395 99.7192 14.1009 99.553 13.7664L98.1101 10.9466C98.0471 10.824 97.9212 10.7487 97.7707 10.7487L94.71 10.7522C94.626 10.7522 94.5456 10.8205 94.5316 10.9028L94.0838 13.3811C94.0086 13.7927 93.6098 14.1272 93.1918 14.1272H90.6627L90.6645 14.1307ZM95.1979 7.23884C95.1839 7.32291 95.2382 7.38947 95.3221 7.38947H100.272C100.644 7.38947 100.999 7.09172 101.066 6.72567L101.428 4.71504C101.494 4.34724 101.246 4.0495 100.872 4.0495H95.922C95.8381 4.0495 95.7576 4.11781 95.7436 4.19837L95.1944 7.23709L95.1979 7.23884Z" fill="white"/>
<path d="M105.487 10.6209L106.673 4.1669C107.027 2.23683 108.9 0.674561 110.86 0.674561H118.276C118.694 0.674561 118.974 1.00733 118.901 1.42067L118.542 3.40153C118.467 3.81311 118.068 4.14763 117.65 4.14763H111.196C110.946 4.14763 110.706 4.34905 110.663 4.596L109.654 10.1655C109.61 10.4142 109.776 10.6139 110.028 10.6139H116.482C116.9 10.6139 117.18 10.9467 117.106 11.36L116.741 13.3881C116.665 13.7997 116.267 14.1343 115.849 14.1343H108.415C106.448 14.1343 105.138 12.5615 105.491 10.6244L105.487 10.6209Z" fill="white"/>
<path d="M123.021 11.2949L122.645 13.4229C122.575 13.8117 122.203 14.1304 121.813 14.1304H119.688C119.298 14.1304 119.037 13.8169 119.107 13.4246L119.481 11.2966C119.551 10.9078 119.922 10.5908 120.314 10.5908H122.439C122.829 10.5908 123.09 10.9043 123.021 11.2949Z" fill="white"/>
</svg>
